G04 EAGLE Gerber RS-274X export*
G75*
%MOMM*%
%FSLAX34Y34*%
%LPD*%
%INTop Silkscreen*%
%IPPOS*%
%AMOC8*
5,1,8,0,0,1.08239X$1,22.5*%
G01*
%ADD10C,0.152400*%
%ADD11C,0.254000*%
%ADD12C,0.203200*%
%ADD13C,0.127000*%
%ADD14C,0.101600*%


D10*
X51562Y216662D02*
X62399Y232918D01*
X51562Y232918D02*
X62399Y216662D01*
X71045Y222984D02*
X75109Y222984D01*
X71045Y222984D02*
X70933Y222982D01*
X70822Y222976D01*
X70711Y222966D01*
X70600Y222953D01*
X70490Y222935D01*
X70381Y222913D01*
X70272Y222888D01*
X70164Y222859D01*
X70058Y222826D01*
X69952Y222789D01*
X69848Y222749D01*
X69746Y222705D01*
X69645Y222657D01*
X69546Y222606D01*
X69448Y222551D01*
X69353Y222493D01*
X69260Y222432D01*
X69169Y222367D01*
X69080Y222299D01*
X68994Y222228D01*
X68911Y222155D01*
X68830Y222078D01*
X68751Y221998D01*
X68676Y221916D01*
X68604Y221831D01*
X68534Y221744D01*
X68468Y221654D01*
X68405Y221562D01*
X68345Y221467D01*
X68289Y221371D01*
X68236Y221273D01*
X68187Y221173D01*
X68141Y221071D01*
X68099Y220968D01*
X68060Y220863D01*
X68025Y220757D01*
X67994Y220650D01*
X67967Y220542D01*
X67943Y220433D01*
X67924Y220323D01*
X67908Y220213D01*
X67896Y220102D01*
X67888Y219990D01*
X67884Y219879D01*
X67884Y219767D01*
X67888Y219656D01*
X67896Y219544D01*
X67908Y219433D01*
X67924Y219323D01*
X67943Y219213D01*
X67967Y219104D01*
X67994Y218996D01*
X68025Y218889D01*
X68060Y218783D01*
X68099Y218678D01*
X68141Y218575D01*
X68187Y218473D01*
X68236Y218373D01*
X68289Y218275D01*
X68345Y218179D01*
X68405Y218084D01*
X68468Y217992D01*
X68534Y217902D01*
X68604Y217815D01*
X68676Y217730D01*
X68751Y217648D01*
X68830Y217568D01*
X68911Y217491D01*
X68994Y217418D01*
X69080Y217347D01*
X69169Y217279D01*
X69260Y217214D01*
X69353Y217153D01*
X69448Y217095D01*
X69546Y217040D01*
X69645Y216989D01*
X69746Y216941D01*
X69848Y216897D01*
X69952Y216857D01*
X70058Y216820D01*
X70164Y216787D01*
X70272Y216758D01*
X70381Y216733D01*
X70490Y216711D01*
X70600Y216693D01*
X70711Y216680D01*
X70822Y216670D01*
X70933Y216664D01*
X71045Y216662D01*
X75109Y216662D01*
X75109Y224790D01*
X75107Y224891D01*
X75101Y224992D01*
X75092Y225093D01*
X75079Y225194D01*
X75062Y225294D01*
X75041Y225393D01*
X75017Y225491D01*
X74989Y225588D01*
X74957Y225685D01*
X74922Y225780D01*
X74883Y225873D01*
X74841Y225965D01*
X74795Y226056D01*
X74746Y226145D01*
X74694Y226231D01*
X74638Y226316D01*
X74580Y226399D01*
X74518Y226479D01*
X74453Y226557D01*
X74386Y226633D01*
X74316Y226706D01*
X74243Y226776D01*
X74167Y226843D01*
X74089Y226908D01*
X74009Y226970D01*
X73926Y227028D01*
X73841Y227084D01*
X73755Y227136D01*
X73666Y227185D01*
X73575Y227231D01*
X73483Y227273D01*
X73390Y227312D01*
X73295Y227347D01*
X73198Y227379D01*
X73101Y227407D01*
X73003Y227431D01*
X72904Y227452D01*
X72804Y227469D01*
X72703Y227482D01*
X72602Y227491D01*
X72501Y227497D01*
X72400Y227499D01*
X68787Y227499D01*
X81504Y227499D02*
X85117Y216662D01*
X88729Y227499D01*
X94496Y227499D02*
X94496Y216662D01*
X94044Y232015D02*
X94044Y232918D01*
X94947Y232918D01*
X94947Y232015D01*
X94044Y232015D01*
X103492Y216662D02*
X108008Y216662D01*
X103492Y216662D02*
X103391Y216664D01*
X103290Y216670D01*
X103189Y216679D01*
X103088Y216692D01*
X102988Y216709D01*
X102889Y216730D01*
X102791Y216754D01*
X102694Y216782D01*
X102597Y216814D01*
X102502Y216849D01*
X102409Y216888D01*
X102317Y216930D01*
X102226Y216976D01*
X102138Y217025D01*
X102051Y217077D01*
X101966Y217133D01*
X101883Y217191D01*
X101803Y217253D01*
X101725Y217318D01*
X101649Y217385D01*
X101576Y217455D01*
X101506Y217528D01*
X101439Y217604D01*
X101374Y217682D01*
X101312Y217762D01*
X101254Y217845D01*
X101198Y217930D01*
X101146Y218017D01*
X101097Y218105D01*
X101051Y218196D01*
X101009Y218288D01*
X100970Y218381D01*
X100935Y218476D01*
X100903Y218573D01*
X100875Y218670D01*
X100851Y218768D01*
X100830Y218867D01*
X100813Y218967D01*
X100800Y219068D01*
X100791Y219169D01*
X100785Y219270D01*
X100783Y219371D01*
X100783Y223887D01*
X100785Y224006D01*
X100791Y224126D01*
X100801Y224245D01*
X100815Y224363D01*
X100832Y224482D01*
X100854Y224599D01*
X100879Y224716D01*
X100909Y224831D01*
X100942Y224946D01*
X100979Y225060D01*
X101019Y225172D01*
X101064Y225283D01*
X101112Y225392D01*
X101163Y225500D01*
X101218Y225606D01*
X101277Y225710D01*
X101339Y225812D01*
X101404Y225912D01*
X101473Y226010D01*
X101545Y226106D01*
X101620Y226199D01*
X101697Y226289D01*
X101778Y226377D01*
X101862Y226462D01*
X101949Y226544D01*
X102038Y226624D01*
X102130Y226700D01*
X102224Y226774D01*
X102321Y226844D01*
X102419Y226911D01*
X102520Y226975D01*
X102624Y227035D01*
X102729Y227092D01*
X102836Y227145D01*
X102944Y227195D01*
X103054Y227241D01*
X103166Y227283D01*
X103279Y227322D01*
X103393Y227357D01*
X103508Y227388D01*
X103625Y227416D01*
X103742Y227439D01*
X103859Y227459D01*
X103978Y227475D01*
X104097Y227487D01*
X104216Y227495D01*
X104335Y227499D01*
X104455Y227499D01*
X104574Y227495D01*
X104693Y227487D01*
X104812Y227475D01*
X104931Y227459D01*
X105048Y227439D01*
X105165Y227416D01*
X105282Y227388D01*
X105397Y227357D01*
X105511Y227322D01*
X105624Y227283D01*
X105736Y227241D01*
X105846Y227195D01*
X105954Y227145D01*
X106061Y227092D01*
X106166Y227035D01*
X106270Y226975D01*
X106371Y226911D01*
X106469Y226844D01*
X106566Y226774D01*
X106660Y226700D01*
X106752Y226624D01*
X106841Y226544D01*
X106928Y226462D01*
X107012Y226377D01*
X107093Y226289D01*
X107170Y226199D01*
X107245Y226106D01*
X107317Y226010D01*
X107386Y225912D01*
X107451Y225812D01*
X107513Y225710D01*
X107572Y225606D01*
X107627Y225500D01*
X107678Y225392D01*
X107726Y225283D01*
X107771Y225172D01*
X107811Y225060D01*
X107848Y224946D01*
X107881Y224831D01*
X107911Y224716D01*
X107936Y224599D01*
X107958Y224482D01*
X107975Y224363D01*
X107989Y224245D01*
X107999Y224126D01*
X108005Y224006D01*
X108007Y223887D01*
X108008Y223887D02*
X108008Y222081D01*
X100783Y222081D01*
X114936Y216662D02*
X114936Y227499D01*
X120355Y227499D01*
X120355Y225693D01*
X124195Y232918D02*
X124195Y236530D01*
X130795Y222984D02*
X135310Y221178D01*
X130794Y222984D02*
X130706Y223021D01*
X130620Y223062D01*
X130535Y223106D01*
X130452Y223154D01*
X130372Y223205D01*
X130293Y223259D01*
X130217Y223317D01*
X130143Y223377D01*
X130071Y223441D01*
X130003Y223507D01*
X129937Y223577D01*
X129874Y223648D01*
X129813Y223723D01*
X129756Y223799D01*
X129703Y223878D01*
X129652Y223959D01*
X129605Y224042D01*
X129561Y224127D01*
X129521Y224214D01*
X129484Y224302D01*
X129451Y224392D01*
X129421Y224483D01*
X129396Y224575D01*
X129374Y224668D01*
X129356Y224762D01*
X129341Y224856D01*
X129331Y224951D01*
X129325Y225047D01*
X129322Y225142D01*
X129323Y225238D01*
X129329Y225333D01*
X129338Y225429D01*
X129351Y225523D01*
X129367Y225617D01*
X129388Y225711D01*
X129413Y225803D01*
X129441Y225894D01*
X129473Y225984D01*
X129508Y226073D01*
X129547Y226160D01*
X129590Y226246D01*
X129636Y226330D01*
X129686Y226411D01*
X129738Y226491D01*
X129794Y226569D01*
X129854Y226644D01*
X129916Y226716D01*
X129981Y226786D01*
X130049Y226854D01*
X130119Y226918D01*
X130192Y226980D01*
X130268Y227038D01*
X130346Y227094D01*
X130426Y227146D01*
X130508Y227195D01*
X130592Y227240D01*
X130678Y227282D01*
X130765Y227321D01*
X130854Y227356D01*
X130945Y227387D01*
X131036Y227414D01*
X131129Y227438D01*
X131222Y227458D01*
X131316Y227474D01*
X131411Y227486D01*
X131506Y227495D01*
X131602Y227499D01*
X131697Y227500D01*
X131944Y227493D01*
X132190Y227481D01*
X132436Y227463D01*
X132682Y227438D01*
X132926Y227408D01*
X133170Y227372D01*
X133413Y227331D01*
X133655Y227283D01*
X133896Y227229D01*
X134135Y227170D01*
X134373Y227105D01*
X134609Y227034D01*
X134844Y226958D01*
X135077Y226876D01*
X135307Y226788D01*
X135535Y226695D01*
X135762Y226597D01*
X135311Y221177D02*
X135399Y221140D01*
X135485Y221099D01*
X135570Y221055D01*
X135653Y221007D01*
X135733Y220956D01*
X135812Y220902D01*
X135888Y220844D01*
X135962Y220784D01*
X136034Y220720D01*
X136102Y220654D01*
X136168Y220584D01*
X136231Y220513D01*
X136292Y220438D01*
X136349Y220362D01*
X136402Y220283D01*
X136453Y220202D01*
X136500Y220119D01*
X136544Y220034D01*
X136584Y219947D01*
X136621Y219859D01*
X136654Y219769D01*
X136684Y219678D01*
X136709Y219586D01*
X136731Y219493D01*
X136749Y219399D01*
X136764Y219305D01*
X136774Y219210D01*
X136780Y219114D01*
X136783Y219019D01*
X136782Y218923D01*
X136776Y218828D01*
X136767Y218732D01*
X136754Y218638D01*
X136738Y218544D01*
X136717Y218450D01*
X136692Y218358D01*
X136664Y218267D01*
X136632Y218177D01*
X136597Y218088D01*
X136558Y218001D01*
X136515Y217915D01*
X136469Y217831D01*
X136419Y217750D01*
X136367Y217670D01*
X136311Y217592D01*
X136251Y217517D01*
X136189Y217445D01*
X136124Y217375D01*
X136056Y217307D01*
X135986Y217243D01*
X135913Y217181D01*
X135837Y217123D01*
X135759Y217067D01*
X135679Y217015D01*
X135597Y216966D01*
X135513Y216921D01*
X135427Y216879D01*
X135340Y216840D01*
X135251Y216805D01*
X135160Y216774D01*
X135069Y216747D01*
X134976Y216723D01*
X134883Y216703D01*
X134789Y216687D01*
X134694Y216675D01*
X134599Y216666D01*
X134503Y216662D01*
X134408Y216661D01*
X134407Y216662D02*
X134045Y216671D01*
X133683Y216689D01*
X133322Y216716D01*
X132962Y216751D01*
X132602Y216794D01*
X132243Y216846D01*
X131886Y216907D01*
X131531Y216976D01*
X131177Y217053D01*
X130825Y217139D01*
X130475Y217233D01*
X130127Y217336D01*
X129782Y217446D01*
X129440Y217565D01*
X152195Y216662D02*
X152195Y232918D01*
X156710Y232918D01*
X156843Y232916D01*
X156975Y232910D01*
X157107Y232900D01*
X157239Y232887D01*
X157371Y232869D01*
X157501Y232848D01*
X157632Y232823D01*
X157761Y232794D01*
X157889Y232761D01*
X158017Y232725D01*
X158143Y232685D01*
X158268Y232641D01*
X158392Y232593D01*
X158514Y232542D01*
X158635Y232487D01*
X158754Y232429D01*
X158872Y232367D01*
X158987Y232302D01*
X159101Y232233D01*
X159212Y232162D01*
X159321Y232086D01*
X159428Y232008D01*
X159533Y231927D01*
X159635Y231842D01*
X159735Y231755D01*
X159832Y231665D01*
X159927Y231572D01*
X160018Y231476D01*
X160107Y231378D01*
X160193Y231277D01*
X160276Y231173D01*
X160356Y231067D01*
X160432Y230959D01*
X160506Y230849D01*
X160576Y230736D01*
X160643Y230622D01*
X160706Y230505D01*
X160766Y230387D01*
X160823Y230267D01*
X160876Y230145D01*
X160925Y230022D01*
X160971Y229898D01*
X161013Y229772D01*
X161051Y229645D01*
X161086Y229517D01*
X161117Y229388D01*
X161144Y229259D01*
X161167Y229128D01*
X161187Y228997D01*
X161202Y228865D01*
X161214Y228733D01*
X161222Y228601D01*
X161226Y228468D01*
X161226Y228336D01*
X161222Y228203D01*
X161214Y228071D01*
X161202Y227939D01*
X161187Y227807D01*
X161167Y227676D01*
X161144Y227545D01*
X161117Y227416D01*
X161086Y227287D01*
X161051Y227159D01*
X161013Y227032D01*
X160971Y226906D01*
X160925Y226782D01*
X160876Y226659D01*
X160823Y226537D01*
X160766Y226417D01*
X160706Y226299D01*
X160643Y226182D01*
X160576Y226068D01*
X160506Y225955D01*
X160432Y225845D01*
X160356Y225737D01*
X160276Y225631D01*
X160193Y225527D01*
X160107Y225426D01*
X160018Y225328D01*
X159927Y225232D01*
X159832Y225139D01*
X159735Y225049D01*
X159635Y224962D01*
X159533Y224877D01*
X159428Y224796D01*
X159321Y224718D01*
X159212Y224642D01*
X159101Y224571D01*
X158987Y224502D01*
X158872Y224437D01*
X158754Y224375D01*
X158635Y224317D01*
X158514Y224262D01*
X158392Y224211D01*
X158268Y224163D01*
X158143Y224119D01*
X158017Y224079D01*
X157889Y224043D01*
X157761Y224010D01*
X157632Y223981D01*
X157501Y223956D01*
X157371Y223935D01*
X157239Y223917D01*
X157107Y223904D01*
X156975Y223894D01*
X156843Y223888D01*
X156710Y223886D01*
X156710Y223887D02*
X152195Y223887D01*
X166920Y227499D02*
X166920Y216662D01*
X166469Y232015D02*
X166469Y232918D01*
X167372Y232918D01*
X167372Y232015D01*
X166469Y232015D01*
X176295Y222984D02*
X180359Y222984D01*
X176295Y222984D02*
X176183Y222982D01*
X176072Y222976D01*
X175961Y222966D01*
X175850Y222953D01*
X175740Y222935D01*
X175631Y222913D01*
X175522Y222888D01*
X175414Y222859D01*
X175308Y222826D01*
X175202Y222789D01*
X175098Y222749D01*
X174996Y222705D01*
X174895Y222657D01*
X174796Y222606D01*
X174698Y222551D01*
X174603Y222493D01*
X174510Y222432D01*
X174419Y222367D01*
X174330Y222299D01*
X174244Y222228D01*
X174161Y222155D01*
X174080Y222078D01*
X174001Y221998D01*
X173926Y221916D01*
X173854Y221831D01*
X173784Y221744D01*
X173718Y221654D01*
X173655Y221562D01*
X173595Y221467D01*
X173539Y221371D01*
X173486Y221273D01*
X173437Y221173D01*
X173391Y221071D01*
X173349Y220968D01*
X173310Y220863D01*
X173275Y220757D01*
X173244Y220650D01*
X173217Y220542D01*
X173193Y220433D01*
X173174Y220323D01*
X173158Y220213D01*
X173146Y220102D01*
X173138Y219990D01*
X173134Y219879D01*
X173134Y219767D01*
X173138Y219656D01*
X173146Y219544D01*
X173158Y219433D01*
X173174Y219323D01*
X173193Y219213D01*
X173217Y219104D01*
X173244Y218996D01*
X173275Y218889D01*
X173310Y218783D01*
X173349Y218678D01*
X173391Y218575D01*
X173437Y218473D01*
X173486Y218373D01*
X173539Y218275D01*
X173595Y218179D01*
X173655Y218084D01*
X173718Y217992D01*
X173784Y217902D01*
X173854Y217815D01*
X173926Y217730D01*
X174001Y217648D01*
X174080Y217568D01*
X174161Y217491D01*
X174244Y217418D01*
X174330Y217347D01*
X174419Y217279D01*
X174510Y217214D01*
X174603Y217153D01*
X174698Y217095D01*
X174796Y217040D01*
X174895Y216989D01*
X174996Y216941D01*
X175098Y216897D01*
X175202Y216857D01*
X175308Y216820D01*
X175414Y216787D01*
X175522Y216758D01*
X175631Y216733D01*
X175740Y216711D01*
X175850Y216693D01*
X175961Y216680D01*
X176072Y216670D01*
X176183Y216664D01*
X176295Y216662D01*
X180359Y216662D01*
X180359Y224790D01*
X180357Y224891D01*
X180351Y224992D01*
X180342Y225093D01*
X180329Y225194D01*
X180312Y225294D01*
X180291Y225393D01*
X180267Y225491D01*
X180239Y225588D01*
X180207Y225685D01*
X180172Y225780D01*
X180133Y225873D01*
X180091Y225965D01*
X180045Y226056D01*
X179996Y226145D01*
X179944Y226231D01*
X179888Y226316D01*
X179830Y226399D01*
X179768Y226479D01*
X179703Y226557D01*
X179636Y226633D01*
X179566Y226706D01*
X179493Y226776D01*
X179417Y226843D01*
X179339Y226908D01*
X179259Y226970D01*
X179176Y227028D01*
X179091Y227084D01*
X179005Y227136D01*
X178916Y227185D01*
X178825Y227231D01*
X178733Y227273D01*
X178640Y227312D01*
X178545Y227347D01*
X178448Y227379D01*
X178351Y227407D01*
X178253Y227431D01*
X178154Y227452D01*
X178054Y227469D01*
X177953Y227482D01*
X177852Y227491D01*
X177751Y227497D01*
X177650Y227499D01*
X174037Y227499D01*
X187797Y227499D02*
X187797Y216662D01*
X187797Y227499D02*
X192312Y227499D01*
X192416Y227497D01*
X192519Y227491D01*
X192623Y227481D01*
X192726Y227467D01*
X192828Y227449D01*
X192929Y227428D01*
X193030Y227402D01*
X193129Y227373D01*
X193228Y227340D01*
X193325Y227303D01*
X193420Y227262D01*
X193514Y227218D01*
X193606Y227170D01*
X193696Y227119D01*
X193785Y227064D01*
X193871Y227006D01*
X193954Y226944D01*
X194036Y226880D01*
X194114Y226812D01*
X194190Y226742D01*
X194264Y226669D01*
X194334Y226592D01*
X194402Y226514D01*
X194466Y226432D01*
X194528Y226349D01*
X194586Y226263D01*
X194641Y226174D01*
X194692Y226084D01*
X194740Y225992D01*
X194784Y225898D01*
X194825Y225803D01*
X194862Y225706D01*
X194895Y225607D01*
X194924Y225508D01*
X194950Y225407D01*
X194971Y225306D01*
X194989Y225204D01*
X195003Y225101D01*
X195013Y224997D01*
X195019Y224894D01*
X195021Y224790D01*
X195022Y224790D02*
X195022Y216662D01*
X201865Y220274D02*
X201865Y223887D01*
X201867Y224006D01*
X201873Y224126D01*
X201883Y224245D01*
X201897Y224363D01*
X201914Y224482D01*
X201936Y224599D01*
X201961Y224716D01*
X201991Y224831D01*
X202024Y224946D01*
X202061Y225060D01*
X202101Y225172D01*
X202146Y225283D01*
X202194Y225392D01*
X202245Y225500D01*
X202300Y225606D01*
X202359Y225710D01*
X202421Y225812D01*
X202486Y225912D01*
X202555Y226010D01*
X202627Y226106D01*
X202702Y226199D01*
X202779Y226289D01*
X202860Y226377D01*
X202944Y226462D01*
X203031Y226544D01*
X203120Y226624D01*
X203212Y226700D01*
X203306Y226774D01*
X203403Y226844D01*
X203501Y226911D01*
X203602Y226975D01*
X203706Y227035D01*
X203811Y227092D01*
X203918Y227145D01*
X204026Y227195D01*
X204136Y227241D01*
X204248Y227283D01*
X204361Y227322D01*
X204475Y227357D01*
X204590Y227388D01*
X204707Y227416D01*
X204824Y227439D01*
X204941Y227459D01*
X205060Y227475D01*
X205179Y227487D01*
X205298Y227495D01*
X205417Y227499D01*
X205537Y227499D01*
X205656Y227495D01*
X205775Y227487D01*
X205894Y227475D01*
X206013Y227459D01*
X206130Y227439D01*
X206247Y227416D01*
X206364Y227388D01*
X206479Y227357D01*
X206593Y227322D01*
X206706Y227283D01*
X206818Y227241D01*
X206928Y227195D01*
X207036Y227145D01*
X207143Y227092D01*
X207248Y227035D01*
X207352Y226975D01*
X207453Y226911D01*
X207551Y226844D01*
X207648Y226774D01*
X207742Y226700D01*
X207834Y226624D01*
X207923Y226544D01*
X208010Y226462D01*
X208094Y226377D01*
X208175Y226289D01*
X208252Y226199D01*
X208327Y226106D01*
X208399Y226010D01*
X208468Y225912D01*
X208533Y225812D01*
X208595Y225710D01*
X208654Y225606D01*
X208709Y225500D01*
X208760Y225392D01*
X208808Y225283D01*
X208853Y225172D01*
X208893Y225060D01*
X208930Y224946D01*
X208963Y224831D01*
X208993Y224716D01*
X209018Y224599D01*
X209040Y224482D01*
X209057Y224363D01*
X209071Y224245D01*
X209081Y224126D01*
X209087Y224006D01*
X209089Y223887D01*
X209090Y223887D02*
X209090Y220274D01*
X209089Y220274D02*
X209087Y220155D01*
X209081Y220035D01*
X209071Y219916D01*
X209057Y219798D01*
X209040Y219679D01*
X209018Y219562D01*
X208993Y219445D01*
X208963Y219330D01*
X208930Y219215D01*
X208893Y219101D01*
X208853Y218989D01*
X208808Y218878D01*
X208760Y218769D01*
X208709Y218661D01*
X208654Y218555D01*
X208595Y218451D01*
X208533Y218349D01*
X208468Y218249D01*
X208399Y218151D01*
X208327Y218055D01*
X208252Y217962D01*
X208175Y217872D01*
X208094Y217784D01*
X208010Y217699D01*
X207923Y217617D01*
X207834Y217537D01*
X207742Y217461D01*
X207648Y217387D01*
X207551Y217317D01*
X207453Y217250D01*
X207352Y217186D01*
X207248Y217126D01*
X207143Y217069D01*
X207036Y217016D01*
X206928Y216966D01*
X206818Y216920D01*
X206706Y216878D01*
X206593Y216839D01*
X206479Y216804D01*
X206364Y216773D01*
X206247Y216745D01*
X206130Y216722D01*
X206013Y216702D01*
X205894Y216686D01*
X205775Y216674D01*
X205656Y216666D01*
X205537Y216662D01*
X205417Y216662D01*
X205298Y216666D01*
X205179Y216674D01*
X205060Y216686D01*
X204941Y216702D01*
X204824Y216722D01*
X204707Y216745D01*
X204590Y216773D01*
X204475Y216804D01*
X204361Y216839D01*
X204248Y216878D01*
X204136Y216920D01*
X204026Y216966D01*
X203918Y217016D01*
X203811Y217069D01*
X203706Y217126D01*
X203602Y217186D01*
X203501Y217250D01*
X203403Y217317D01*
X203306Y217387D01*
X203212Y217461D01*
X203120Y217537D01*
X203031Y217617D01*
X202944Y217699D01*
X202860Y217784D01*
X202779Y217872D01*
X202702Y217962D01*
X202627Y218055D01*
X202555Y218151D01*
X202486Y218249D01*
X202421Y218349D01*
X202359Y218451D01*
X202300Y218555D01*
X202245Y218661D01*
X202194Y218769D01*
X202146Y218878D01*
X202101Y218989D01*
X202061Y219101D01*
X202024Y219215D01*
X201991Y219330D01*
X201961Y219445D01*
X201936Y219562D01*
X201914Y219679D01*
X201897Y219798D01*
X201883Y219916D01*
X201873Y220035D01*
X201867Y220155D01*
X201865Y220274D01*
X216006Y216662D02*
X216006Y232918D01*
X216006Y216662D02*
X220522Y216662D01*
X220626Y216664D01*
X220729Y216670D01*
X220833Y216680D01*
X220936Y216694D01*
X221038Y216712D01*
X221139Y216733D01*
X221240Y216759D01*
X221339Y216788D01*
X221438Y216821D01*
X221535Y216858D01*
X221630Y216899D01*
X221724Y216943D01*
X221816Y216991D01*
X221906Y217042D01*
X221995Y217097D01*
X222081Y217155D01*
X222164Y217217D01*
X222246Y217281D01*
X222324Y217349D01*
X222400Y217419D01*
X222474Y217492D01*
X222544Y217569D01*
X222612Y217647D01*
X222676Y217729D01*
X222738Y217812D01*
X222796Y217898D01*
X222851Y217987D01*
X222902Y218077D01*
X222950Y218169D01*
X222994Y218263D01*
X223035Y218358D01*
X223072Y218455D01*
X223105Y218554D01*
X223134Y218653D01*
X223160Y218754D01*
X223181Y218855D01*
X223199Y218957D01*
X223213Y219060D01*
X223223Y219164D01*
X223229Y219267D01*
X223231Y219371D01*
X223231Y224790D01*
X223229Y224891D01*
X223223Y224992D01*
X223214Y225093D01*
X223201Y225194D01*
X223184Y225294D01*
X223163Y225393D01*
X223139Y225491D01*
X223111Y225588D01*
X223079Y225685D01*
X223044Y225780D01*
X223005Y225873D01*
X222963Y225965D01*
X222917Y226056D01*
X222868Y226145D01*
X222816Y226231D01*
X222760Y226316D01*
X222702Y226399D01*
X222640Y226479D01*
X222575Y226557D01*
X222508Y226633D01*
X222438Y226706D01*
X222365Y226776D01*
X222289Y226843D01*
X222211Y226908D01*
X222131Y226970D01*
X222048Y227028D01*
X221963Y227084D01*
X221877Y227136D01*
X221788Y227185D01*
X221697Y227231D01*
X221605Y227273D01*
X221512Y227312D01*
X221417Y227347D01*
X221320Y227379D01*
X221223Y227407D01*
X221125Y227431D01*
X221026Y227452D01*
X220926Y227469D01*
X220825Y227482D01*
X220724Y227491D01*
X220623Y227497D01*
X220522Y227499D01*
X216006Y227499D01*
X229480Y223887D02*
X229480Y220274D01*
X229480Y223887D02*
X229482Y224006D01*
X229488Y224126D01*
X229498Y224245D01*
X229512Y224363D01*
X229529Y224482D01*
X229551Y224599D01*
X229576Y224716D01*
X229606Y224831D01*
X229639Y224946D01*
X229676Y225060D01*
X229716Y225172D01*
X229761Y225283D01*
X229809Y225392D01*
X229860Y225500D01*
X229915Y225606D01*
X229974Y225710D01*
X230036Y225812D01*
X230101Y225912D01*
X230170Y226010D01*
X230242Y226106D01*
X230317Y226199D01*
X230394Y226289D01*
X230475Y226377D01*
X230559Y226462D01*
X230646Y226544D01*
X230735Y226624D01*
X230827Y226700D01*
X230921Y226774D01*
X231018Y226844D01*
X231116Y226911D01*
X231217Y226975D01*
X231321Y227035D01*
X231426Y227092D01*
X231533Y227145D01*
X231641Y227195D01*
X231751Y227241D01*
X231863Y227283D01*
X231976Y227322D01*
X232090Y227357D01*
X232205Y227388D01*
X232322Y227416D01*
X232439Y227439D01*
X232556Y227459D01*
X232675Y227475D01*
X232794Y227487D01*
X232913Y227495D01*
X233032Y227499D01*
X233152Y227499D01*
X233271Y227495D01*
X233390Y227487D01*
X233509Y227475D01*
X233628Y227459D01*
X233745Y227439D01*
X233862Y227416D01*
X233979Y227388D01*
X234094Y227357D01*
X234208Y227322D01*
X234321Y227283D01*
X234433Y227241D01*
X234543Y227195D01*
X234651Y227145D01*
X234758Y227092D01*
X234863Y227035D01*
X234967Y226975D01*
X235068Y226911D01*
X235166Y226844D01*
X235263Y226774D01*
X235357Y226700D01*
X235449Y226624D01*
X235538Y226544D01*
X235625Y226462D01*
X235709Y226377D01*
X235790Y226289D01*
X235867Y226199D01*
X235942Y226106D01*
X236014Y226010D01*
X236083Y225912D01*
X236148Y225812D01*
X236210Y225710D01*
X236269Y225606D01*
X236324Y225500D01*
X236375Y225392D01*
X236423Y225283D01*
X236468Y225172D01*
X236508Y225060D01*
X236545Y224946D01*
X236578Y224831D01*
X236608Y224716D01*
X236633Y224599D01*
X236655Y224482D01*
X236672Y224363D01*
X236686Y224245D01*
X236696Y224126D01*
X236702Y224006D01*
X236704Y223887D01*
X236705Y223887D02*
X236705Y220274D01*
X236704Y220274D02*
X236702Y220155D01*
X236696Y220035D01*
X236686Y219916D01*
X236672Y219798D01*
X236655Y219679D01*
X236633Y219562D01*
X236608Y219445D01*
X236578Y219330D01*
X236545Y219215D01*
X236508Y219101D01*
X236468Y218989D01*
X236423Y218878D01*
X236375Y218769D01*
X236324Y218661D01*
X236269Y218555D01*
X236210Y218451D01*
X236148Y218349D01*
X236083Y218249D01*
X236014Y218151D01*
X235942Y218055D01*
X235867Y217962D01*
X235790Y217872D01*
X235709Y217784D01*
X235625Y217699D01*
X235538Y217617D01*
X235449Y217537D01*
X235357Y217461D01*
X235263Y217387D01*
X235166Y217317D01*
X235068Y217250D01*
X234967Y217186D01*
X234863Y217126D01*
X234758Y217069D01*
X234651Y217016D01*
X234543Y216966D01*
X234433Y216920D01*
X234321Y216878D01*
X234208Y216839D01*
X234094Y216804D01*
X233979Y216773D01*
X233862Y216745D01*
X233745Y216722D01*
X233628Y216702D01*
X233509Y216686D01*
X233390Y216674D01*
X233271Y216666D01*
X233152Y216662D01*
X233032Y216662D01*
X232913Y216666D01*
X232794Y216674D01*
X232675Y216686D01*
X232556Y216702D01*
X232439Y216722D01*
X232322Y216745D01*
X232205Y216773D01*
X232090Y216804D01*
X231976Y216839D01*
X231863Y216878D01*
X231751Y216920D01*
X231641Y216966D01*
X231533Y217016D01*
X231426Y217069D01*
X231321Y217126D01*
X231217Y217186D01*
X231116Y217250D01*
X231018Y217317D01*
X230921Y217387D01*
X230827Y217461D01*
X230735Y217537D01*
X230646Y217617D01*
X230559Y217699D01*
X230475Y217784D01*
X230394Y217872D01*
X230317Y217962D01*
X230242Y218055D01*
X230170Y218151D01*
X230101Y218249D01*
X230036Y218349D01*
X229974Y218451D01*
X229915Y218555D01*
X229860Y218661D01*
X229809Y218769D01*
X229761Y218878D01*
X229716Y218989D01*
X229676Y219101D01*
X229639Y219215D01*
X229606Y219330D01*
X229576Y219445D01*
X229551Y219562D01*
X229529Y219679D01*
X229512Y219798D01*
X229498Y219916D01*
X229488Y220035D01*
X229482Y220155D01*
X229480Y220274D01*
X241730Y227499D02*
X247148Y227499D01*
X243536Y232918D02*
X243536Y219371D01*
X243538Y219270D01*
X243544Y219169D01*
X243553Y219068D01*
X243566Y218967D01*
X243583Y218867D01*
X243604Y218768D01*
X243628Y218670D01*
X243656Y218573D01*
X243688Y218476D01*
X243723Y218381D01*
X243762Y218288D01*
X243804Y218196D01*
X243850Y218105D01*
X243899Y218017D01*
X243951Y217930D01*
X244007Y217845D01*
X244065Y217762D01*
X244127Y217682D01*
X244192Y217604D01*
X244259Y217528D01*
X244329Y217455D01*
X244402Y217385D01*
X244478Y217318D01*
X244556Y217253D01*
X244636Y217191D01*
X244719Y217133D01*
X244804Y217077D01*
X244891Y217025D01*
X244979Y216976D01*
X245070Y216930D01*
X245162Y216888D01*
X245255Y216849D01*
X245350Y216814D01*
X245447Y216782D01*
X245544Y216754D01*
X245642Y216730D01*
X245741Y216709D01*
X245841Y216692D01*
X245942Y216679D01*
X246043Y216670D01*
X246144Y216664D01*
X246245Y216662D01*
X247148Y216662D01*
D11*
X120650Y317500D02*
X107950Y317500D01*
X158750Y317500D02*
X171450Y317500D01*
X165100Y311150D02*
X165100Y323850D01*
D10*
X182880Y317500D02*
X190500Y309880D01*
X190500Y274320D01*
X182880Y266700D01*
X96520Y266700D01*
X88900Y274320D01*
X88900Y309880D01*
X96520Y317500D01*
D12*
X131657Y316907D02*
X135213Y316907D01*
X131657Y316907D02*
X131562Y316909D01*
X131466Y316915D01*
X131371Y316924D01*
X131277Y316938D01*
X131183Y316955D01*
X131090Y316976D01*
X130997Y317001D01*
X130906Y317029D01*
X130816Y317061D01*
X130728Y317097D01*
X130641Y317136D01*
X130555Y317179D01*
X130471Y317225D01*
X130390Y317274D01*
X130310Y317327D01*
X130233Y317383D01*
X130157Y317441D01*
X130085Y317503D01*
X130015Y317568D01*
X129947Y317636D01*
X129882Y317706D01*
X129820Y317778D01*
X129762Y317854D01*
X129706Y317931D01*
X129653Y318011D01*
X129604Y318093D01*
X129558Y318176D01*
X129515Y318262D01*
X129476Y318349D01*
X129440Y318437D01*
X129408Y318527D01*
X129380Y318618D01*
X129355Y318711D01*
X129334Y318804D01*
X129317Y318898D01*
X129303Y318992D01*
X129294Y319087D01*
X129288Y319183D01*
X129286Y319278D01*
X129286Y319871D01*
X129288Y319978D01*
X129294Y320085D01*
X129303Y320191D01*
X129317Y320297D01*
X129334Y320403D01*
X129355Y320508D01*
X129380Y320612D01*
X129409Y320715D01*
X129441Y320817D01*
X129477Y320918D01*
X129517Y321017D01*
X129560Y321115D01*
X129607Y321211D01*
X129657Y321306D01*
X129710Y321399D01*
X129767Y321489D01*
X129827Y321578D01*
X129890Y321664D01*
X129956Y321748D01*
X130026Y321830D01*
X130098Y321909D01*
X130173Y321985D01*
X130251Y322059D01*
X130331Y322129D01*
X130414Y322197D01*
X130499Y322262D01*
X130586Y322323D01*
X130676Y322382D01*
X130768Y322437D01*
X130861Y322489D01*
X130957Y322537D01*
X131054Y322582D01*
X131152Y322624D01*
X131252Y322661D01*
X131354Y322696D01*
X131456Y322726D01*
X131560Y322753D01*
X131664Y322776D01*
X131770Y322795D01*
X131876Y322810D01*
X131982Y322822D01*
X132089Y322830D01*
X132196Y322834D01*
X132302Y322834D01*
X132409Y322830D01*
X132516Y322822D01*
X132622Y322810D01*
X132728Y322795D01*
X132834Y322776D01*
X132938Y322753D01*
X133042Y322726D01*
X133144Y322696D01*
X133246Y322661D01*
X133346Y322624D01*
X133444Y322582D01*
X133541Y322537D01*
X133637Y322489D01*
X133731Y322437D01*
X133822Y322382D01*
X133912Y322323D01*
X133999Y322262D01*
X134084Y322197D01*
X134167Y322129D01*
X134247Y322059D01*
X134325Y321985D01*
X134400Y321909D01*
X134472Y321830D01*
X134542Y321748D01*
X134608Y321664D01*
X134671Y321578D01*
X134731Y321489D01*
X134788Y321399D01*
X134841Y321306D01*
X134891Y321211D01*
X134938Y321115D01*
X134981Y321017D01*
X135021Y320918D01*
X135057Y320817D01*
X135089Y320715D01*
X135118Y320612D01*
X135143Y320508D01*
X135164Y320403D01*
X135181Y320297D01*
X135195Y320191D01*
X135204Y320085D01*
X135210Y319978D01*
X135212Y319871D01*
X135213Y319871D02*
X135213Y316907D01*
X135212Y316907D02*
X135210Y316772D01*
X135204Y316636D01*
X135195Y316501D01*
X135181Y316367D01*
X135164Y316232D01*
X135143Y316099D01*
X135118Y315965D01*
X135089Y315833D01*
X135056Y315702D01*
X135020Y315571D01*
X134980Y315442D01*
X134936Y315314D01*
X134889Y315187D01*
X134838Y315061D01*
X134784Y314938D01*
X134726Y314815D01*
X134664Y314695D01*
X134599Y314576D01*
X134531Y314459D01*
X134459Y314344D01*
X134385Y314231D01*
X134307Y314120D01*
X134225Y314012D01*
X134141Y313906D01*
X134054Y313802D01*
X133964Y313701D01*
X133871Y313603D01*
X133775Y313507D01*
X133677Y313414D01*
X133576Y313324D01*
X133472Y313237D01*
X133366Y313153D01*
X133258Y313071D01*
X133147Y312993D01*
X133034Y312919D01*
X132919Y312847D01*
X132802Y312779D01*
X132683Y312714D01*
X132563Y312652D01*
X132440Y312594D01*
X132317Y312540D01*
X132191Y312489D01*
X132064Y312442D01*
X131936Y312398D01*
X131807Y312358D01*
X131676Y312322D01*
X131545Y312289D01*
X131413Y312260D01*
X131279Y312235D01*
X131146Y312214D01*
X131011Y312197D01*
X130877Y312183D01*
X130742Y312174D01*
X130606Y312168D01*
X130471Y312166D01*
X143679Y312166D02*
X140123Y322834D01*
X147235Y322834D02*
X143679Y312166D01*
D13*
X118110Y337185D02*
X114935Y337185D01*
X118110Y337185D02*
X118221Y337183D01*
X118331Y337177D01*
X118442Y337168D01*
X118552Y337154D01*
X118661Y337137D01*
X118770Y337116D01*
X118878Y337091D01*
X118985Y337062D01*
X119091Y337030D01*
X119196Y336994D01*
X119299Y336954D01*
X119401Y336911D01*
X119502Y336864D01*
X119601Y336813D01*
X119698Y336760D01*
X119792Y336703D01*
X119885Y336642D01*
X119976Y336579D01*
X120065Y336512D01*
X120151Y336442D01*
X120234Y336369D01*
X120316Y336294D01*
X120394Y336216D01*
X120469Y336134D01*
X120542Y336051D01*
X120612Y335965D01*
X120679Y335876D01*
X120742Y335785D01*
X120803Y335692D01*
X120860Y335597D01*
X120913Y335501D01*
X120964Y335402D01*
X121011Y335301D01*
X121054Y335199D01*
X121094Y335096D01*
X121130Y334991D01*
X121162Y334885D01*
X121191Y334778D01*
X121216Y334670D01*
X121237Y334561D01*
X121254Y334452D01*
X121268Y334342D01*
X121277Y334231D01*
X121283Y334121D01*
X121285Y334010D01*
X121283Y333899D01*
X121277Y333789D01*
X121268Y333678D01*
X121254Y333568D01*
X121237Y333459D01*
X121216Y333350D01*
X121191Y333242D01*
X121162Y333135D01*
X121130Y333029D01*
X121094Y332924D01*
X121054Y332821D01*
X121011Y332719D01*
X120964Y332618D01*
X120913Y332519D01*
X120860Y332422D01*
X120803Y332328D01*
X120742Y332235D01*
X120679Y332144D01*
X120612Y332055D01*
X120542Y331969D01*
X120469Y331886D01*
X120394Y331804D01*
X120316Y331726D01*
X120234Y331651D01*
X120151Y331578D01*
X120065Y331508D01*
X119976Y331441D01*
X119885Y331378D01*
X119792Y331317D01*
X119697Y331260D01*
X119601Y331207D01*
X119502Y331156D01*
X119401Y331109D01*
X119299Y331066D01*
X119196Y331026D01*
X119091Y330990D01*
X118985Y330958D01*
X118878Y330929D01*
X118770Y330904D01*
X118661Y330883D01*
X118552Y330866D01*
X118442Y330852D01*
X118331Y330843D01*
X118221Y330837D01*
X118110Y330835D01*
X114935Y330835D01*
X114935Y342265D01*
X118110Y342265D01*
X118210Y342263D01*
X118309Y342257D01*
X118409Y342247D01*
X118507Y342234D01*
X118606Y342216D01*
X118703Y342195D01*
X118799Y342170D01*
X118895Y342141D01*
X118989Y342108D01*
X119082Y342072D01*
X119173Y342032D01*
X119263Y341988D01*
X119351Y341941D01*
X119437Y341891D01*
X119521Y341837D01*
X119603Y341780D01*
X119682Y341720D01*
X119760Y341656D01*
X119834Y341590D01*
X119906Y341521D01*
X119975Y341449D01*
X120041Y341375D01*
X120105Y341297D01*
X120165Y341218D01*
X120222Y341136D01*
X120276Y341052D01*
X120326Y340966D01*
X120373Y340878D01*
X120417Y340788D01*
X120457Y340697D01*
X120493Y340604D01*
X120526Y340510D01*
X120555Y340414D01*
X120580Y340318D01*
X120601Y340221D01*
X120619Y340122D01*
X120632Y340024D01*
X120642Y339924D01*
X120648Y339825D01*
X120650Y339725D01*
X120648Y339625D01*
X120642Y339526D01*
X120632Y339426D01*
X120619Y339328D01*
X120601Y339229D01*
X120580Y339132D01*
X120555Y339036D01*
X120526Y338940D01*
X120493Y338846D01*
X120457Y338753D01*
X120417Y338662D01*
X120373Y338572D01*
X120326Y338484D01*
X120276Y338398D01*
X120222Y338314D01*
X120165Y338232D01*
X120105Y338153D01*
X120041Y338075D01*
X119975Y338001D01*
X119906Y337929D01*
X119834Y337860D01*
X119760Y337794D01*
X119682Y337730D01*
X119603Y337670D01*
X119521Y337613D01*
X119437Y337559D01*
X119351Y337509D01*
X119263Y337462D01*
X119173Y337418D01*
X119082Y337378D01*
X118989Y337342D01*
X118895Y337309D01*
X118799Y337280D01*
X118703Y337255D01*
X118606Y337234D01*
X118507Y337216D01*
X118409Y337203D01*
X118309Y337193D01*
X118210Y337187D01*
X118110Y337185D01*
X125159Y330835D02*
X128969Y342265D01*
X132779Y330835D01*
X131826Y333693D02*
X126111Y333693D01*
X139637Y330835D02*
X139637Y342265D01*
X136462Y342265D02*
X142812Y342265D01*
X149543Y342265D02*
X149543Y330835D01*
X146368Y342265D02*
X152718Y342265D01*
D14*
X799592Y191836D02*
X799592Y189239D01*
X799590Y189140D01*
X799584Y189040D01*
X799575Y188941D01*
X799562Y188843D01*
X799545Y188745D01*
X799524Y188647D01*
X799499Y188551D01*
X799471Y188456D01*
X799439Y188362D01*
X799404Y188269D01*
X799365Y188177D01*
X799322Y188087D01*
X799277Y187999D01*
X799227Y187912D01*
X799175Y187828D01*
X799119Y187745D01*
X799061Y187665D01*
X798999Y187587D01*
X798934Y187512D01*
X798866Y187439D01*
X798796Y187369D01*
X798723Y187301D01*
X798648Y187236D01*
X798570Y187174D01*
X798490Y187116D01*
X798407Y187060D01*
X798323Y187008D01*
X798236Y186958D01*
X798148Y186913D01*
X798058Y186870D01*
X797966Y186831D01*
X797873Y186796D01*
X797779Y186764D01*
X797684Y186736D01*
X797588Y186711D01*
X797490Y186690D01*
X797392Y186673D01*
X797294Y186660D01*
X797195Y186651D01*
X797095Y186645D01*
X796996Y186643D01*
X790504Y186643D01*
X790504Y186642D02*
X790405Y186644D01*
X790305Y186650D01*
X790206Y186659D01*
X790108Y186672D01*
X790010Y186690D01*
X789912Y186710D01*
X789816Y186735D01*
X789720Y186763D01*
X789626Y186795D01*
X789533Y186830D01*
X789442Y186869D01*
X789352Y186912D01*
X789263Y186957D01*
X789177Y187007D01*
X789092Y187059D01*
X789010Y187115D01*
X788930Y187174D01*
X788852Y187235D01*
X788776Y187300D01*
X788703Y187368D01*
X788633Y187438D01*
X788565Y187511D01*
X788500Y187587D01*
X788439Y187665D01*
X788380Y187745D01*
X788324Y187827D01*
X788272Y187912D01*
X788223Y187998D01*
X788177Y188087D01*
X788134Y188177D01*
X788095Y188268D01*
X788060Y188361D01*
X788028Y188455D01*
X788000Y188551D01*
X787975Y188647D01*
X787955Y188745D01*
X787937Y188843D01*
X787924Y188941D01*
X787915Y189040D01*
X787909Y189139D01*
X787907Y189239D01*
X787908Y189239D02*
X787908Y191836D01*
X790504Y196201D02*
X787908Y199446D01*
X799592Y199446D01*
X799592Y196201D02*
X799592Y202692D01*
X841304Y178308D02*
X843901Y178308D01*
X841304Y178308D02*
X841205Y178310D01*
X841105Y178316D01*
X841006Y178325D01*
X840908Y178338D01*
X840810Y178355D01*
X840712Y178376D01*
X840616Y178401D01*
X840521Y178429D01*
X840427Y178461D01*
X840334Y178496D01*
X840242Y178535D01*
X840152Y178578D01*
X840064Y178623D01*
X839977Y178673D01*
X839893Y178725D01*
X839810Y178781D01*
X839730Y178839D01*
X839652Y178901D01*
X839577Y178966D01*
X839504Y179034D01*
X839434Y179104D01*
X839366Y179177D01*
X839301Y179252D01*
X839239Y179330D01*
X839181Y179410D01*
X839125Y179493D01*
X839073Y179577D01*
X839023Y179664D01*
X838978Y179752D01*
X838935Y179842D01*
X838896Y179934D01*
X838861Y180027D01*
X838829Y180121D01*
X838801Y180216D01*
X838776Y180312D01*
X838755Y180410D01*
X838738Y180508D01*
X838725Y180606D01*
X838716Y180705D01*
X838710Y180805D01*
X838708Y180904D01*
X838708Y187396D01*
X838710Y187495D01*
X838716Y187595D01*
X838725Y187694D01*
X838738Y187792D01*
X838755Y187890D01*
X838776Y187988D01*
X838801Y188084D01*
X838829Y188179D01*
X838861Y188273D01*
X838896Y188366D01*
X838935Y188458D01*
X838978Y188548D01*
X839023Y188636D01*
X839073Y188723D01*
X839125Y188807D01*
X839181Y188890D01*
X839239Y188970D01*
X839301Y189048D01*
X839366Y189123D01*
X839434Y189196D01*
X839504Y189266D01*
X839577Y189334D01*
X839652Y189399D01*
X839730Y189461D01*
X839810Y189519D01*
X839893Y189575D01*
X839977Y189627D01*
X840064Y189677D01*
X840152Y189722D01*
X840242Y189765D01*
X840334Y189804D01*
X840426Y189839D01*
X840521Y189871D01*
X840616Y189899D01*
X840712Y189924D01*
X840810Y189945D01*
X840908Y189962D01*
X841006Y189975D01*
X841105Y189984D01*
X841205Y189990D01*
X841304Y189992D01*
X843901Y189992D01*
X851836Y189992D02*
X851943Y189990D01*
X852049Y189984D01*
X852155Y189974D01*
X852261Y189961D01*
X852367Y189943D01*
X852471Y189922D01*
X852575Y189897D01*
X852678Y189868D01*
X852779Y189836D01*
X852879Y189799D01*
X852978Y189759D01*
X853076Y189716D01*
X853172Y189669D01*
X853266Y189618D01*
X853358Y189564D01*
X853448Y189507D01*
X853536Y189447D01*
X853621Y189383D01*
X853704Y189316D01*
X853785Y189246D01*
X853863Y189174D01*
X853939Y189098D01*
X854011Y189020D01*
X854081Y188939D01*
X854148Y188856D01*
X854212Y188771D01*
X854272Y188683D01*
X854329Y188593D01*
X854383Y188501D01*
X854434Y188407D01*
X854481Y188311D01*
X854524Y188213D01*
X854564Y188114D01*
X854601Y188014D01*
X854633Y187913D01*
X854662Y187810D01*
X854687Y187706D01*
X854708Y187602D01*
X854726Y187496D01*
X854739Y187390D01*
X854749Y187284D01*
X854755Y187178D01*
X854757Y187071D01*
X851836Y189992D02*
X851715Y189990D01*
X851594Y189984D01*
X851474Y189974D01*
X851353Y189961D01*
X851234Y189943D01*
X851114Y189922D01*
X850996Y189897D01*
X850879Y189868D01*
X850762Y189835D01*
X850647Y189799D01*
X850533Y189758D01*
X850420Y189715D01*
X850308Y189667D01*
X850199Y189616D01*
X850091Y189561D01*
X849984Y189503D01*
X849880Y189442D01*
X849778Y189377D01*
X849678Y189309D01*
X849580Y189238D01*
X849484Y189164D01*
X849391Y189087D01*
X849301Y189006D01*
X849213Y188923D01*
X849128Y188837D01*
X849045Y188748D01*
X848966Y188657D01*
X848889Y188563D01*
X848816Y188467D01*
X848746Y188369D01*
X848679Y188268D01*
X848615Y188165D01*
X848555Y188060D01*
X848498Y187953D01*
X848444Y187845D01*
X848394Y187735D01*
X848348Y187623D01*
X848305Y187510D01*
X848266Y187395D01*
X853784Y184799D02*
X853863Y184876D01*
X853939Y184957D01*
X854012Y185040D01*
X854082Y185125D01*
X854149Y185213D01*
X854213Y185303D01*
X854273Y185395D01*
X854330Y185490D01*
X854384Y185586D01*
X854435Y185684D01*
X854482Y185784D01*
X854526Y185886D01*
X854566Y185989D01*
X854602Y186093D01*
X854634Y186199D01*
X854663Y186305D01*
X854688Y186413D01*
X854710Y186521D01*
X854727Y186631D01*
X854741Y186740D01*
X854750Y186850D01*
X854756Y186961D01*
X854758Y187071D01*
X853784Y184799D02*
X848266Y178308D01*
X854757Y178308D01*
D11*
X349250Y222250D02*
X336550Y222250D01*
X342900Y228600D02*
X342900Y215900D01*
D10*
X310896Y254000D02*
X310917Y255720D01*
X310980Y257440D01*
X311086Y259157D01*
X311234Y260871D01*
X311423Y262581D01*
X311655Y264286D01*
X311928Y265985D01*
X312243Y267677D01*
X312599Y269360D01*
X312997Y271034D01*
X313435Y272698D01*
X313915Y274350D01*
X314434Y275990D01*
X314994Y277617D01*
X315593Y279230D01*
X316232Y280828D01*
X316910Y282409D01*
X317627Y283973D01*
X318381Y285520D01*
X319174Y287047D01*
X320003Y288554D01*
X320870Y290041D01*
X321772Y291505D01*
X322711Y292948D01*
X323684Y294366D01*
X324692Y295761D01*
X325734Y297130D01*
X326809Y298474D01*
X327917Y299790D01*
X329056Y301079D01*
X330227Y302340D01*
X331429Y303571D01*
X332660Y304773D01*
X333921Y305944D01*
X335210Y307083D01*
X336526Y308191D01*
X337870Y309266D01*
X339239Y310308D01*
X340634Y311316D01*
X342052Y312289D01*
X343495Y313228D01*
X344959Y314130D01*
X346446Y314997D01*
X347953Y315826D01*
X349480Y316619D01*
X351027Y317373D01*
X352591Y318090D01*
X354172Y318768D01*
X355770Y319407D01*
X357383Y320006D01*
X359010Y320566D01*
X360650Y321085D01*
X362302Y321565D01*
X363966Y322003D01*
X365640Y322401D01*
X367323Y322757D01*
X369015Y323072D01*
X370714Y323345D01*
X372419Y323577D01*
X374129Y323766D01*
X375843Y323914D01*
X377560Y324020D01*
X379280Y324083D01*
X381000Y324104D01*
X382720Y324083D01*
X384440Y324020D01*
X386157Y323914D01*
X387871Y323766D01*
X389581Y323577D01*
X391286Y323345D01*
X392985Y323072D01*
X394677Y322757D01*
X396360Y322401D01*
X398034Y322003D01*
X399698Y321565D01*
X401350Y321085D01*
X402990Y320566D01*
X404617Y320006D01*
X406230Y319407D01*
X407828Y318768D01*
X409409Y318090D01*
X410973Y317373D01*
X412520Y316619D01*
X414047Y315826D01*
X415554Y314997D01*
X417041Y314130D01*
X418505Y313228D01*
X419948Y312289D01*
X421366Y311316D01*
X422761Y310308D01*
X424130Y309266D01*
X425474Y308191D01*
X426790Y307083D01*
X428079Y305944D01*
X429340Y304773D01*
X430571Y303571D01*
X431773Y302340D01*
X432944Y301079D01*
X434083Y299790D01*
X435191Y298474D01*
X436266Y297130D01*
X437308Y295761D01*
X438316Y294366D01*
X439289Y292948D01*
X440228Y291505D01*
X441130Y290041D01*
X441997Y288554D01*
X442826Y287047D01*
X443619Y285520D01*
X444373Y283973D01*
X445090Y282409D01*
X445768Y280828D01*
X446407Y279230D01*
X447006Y277617D01*
X447566Y275990D01*
X448085Y274350D01*
X448565Y272698D01*
X449003Y271034D01*
X449401Y269360D01*
X449757Y267677D01*
X450072Y265985D01*
X450345Y264286D01*
X450577Y262581D01*
X450766Y260871D01*
X450914Y259157D01*
X451020Y257440D01*
X451083Y255720D01*
X451104Y254000D01*
X451083Y252280D01*
X451020Y250560D01*
X450914Y248843D01*
X450766Y247129D01*
X450577Y245419D01*
X450345Y243714D01*
X450072Y242015D01*
X449757Y240323D01*
X449401Y238640D01*
X449003Y236966D01*
X448565Y235302D01*
X448085Y233650D01*
X447566Y232010D01*
X447006Y230383D01*
X446407Y228770D01*
X445768Y227172D01*
X445090Y225591D01*
X444373Y224027D01*
X443619Y222480D01*
X442826Y220953D01*
X441997Y219446D01*
X441130Y217959D01*
X440228Y216495D01*
X439289Y215052D01*
X438316Y213634D01*
X437308Y212239D01*
X436266Y210870D01*
X435191Y209526D01*
X434083Y208210D01*
X432944Y206921D01*
X431773Y205660D01*
X430571Y204429D01*
X429340Y203227D01*
X428079Y202056D01*
X426790Y200917D01*
X425474Y199809D01*
X424130Y198734D01*
X422761Y197692D01*
X421366Y196684D01*
X419948Y195711D01*
X418505Y194772D01*
X417041Y193870D01*
X415554Y193003D01*
X414047Y192174D01*
X412520Y191381D01*
X410973Y190627D01*
X409409Y189910D01*
X407828Y189232D01*
X406230Y188593D01*
X404617Y187994D01*
X402990Y187434D01*
X401350Y186915D01*
X399698Y186435D01*
X398034Y185997D01*
X396360Y185599D01*
X394677Y185243D01*
X392985Y184928D01*
X391286Y184655D01*
X389581Y184423D01*
X387871Y184234D01*
X386157Y184086D01*
X384440Y183980D01*
X382720Y183917D01*
X381000Y183896D01*
X379280Y183917D01*
X377560Y183980D01*
X375843Y184086D01*
X374129Y184234D01*
X372419Y184423D01*
X370714Y184655D01*
X369015Y184928D01*
X367323Y185243D01*
X365640Y185599D01*
X363966Y185997D01*
X362302Y186435D01*
X360650Y186915D01*
X359010Y187434D01*
X357383Y187994D01*
X355770Y188593D01*
X354172Y189232D01*
X352591Y189910D01*
X351027Y190627D01*
X349480Y191381D01*
X347953Y192174D01*
X346446Y193003D01*
X344959Y193870D01*
X343495Y194772D01*
X342052Y195711D01*
X340634Y196684D01*
X339239Y197692D01*
X337870Y198734D01*
X336526Y199809D01*
X335210Y200917D01*
X333921Y202056D01*
X332660Y203227D01*
X331429Y204429D01*
X330227Y205660D01*
X329056Y206921D01*
X327917Y208210D01*
X326809Y209526D01*
X325734Y210870D01*
X324692Y212239D01*
X323684Y213634D01*
X322711Y215052D01*
X321772Y216495D01*
X320870Y217959D01*
X320003Y219446D01*
X319174Y220953D01*
X318381Y222480D01*
X317627Y224027D01*
X316910Y225591D01*
X316232Y227172D01*
X315593Y228770D01*
X314994Y230383D01*
X314434Y232010D01*
X313915Y233650D01*
X313435Y235302D01*
X312997Y236966D01*
X312599Y238640D01*
X312243Y240323D01*
X311928Y242015D01*
X311655Y243714D01*
X311423Y245419D01*
X311234Y247129D01*
X311086Y248843D01*
X310980Y250560D01*
X310917Y252280D01*
X310896Y254000D01*
X300990Y254000D02*
X301014Y255964D01*
X301086Y257926D01*
X301207Y259886D01*
X301375Y261842D01*
X301592Y263794D01*
X301856Y265740D01*
X302168Y267679D01*
X302527Y269609D01*
X302934Y271530D01*
X303388Y273441D01*
X303888Y275340D01*
X304435Y277226D01*
X305028Y279098D01*
X305667Y280955D01*
X306351Y282795D01*
X307080Y284619D01*
X307854Y286423D01*
X308672Y288209D01*
X309533Y289973D01*
X310437Y291716D01*
X311384Y293437D01*
X312373Y295133D01*
X313403Y296805D01*
X314474Y298451D01*
X315585Y300070D01*
X316735Y301662D01*
X317924Y303225D01*
X319151Y304758D01*
X320416Y306260D01*
X321717Y307731D01*
X323053Y309170D01*
X324424Y310576D01*
X325830Y311947D01*
X327269Y313283D01*
X328740Y314584D01*
X330242Y315849D01*
X331775Y317076D01*
X333338Y318265D01*
X334930Y319415D01*
X336549Y320526D01*
X338195Y321597D01*
X339867Y322627D01*
X341563Y323616D01*
X343284Y324563D01*
X345027Y325467D01*
X346791Y326328D01*
X348577Y327146D01*
X350381Y327920D01*
X352205Y328649D01*
X354045Y329333D01*
X355902Y329972D01*
X357774Y330565D01*
X359660Y331112D01*
X361559Y331612D01*
X363470Y332066D01*
X365391Y332473D01*
X367321Y332832D01*
X369260Y333144D01*
X371206Y333408D01*
X373158Y333625D01*
X375114Y333793D01*
X377074Y333914D01*
X379036Y333986D01*
X381000Y334010D01*
X382964Y333986D01*
X384926Y333914D01*
X386886Y333793D01*
X388842Y333625D01*
X390794Y333408D01*
X392740Y333144D01*
X394679Y332832D01*
X396609Y332473D01*
X398530Y332066D01*
X400441Y331612D01*
X402340Y331112D01*
X404226Y330565D01*
X406098Y329972D01*
X407955Y329333D01*
X409795Y328649D01*
X411619Y327920D01*
X413423Y327146D01*
X415209Y326328D01*
X416973Y325467D01*
X418716Y324563D01*
X420437Y323616D01*
X422133Y322627D01*
X423805Y321597D01*
X425451Y320526D01*
X427070Y319415D01*
X428662Y318265D01*
X430225Y317076D01*
X431758Y315849D01*
X433260Y314584D01*
X434731Y313283D01*
X436170Y311947D01*
X437576Y310576D01*
X438947Y309170D01*
X440283Y307731D01*
X441584Y306260D01*
X442849Y304758D01*
X444076Y303225D01*
X445265Y301662D01*
X446415Y300070D01*
X447526Y298451D01*
X448597Y296805D01*
X449627Y295133D01*
X450616Y293437D01*
X451563Y291716D01*
X452467Y289973D01*
X453328Y288209D01*
X454146Y286423D01*
X454920Y284619D01*
X455649Y282795D01*
X456333Y280955D01*
X456972Y279098D01*
X457565Y277226D01*
X458112Y275340D01*
X458612Y273441D01*
X459066Y271530D01*
X459473Y269609D01*
X459832Y267679D01*
X460144Y265740D01*
X460408Y263794D01*
X460625Y261842D01*
X460793Y259886D01*
X460914Y257926D01*
X460986Y255964D01*
X461010Y254000D01*
X460986Y252036D01*
X460914Y250074D01*
X460793Y248114D01*
X460625Y246158D01*
X460408Y244206D01*
X460144Y242260D01*
X459832Y240321D01*
X459473Y238391D01*
X459066Y236470D01*
X458612Y234559D01*
X458112Y232660D01*
X457565Y230774D01*
X456972Y228902D01*
X456333Y227045D01*
X455649Y225205D01*
X454920Y223381D01*
X454146Y221577D01*
X453328Y219791D01*
X452467Y218027D01*
X451563Y216284D01*
X450616Y214563D01*
X449627Y212867D01*
X448597Y211195D01*
X447526Y209549D01*
X446415Y207930D01*
X445265Y206338D01*
X444076Y204775D01*
X442849Y203242D01*
X441584Y201740D01*
X440283Y200269D01*
X438947Y198830D01*
X437576Y197424D01*
X436170Y196053D01*
X434731Y194717D01*
X433260Y193416D01*
X431758Y192151D01*
X430225Y190924D01*
X428662Y189735D01*
X427070Y188585D01*
X425451Y187474D01*
X423805Y186403D01*
X422133Y185373D01*
X420437Y184384D01*
X418716Y183437D01*
X416973Y182533D01*
X415209Y181672D01*
X413423Y180854D01*
X411619Y180080D01*
X409795Y179351D01*
X407955Y178667D01*
X406098Y178028D01*
X404226Y177435D01*
X402340Y176888D01*
X400441Y176388D01*
X398530Y175934D01*
X396609Y175527D01*
X394679Y175168D01*
X392740Y174856D01*
X390794Y174592D01*
X388842Y174375D01*
X386886Y174207D01*
X384926Y174086D01*
X382964Y174014D01*
X381000Y173990D01*
X379036Y174014D01*
X377074Y174086D01*
X375114Y174207D01*
X373158Y174375D01*
X371206Y174592D01*
X369260Y174856D01*
X367321Y175168D01*
X365391Y175527D01*
X363470Y175934D01*
X361559Y176388D01*
X359660Y176888D01*
X357774Y177435D01*
X355902Y178028D01*
X354045Y178667D01*
X352205Y179351D01*
X350381Y180080D01*
X348577Y180854D01*
X346791Y181672D01*
X345027Y182533D01*
X343284Y183437D01*
X341563Y184384D01*
X339867Y185373D01*
X338195Y186403D01*
X336549Y187474D01*
X334930Y188585D01*
X333338Y189735D01*
X331775Y190924D01*
X330242Y192151D01*
X328740Y193416D01*
X327269Y194717D01*
X325830Y196053D01*
X324424Y197424D01*
X323053Y198830D01*
X321717Y200269D01*
X320416Y201740D01*
X319151Y203242D01*
X317924Y204775D01*
X316735Y206338D01*
X315585Y207930D01*
X314474Y209549D01*
X313403Y211195D01*
X312373Y212867D01*
X311384Y214563D01*
X310437Y216284D01*
X309533Y218027D01*
X308672Y219791D01*
X307854Y221577D01*
X307080Y223381D01*
X306351Y225205D01*
X305667Y227045D01*
X305028Y228902D01*
X304435Y230774D01*
X303888Y232660D01*
X303388Y234559D01*
X302934Y236470D01*
X302527Y238391D01*
X302168Y240321D01*
X301856Y242260D01*
X301592Y244206D01*
X301375Y246158D01*
X301207Y248114D01*
X301086Y250074D01*
X301014Y252036D01*
X300990Y254000D01*
X368300Y254000D02*
X368304Y254312D01*
X368315Y254623D01*
X368334Y254934D01*
X368361Y255245D01*
X368396Y255555D01*
X368437Y255863D01*
X368487Y256171D01*
X368544Y256478D01*
X368609Y256783D01*
X368681Y257086D01*
X368760Y257387D01*
X368847Y257687D01*
X368941Y257984D01*
X369042Y258279D01*
X369151Y258571D01*
X369267Y258860D01*
X369390Y259147D01*
X369519Y259430D01*
X369656Y259710D01*
X369800Y259987D01*
X369950Y260260D01*
X370107Y260529D01*
X370270Y260794D01*
X370440Y261056D01*
X370617Y261313D01*
X370799Y261565D01*
X370988Y261813D01*
X371183Y262057D01*
X371383Y262295D01*
X371590Y262529D01*
X371802Y262757D01*
X372020Y262980D01*
X372243Y263198D01*
X372471Y263410D01*
X372705Y263617D01*
X372943Y263817D01*
X373187Y264012D01*
X373435Y264201D01*
X373687Y264383D01*
X373944Y264560D01*
X374206Y264730D01*
X374471Y264893D01*
X374740Y265050D01*
X375013Y265200D01*
X375290Y265344D01*
X375570Y265481D01*
X375853Y265610D01*
X376140Y265733D01*
X376429Y265849D01*
X376721Y265958D01*
X377016Y266059D01*
X377313Y266153D01*
X377613Y266240D01*
X377914Y266319D01*
X378217Y266391D01*
X378522Y266456D01*
X378829Y266513D01*
X379137Y266563D01*
X379445Y266604D01*
X379755Y266639D01*
X380066Y266666D01*
X380377Y266685D01*
X380688Y266696D01*
X381000Y266700D01*
X381312Y266696D01*
X381623Y266685D01*
X381934Y266666D01*
X382245Y266639D01*
X382555Y266604D01*
X382863Y266563D01*
X383171Y266513D01*
X383478Y266456D01*
X383783Y266391D01*
X384086Y266319D01*
X384387Y266240D01*
X384687Y266153D01*
X384984Y266059D01*
X385279Y265958D01*
X385571Y265849D01*
X385860Y265733D01*
X386147Y265610D01*
X386430Y265481D01*
X386710Y265344D01*
X386987Y265200D01*
X387260Y265050D01*
X387529Y264893D01*
X387794Y264730D01*
X388056Y264560D01*
X388313Y264383D01*
X388565Y264201D01*
X388813Y264012D01*
X389057Y263817D01*
X389295Y263617D01*
X389529Y263410D01*
X389757Y263198D01*
X389980Y262980D01*
X390198Y262757D01*
X390410Y262529D01*
X390617Y262295D01*
X390817Y262057D01*
X391012Y261813D01*
X391201Y261565D01*
X391383Y261313D01*
X391560Y261056D01*
X391730Y260794D01*
X391893Y260529D01*
X392050Y260260D01*
X392200Y259987D01*
X392344Y259710D01*
X392481Y259430D01*
X392610Y259147D01*
X392733Y258860D01*
X392849Y258571D01*
X392958Y258279D01*
X393059Y257984D01*
X393153Y257687D01*
X393240Y257387D01*
X393319Y257086D01*
X393391Y256783D01*
X393456Y256478D01*
X393513Y256171D01*
X393563Y255863D01*
X393604Y255555D01*
X393639Y255245D01*
X393666Y254934D01*
X393685Y254623D01*
X393696Y254312D01*
X393700Y254000D01*
X393696Y253688D01*
X393685Y253377D01*
X393666Y253066D01*
X393639Y252755D01*
X393604Y252445D01*
X393563Y252137D01*
X393513Y251829D01*
X393456Y251522D01*
X393391Y251217D01*
X393319Y250914D01*
X393240Y250613D01*
X393153Y250313D01*
X393059Y250016D01*
X392958Y249721D01*
X392849Y249429D01*
X392733Y249140D01*
X392610Y248853D01*
X392481Y248570D01*
X392344Y248290D01*
X392200Y248013D01*
X392050Y247740D01*
X391893Y247471D01*
X391730Y247206D01*
X391560Y246944D01*
X391383Y246687D01*
X391201Y246435D01*
X391012Y246187D01*
X390817Y245943D01*
X390617Y245705D01*
X390410Y245471D01*
X390198Y245243D01*
X389980Y245020D01*
X389757Y244802D01*
X389529Y244590D01*
X389295Y244383D01*
X389057Y244183D01*
X388813Y243988D01*
X388565Y243799D01*
X388313Y243617D01*
X388056Y243440D01*
X387794Y243270D01*
X387529Y243107D01*
X387260Y242950D01*
X386987Y242800D01*
X386710Y242656D01*
X386430Y242519D01*
X386147Y242390D01*
X385860Y242267D01*
X385571Y242151D01*
X385279Y242042D01*
X384984Y241941D01*
X384687Y241847D01*
X384387Y241760D01*
X384086Y241681D01*
X383783Y241609D01*
X383478Y241544D01*
X383171Y241487D01*
X382863Y241437D01*
X382555Y241396D01*
X382245Y241361D01*
X381934Y241334D01*
X381623Y241315D01*
X381312Y241304D01*
X381000Y241300D01*
X380688Y241304D01*
X380377Y241315D01*
X380066Y241334D01*
X379755Y241361D01*
X379445Y241396D01*
X379137Y241437D01*
X378829Y241487D01*
X378522Y241544D01*
X378217Y241609D01*
X377914Y241681D01*
X377613Y241760D01*
X377313Y241847D01*
X377016Y241941D01*
X376721Y242042D01*
X376429Y242151D01*
X376140Y242267D01*
X375853Y242390D01*
X375570Y242519D01*
X375290Y242656D01*
X375013Y242800D01*
X374740Y242950D01*
X374471Y243107D01*
X374206Y243270D01*
X373944Y243440D01*
X373687Y243617D01*
X373435Y243799D01*
X373187Y243988D01*
X372943Y244183D01*
X372705Y244383D01*
X372471Y244590D01*
X372243Y244802D01*
X372020Y245020D01*
X371802Y245243D01*
X371590Y245471D01*
X371383Y245705D01*
X371183Y245943D01*
X370988Y246187D01*
X370799Y246435D01*
X370617Y246687D01*
X370440Y246944D01*
X370270Y247206D01*
X370107Y247471D01*
X369950Y247740D01*
X369800Y248013D01*
X369656Y248290D01*
X369519Y248570D01*
X369390Y248853D01*
X369267Y249140D01*
X369151Y249429D01*
X369042Y249721D01*
X368941Y250016D01*
X368847Y250313D01*
X368760Y250613D01*
X368681Y250914D01*
X368609Y251217D01*
X368544Y251522D01*
X368487Y251829D01*
X368437Y252137D01*
X368396Y252445D01*
X368361Y252755D01*
X368334Y253066D01*
X368315Y253377D01*
X368304Y253688D01*
X368300Y254000D01*
X330200Y222250D02*
X330204Y222562D01*
X330215Y222873D01*
X330234Y223184D01*
X330261Y223495D01*
X330296Y223805D01*
X330337Y224113D01*
X330387Y224421D01*
X330444Y224728D01*
X330509Y225033D01*
X330581Y225336D01*
X330660Y225637D01*
X330747Y225937D01*
X330841Y226234D01*
X330942Y226529D01*
X331051Y226821D01*
X331167Y227110D01*
X331290Y227397D01*
X331419Y227680D01*
X331556Y227960D01*
X331700Y228237D01*
X331850Y228510D01*
X332007Y228779D01*
X332170Y229044D01*
X332340Y229306D01*
X332517Y229563D01*
X332699Y229815D01*
X332888Y230063D01*
X333083Y230307D01*
X333283Y230545D01*
X333490Y230779D01*
X333702Y231007D01*
X333920Y231230D01*
X334143Y231448D01*
X334371Y231660D01*
X334605Y231867D01*
X334843Y232067D01*
X335087Y232262D01*
X335335Y232451D01*
X335587Y232633D01*
X335844Y232810D01*
X336106Y232980D01*
X336371Y233143D01*
X336640Y233300D01*
X336913Y233450D01*
X337190Y233594D01*
X337470Y233731D01*
X337753Y233860D01*
X338040Y233983D01*
X338329Y234099D01*
X338621Y234208D01*
X338916Y234309D01*
X339213Y234403D01*
X339513Y234490D01*
X339814Y234569D01*
X340117Y234641D01*
X340422Y234706D01*
X340729Y234763D01*
X341037Y234813D01*
X341345Y234854D01*
X341655Y234889D01*
X341966Y234916D01*
X342277Y234935D01*
X342588Y234946D01*
X342900Y234950D01*
X343212Y234946D01*
X343523Y234935D01*
X343834Y234916D01*
X344145Y234889D01*
X344455Y234854D01*
X344763Y234813D01*
X345071Y234763D01*
X345378Y234706D01*
X345683Y234641D01*
X345986Y234569D01*
X346287Y234490D01*
X346587Y234403D01*
X346884Y234309D01*
X347179Y234208D01*
X347471Y234099D01*
X347760Y233983D01*
X348047Y233860D01*
X348330Y233731D01*
X348610Y233594D01*
X348887Y233450D01*
X349160Y233300D01*
X349429Y233143D01*
X349694Y232980D01*
X349956Y232810D01*
X350213Y232633D01*
X350465Y232451D01*
X350713Y232262D01*
X350957Y232067D01*
X351195Y231867D01*
X351429Y231660D01*
X351657Y231448D01*
X351880Y231230D01*
X352098Y231007D01*
X352310Y230779D01*
X352517Y230545D01*
X352717Y230307D01*
X352912Y230063D01*
X353101Y229815D01*
X353283Y229563D01*
X353460Y229306D01*
X353630Y229044D01*
X353793Y228779D01*
X353950Y228510D01*
X354100Y228237D01*
X354244Y227960D01*
X354381Y227680D01*
X354510Y227397D01*
X354633Y227110D01*
X354749Y226821D01*
X354858Y226529D01*
X354959Y226234D01*
X355053Y225937D01*
X355140Y225637D01*
X355219Y225336D01*
X355291Y225033D01*
X355356Y224728D01*
X355413Y224421D01*
X355463Y224113D01*
X355504Y223805D01*
X355539Y223495D01*
X355566Y223184D01*
X355585Y222873D01*
X355596Y222562D01*
X355600Y222250D01*
X355596Y221938D01*
X355585Y221627D01*
X355566Y221316D01*
X355539Y221005D01*
X355504Y220695D01*
X355463Y220387D01*
X355413Y220079D01*
X355356Y219772D01*
X355291Y219467D01*
X355219Y219164D01*
X355140Y218863D01*
X355053Y218563D01*
X354959Y218266D01*
X354858Y217971D01*
X354749Y217679D01*
X354633Y217390D01*
X354510Y217103D01*
X354381Y216820D01*
X354244Y216540D01*
X354100Y216263D01*
X353950Y215990D01*
X353793Y215721D01*
X353630Y215456D01*
X353460Y215194D01*
X353283Y214937D01*
X353101Y214685D01*
X352912Y214437D01*
X352717Y214193D01*
X352517Y213955D01*
X352310Y213721D01*
X352098Y213493D01*
X351880Y213270D01*
X351657Y213052D01*
X351429Y212840D01*
X351195Y212633D01*
X350957Y212433D01*
X350713Y212238D01*
X350465Y212049D01*
X350213Y211867D01*
X349956Y211690D01*
X349694Y211520D01*
X349429Y211357D01*
X349160Y211200D01*
X348887Y211050D01*
X348610Y210906D01*
X348330Y210769D01*
X348047Y210640D01*
X347760Y210517D01*
X347471Y210401D01*
X347179Y210292D01*
X346884Y210191D01*
X346587Y210097D01*
X346287Y210010D01*
X345986Y209931D01*
X345683Y209859D01*
X345378Y209794D01*
X345071Y209737D01*
X344763Y209687D01*
X344455Y209646D01*
X344145Y209611D01*
X343834Y209584D01*
X343523Y209565D01*
X343212Y209554D01*
X342900Y209550D01*
X342588Y209554D01*
X342277Y209565D01*
X341966Y209584D01*
X341655Y209611D01*
X341345Y209646D01*
X341037Y209687D01*
X340729Y209737D01*
X340422Y209794D01*
X340117Y209859D01*
X339814Y209931D01*
X339513Y210010D01*
X339213Y210097D01*
X338916Y210191D01*
X338621Y210292D01*
X338329Y210401D01*
X338040Y210517D01*
X337753Y210640D01*
X337470Y210769D01*
X337190Y210906D01*
X336913Y211050D01*
X336640Y211200D01*
X336371Y211357D01*
X336106Y211520D01*
X335844Y211690D01*
X335587Y211867D01*
X335335Y212049D01*
X335087Y212238D01*
X334843Y212433D01*
X334605Y212633D01*
X334371Y212840D01*
X334143Y213052D01*
X333920Y213270D01*
X333702Y213493D01*
X333490Y213721D01*
X333283Y213955D01*
X333083Y214193D01*
X332888Y214437D01*
X332699Y214685D01*
X332517Y214937D01*
X332340Y215194D01*
X332170Y215456D01*
X332007Y215721D01*
X331850Y215990D01*
X331700Y216263D01*
X331556Y216540D01*
X331419Y216820D01*
X331290Y217103D01*
X331167Y217390D01*
X331051Y217679D01*
X330942Y217971D01*
X330841Y218266D01*
X330747Y218563D01*
X330660Y218863D01*
X330581Y219164D01*
X330509Y219467D01*
X330444Y219772D01*
X330387Y220079D01*
X330337Y220387D01*
X330296Y220695D01*
X330261Y221005D01*
X330234Y221316D01*
X330215Y221627D01*
X330204Y221938D01*
X330200Y222250D01*
D13*
X372897Y222885D02*
X372897Y234315D01*
X372897Y222885D02*
X377977Y222885D01*
X385826Y222885D02*
X385926Y222887D01*
X386025Y222893D01*
X386125Y222903D01*
X386223Y222916D01*
X386322Y222934D01*
X386419Y222955D01*
X386515Y222980D01*
X386611Y223009D01*
X386705Y223042D01*
X386798Y223078D01*
X386889Y223118D01*
X386979Y223162D01*
X387067Y223209D01*
X387153Y223259D01*
X387237Y223313D01*
X387319Y223370D01*
X387398Y223430D01*
X387476Y223494D01*
X387550Y223560D01*
X387622Y223629D01*
X387691Y223701D01*
X387757Y223775D01*
X387821Y223853D01*
X387881Y223932D01*
X387938Y224014D01*
X387992Y224098D01*
X388042Y224184D01*
X388089Y224272D01*
X388133Y224362D01*
X388173Y224453D01*
X388209Y224546D01*
X388242Y224640D01*
X388271Y224736D01*
X388296Y224832D01*
X388317Y224929D01*
X388335Y225028D01*
X388348Y225126D01*
X388358Y225226D01*
X388364Y225325D01*
X388366Y225425D01*
X385826Y222885D02*
X385685Y222887D01*
X385544Y222892D01*
X385403Y222902D01*
X385262Y222915D01*
X385122Y222931D01*
X384982Y222952D01*
X384843Y222976D01*
X384704Y223004D01*
X384567Y223035D01*
X384430Y223070D01*
X384294Y223108D01*
X384159Y223150D01*
X384026Y223196D01*
X383893Y223245D01*
X383762Y223298D01*
X383633Y223354D01*
X383504Y223413D01*
X383378Y223476D01*
X383253Y223542D01*
X383130Y223611D01*
X383009Y223684D01*
X382890Y223760D01*
X382772Y223839D01*
X382657Y223920D01*
X382545Y224005D01*
X382434Y224093D01*
X382326Y224184D01*
X382220Y224277D01*
X382117Y224374D01*
X382016Y224473D01*
X382334Y231775D02*
X382336Y231875D01*
X382342Y231974D01*
X382352Y232074D01*
X382365Y232172D01*
X382383Y232271D01*
X382404Y232368D01*
X382429Y232464D01*
X382458Y232560D01*
X382491Y232654D01*
X382527Y232747D01*
X382567Y232838D01*
X382611Y232928D01*
X382658Y233016D01*
X382708Y233102D01*
X382762Y233186D01*
X382819Y233268D01*
X382879Y233347D01*
X382943Y233425D01*
X383009Y233499D01*
X383078Y233571D01*
X383150Y233640D01*
X383224Y233706D01*
X383302Y233770D01*
X383381Y233830D01*
X383463Y233887D01*
X383547Y233941D01*
X383633Y233991D01*
X383721Y234038D01*
X383811Y234082D01*
X383902Y234122D01*
X383995Y234158D01*
X384089Y234191D01*
X384185Y234220D01*
X384281Y234245D01*
X384378Y234266D01*
X384477Y234284D01*
X384575Y234297D01*
X384675Y234307D01*
X384774Y234313D01*
X384874Y234315D01*
X384874Y234316D02*
X385007Y234314D01*
X385140Y234309D01*
X385273Y234299D01*
X385406Y234286D01*
X385538Y234269D01*
X385670Y234249D01*
X385801Y234225D01*
X385931Y234197D01*
X386061Y234166D01*
X386189Y234131D01*
X386317Y234092D01*
X386443Y234050D01*
X386568Y234004D01*
X386692Y233955D01*
X386815Y233903D01*
X386936Y233847D01*
X387055Y233787D01*
X387173Y233725D01*
X387288Y233659D01*
X387402Y233590D01*
X387514Y233517D01*
X387624Y233442D01*
X387732Y233363D01*
X383603Y229552D02*
X383519Y229604D01*
X383436Y229659D01*
X383356Y229718D01*
X383278Y229779D01*
X383203Y229843D01*
X383130Y229911D01*
X383059Y229981D01*
X382992Y230053D01*
X382927Y230128D01*
X382865Y230206D01*
X382806Y230286D01*
X382750Y230368D01*
X382698Y230452D01*
X382649Y230538D01*
X382603Y230626D01*
X382560Y230716D01*
X382521Y230807D01*
X382486Y230900D01*
X382454Y230994D01*
X382426Y231089D01*
X382401Y231185D01*
X382381Y231282D01*
X382363Y231380D01*
X382350Y231478D01*
X382341Y231577D01*
X382335Y231676D01*
X382333Y231775D01*
X387096Y227648D02*
X387180Y227596D01*
X387263Y227541D01*
X387343Y227482D01*
X387421Y227421D01*
X387496Y227357D01*
X387569Y227289D01*
X387640Y227219D01*
X387707Y227147D01*
X387772Y227072D01*
X387834Y226994D01*
X387893Y226914D01*
X387949Y226832D01*
X388001Y226748D01*
X388050Y226662D01*
X388096Y226574D01*
X388139Y226484D01*
X388178Y226393D01*
X388213Y226300D01*
X388245Y226206D01*
X388273Y226111D01*
X388298Y226015D01*
X388318Y225918D01*
X388336Y225820D01*
X388349Y225722D01*
X388358Y225623D01*
X388364Y225524D01*
X388366Y225425D01*
X387096Y227648D02*
X383604Y229553D01*
X393065Y231775D02*
X396240Y234315D01*
X396240Y222885D01*
X393065Y222885D02*
X399415Y222885D01*
D14*
X534307Y264104D02*
X534307Y269296D01*
X534309Y269409D01*
X534315Y269522D01*
X534325Y269635D01*
X534339Y269748D01*
X534356Y269860D01*
X534378Y269971D01*
X534403Y270081D01*
X534433Y270191D01*
X534466Y270299D01*
X534503Y270406D01*
X534543Y270512D01*
X534588Y270616D01*
X534636Y270719D01*
X534687Y270820D01*
X534742Y270919D01*
X534800Y271016D01*
X534862Y271111D01*
X534927Y271204D01*
X534995Y271294D01*
X535066Y271382D01*
X535141Y271468D01*
X535218Y271551D01*
X535298Y271631D01*
X535381Y271708D01*
X535467Y271783D01*
X535555Y271854D01*
X535645Y271922D01*
X535738Y271987D01*
X535833Y272049D01*
X535930Y272107D01*
X536029Y272162D01*
X536130Y272213D01*
X536233Y272261D01*
X536337Y272306D01*
X536443Y272346D01*
X536550Y272383D01*
X536658Y272416D01*
X536768Y272446D01*
X536878Y272471D01*
X536989Y272493D01*
X537101Y272510D01*
X537214Y272524D01*
X537327Y272534D01*
X537440Y272540D01*
X537553Y272542D01*
X537666Y272540D01*
X537779Y272534D01*
X537892Y272524D01*
X538005Y272510D01*
X538117Y272493D01*
X538228Y272471D01*
X538338Y272446D01*
X538448Y272416D01*
X538556Y272383D01*
X538663Y272346D01*
X538769Y272306D01*
X538873Y272261D01*
X538976Y272213D01*
X539077Y272162D01*
X539176Y272107D01*
X539273Y272049D01*
X539368Y271987D01*
X539461Y271922D01*
X539551Y271854D01*
X539639Y271783D01*
X539725Y271708D01*
X539808Y271631D01*
X539888Y271551D01*
X539965Y271468D01*
X540040Y271382D01*
X540111Y271294D01*
X540179Y271204D01*
X540244Y271111D01*
X540306Y271016D01*
X540364Y270919D01*
X540419Y270820D01*
X540470Y270719D01*
X540518Y270616D01*
X540563Y270512D01*
X540603Y270406D01*
X540640Y270299D01*
X540673Y270191D01*
X540703Y270081D01*
X540728Y269971D01*
X540750Y269860D01*
X540767Y269748D01*
X540781Y269635D01*
X540791Y269522D01*
X540797Y269409D01*
X540799Y269296D01*
X540798Y269296D02*
X540798Y264104D01*
X540799Y264104D02*
X540797Y263991D01*
X540791Y263878D01*
X540781Y263765D01*
X540767Y263652D01*
X540750Y263540D01*
X540728Y263429D01*
X540703Y263319D01*
X540673Y263209D01*
X540640Y263101D01*
X540603Y262994D01*
X540563Y262888D01*
X540518Y262784D01*
X540470Y262681D01*
X540419Y262580D01*
X540364Y262481D01*
X540306Y262384D01*
X540244Y262289D01*
X540179Y262196D01*
X540111Y262106D01*
X540040Y262018D01*
X539965Y261932D01*
X539888Y261849D01*
X539808Y261769D01*
X539725Y261692D01*
X539639Y261617D01*
X539551Y261546D01*
X539461Y261478D01*
X539368Y261413D01*
X539273Y261351D01*
X539176Y261293D01*
X539077Y261238D01*
X538976Y261187D01*
X538873Y261139D01*
X538769Y261094D01*
X538663Y261054D01*
X538556Y261017D01*
X538448Y260984D01*
X538338Y260954D01*
X538228Y260929D01*
X538117Y260907D01*
X538005Y260890D01*
X537892Y260876D01*
X537779Y260866D01*
X537666Y260860D01*
X537553Y260858D01*
X537440Y260860D01*
X537327Y260866D01*
X537214Y260876D01*
X537101Y260890D01*
X536989Y260907D01*
X536878Y260929D01*
X536768Y260954D01*
X536658Y260984D01*
X536550Y261017D01*
X536443Y261054D01*
X536337Y261094D01*
X536233Y261139D01*
X536130Y261187D01*
X536029Y261238D01*
X535930Y261293D01*
X535833Y261351D01*
X535738Y261413D01*
X535645Y261478D01*
X535555Y261546D01*
X535467Y261617D01*
X535381Y261692D01*
X535298Y261769D01*
X535218Y261849D01*
X535141Y261932D01*
X535066Y262018D01*
X534995Y262106D01*
X534927Y262196D01*
X534862Y262289D01*
X534800Y262384D01*
X534742Y262481D01*
X534687Y262580D01*
X534636Y262681D01*
X534588Y262784D01*
X534543Y262888D01*
X534503Y262994D01*
X534466Y263101D01*
X534433Y263209D01*
X534403Y263319D01*
X534378Y263429D01*
X534356Y263540D01*
X534339Y263652D01*
X534325Y263765D01*
X534315Y263878D01*
X534309Y263991D01*
X534307Y264104D01*
X539500Y263454D02*
X542096Y260858D01*
X545451Y269946D02*
X548696Y272542D01*
X548696Y260858D01*
X545451Y260858D02*
X551942Y260858D01*
X616458Y253492D02*
X616458Y241808D01*
X616458Y253492D02*
X619704Y253492D01*
X619817Y253490D01*
X619930Y253484D01*
X620043Y253474D01*
X620156Y253460D01*
X620268Y253443D01*
X620379Y253421D01*
X620489Y253396D01*
X620599Y253366D01*
X620707Y253333D01*
X620814Y253296D01*
X620920Y253256D01*
X621024Y253211D01*
X621127Y253163D01*
X621228Y253112D01*
X621327Y253057D01*
X621424Y252999D01*
X621519Y252937D01*
X621612Y252872D01*
X621702Y252804D01*
X621790Y252733D01*
X621876Y252658D01*
X621959Y252581D01*
X622039Y252501D01*
X622116Y252418D01*
X622191Y252332D01*
X622262Y252244D01*
X622330Y252154D01*
X622395Y252061D01*
X622457Y251966D01*
X622515Y251869D01*
X622570Y251770D01*
X622621Y251669D01*
X622669Y251566D01*
X622714Y251462D01*
X622754Y251356D01*
X622791Y251249D01*
X622824Y251141D01*
X622854Y251031D01*
X622879Y250921D01*
X622901Y250810D01*
X622918Y250698D01*
X622932Y250585D01*
X622942Y250472D01*
X622948Y250359D01*
X622950Y250246D01*
X622948Y250133D01*
X622942Y250020D01*
X622932Y249907D01*
X622918Y249794D01*
X622901Y249682D01*
X622879Y249571D01*
X622854Y249461D01*
X622824Y249351D01*
X622791Y249243D01*
X622754Y249136D01*
X622714Y249030D01*
X622669Y248926D01*
X622621Y248823D01*
X622570Y248722D01*
X622515Y248623D01*
X622457Y248526D01*
X622395Y248431D01*
X622330Y248338D01*
X622262Y248248D01*
X622191Y248160D01*
X622116Y248074D01*
X622039Y247991D01*
X621959Y247911D01*
X621876Y247834D01*
X621790Y247759D01*
X621702Y247688D01*
X621612Y247620D01*
X621519Y247555D01*
X621424Y247493D01*
X621327Y247435D01*
X621228Y247380D01*
X621127Y247329D01*
X621024Y247281D01*
X620920Y247236D01*
X620814Y247196D01*
X620707Y247159D01*
X620599Y247126D01*
X620489Y247096D01*
X620379Y247071D01*
X620268Y247049D01*
X620156Y247032D01*
X620043Y247018D01*
X619930Y247008D01*
X619817Y247002D01*
X619704Y247000D01*
X619704Y247001D02*
X616458Y247001D01*
X620353Y247001D02*
X622949Y241808D01*
X627814Y250896D02*
X631060Y253492D01*
X631060Y241808D01*
X634305Y241808D02*
X627814Y241808D01*
X940308Y32258D02*
X951992Y32258D01*
X940308Y32258D02*
X940308Y35504D01*
X940310Y35617D01*
X940316Y35730D01*
X940326Y35843D01*
X940340Y35956D01*
X940357Y36068D01*
X940379Y36179D01*
X940404Y36289D01*
X940434Y36399D01*
X940467Y36507D01*
X940504Y36614D01*
X940544Y36720D01*
X940589Y36824D01*
X940637Y36927D01*
X940688Y37028D01*
X940743Y37127D01*
X940801Y37224D01*
X940863Y37319D01*
X940928Y37412D01*
X940996Y37502D01*
X941067Y37590D01*
X941142Y37676D01*
X941219Y37759D01*
X941299Y37839D01*
X941382Y37916D01*
X941468Y37991D01*
X941556Y38062D01*
X941646Y38130D01*
X941739Y38195D01*
X941834Y38257D01*
X941931Y38315D01*
X942030Y38370D01*
X942131Y38421D01*
X942234Y38469D01*
X942338Y38514D01*
X942444Y38554D01*
X942551Y38591D01*
X942659Y38624D01*
X942769Y38654D01*
X942879Y38679D01*
X942990Y38701D01*
X943102Y38718D01*
X943215Y38732D01*
X943328Y38742D01*
X943441Y38748D01*
X943554Y38750D01*
X943667Y38748D01*
X943780Y38742D01*
X943893Y38732D01*
X944006Y38718D01*
X944118Y38701D01*
X944229Y38679D01*
X944339Y38654D01*
X944449Y38624D01*
X944557Y38591D01*
X944664Y38554D01*
X944770Y38514D01*
X944874Y38469D01*
X944977Y38421D01*
X945078Y38370D01*
X945177Y38315D01*
X945274Y38257D01*
X945369Y38195D01*
X945462Y38130D01*
X945552Y38062D01*
X945640Y37991D01*
X945726Y37916D01*
X945809Y37839D01*
X945889Y37759D01*
X945966Y37676D01*
X946041Y37590D01*
X946112Y37502D01*
X946180Y37412D01*
X946245Y37319D01*
X946307Y37224D01*
X946365Y37127D01*
X946420Y37028D01*
X946471Y36927D01*
X946519Y36824D01*
X946564Y36720D01*
X946604Y36614D01*
X946641Y36507D01*
X946674Y36399D01*
X946704Y36289D01*
X946729Y36179D01*
X946751Y36068D01*
X946768Y35956D01*
X946782Y35843D01*
X946792Y35730D01*
X946798Y35617D01*
X946800Y35504D01*
X946799Y35504D02*
X946799Y32258D01*
X946799Y36153D02*
X951992Y38749D01*
X942904Y43614D02*
X940308Y46860D01*
X951992Y46860D01*
X951992Y50105D02*
X951992Y43614D01*
X946150Y55044D02*
X945920Y55047D01*
X945690Y55055D01*
X945461Y55069D01*
X945232Y55088D01*
X945003Y55113D01*
X944775Y55143D01*
X944548Y55178D01*
X944322Y55219D01*
X944097Y55265D01*
X943873Y55317D01*
X943650Y55374D01*
X943429Y55436D01*
X943209Y55504D01*
X942991Y55577D01*
X942775Y55655D01*
X942561Y55738D01*
X942349Y55826D01*
X942138Y55919D01*
X941931Y56018D01*
X941841Y56051D01*
X941752Y56087D01*
X941664Y56127D01*
X941579Y56171D01*
X941495Y56218D01*
X941413Y56268D01*
X941333Y56322D01*
X941256Y56378D01*
X941180Y56438D01*
X941107Y56501D01*
X941037Y56566D01*
X940969Y56635D01*
X940905Y56706D01*
X940843Y56779D01*
X940784Y56855D01*
X940728Y56933D01*
X940675Y57014D01*
X940626Y57096D01*
X940580Y57180D01*
X940537Y57267D01*
X940498Y57354D01*
X940462Y57444D01*
X940430Y57534D01*
X940402Y57626D01*
X940377Y57719D01*
X940356Y57813D01*
X940339Y57907D01*
X940325Y58002D01*
X940316Y58098D01*
X940310Y58194D01*
X940308Y58290D01*
X940310Y58386D01*
X940316Y58482D01*
X940325Y58578D01*
X940339Y58673D01*
X940356Y58767D01*
X940377Y58861D01*
X940402Y58954D01*
X940430Y59046D01*
X940462Y59136D01*
X940498Y59226D01*
X940537Y59314D01*
X940580Y59400D01*
X940626Y59484D01*
X940675Y59566D01*
X940728Y59647D01*
X940784Y59725D01*
X940843Y59801D01*
X940905Y59874D01*
X940969Y59945D01*
X941037Y60014D01*
X941107Y60079D01*
X941180Y60142D01*
X941256Y60202D01*
X941333Y60258D01*
X941413Y60312D01*
X941495Y60362D01*
X941579Y60409D01*
X941664Y60453D01*
X941752Y60493D01*
X941841Y60529D01*
X941931Y60562D01*
X942138Y60661D01*
X942349Y60754D01*
X942561Y60842D01*
X942775Y60925D01*
X942991Y61003D01*
X943209Y61076D01*
X943429Y61144D01*
X943650Y61206D01*
X943873Y61263D01*
X944097Y61315D01*
X944322Y61361D01*
X944548Y61402D01*
X944775Y61437D01*
X945003Y61467D01*
X945232Y61492D01*
X945461Y61511D01*
X945690Y61525D01*
X945920Y61533D01*
X946150Y61536D01*
X946150Y55044D02*
X946380Y55047D01*
X946610Y55055D01*
X946839Y55069D01*
X947068Y55088D01*
X947297Y55113D01*
X947525Y55143D01*
X947752Y55178D01*
X947978Y55219D01*
X948203Y55265D01*
X948427Y55317D01*
X948650Y55374D01*
X948871Y55436D01*
X949091Y55504D01*
X949309Y55577D01*
X949525Y55655D01*
X949739Y55738D01*
X949951Y55826D01*
X950162Y55919D01*
X950369Y56018D01*
X950459Y56051D01*
X950548Y56087D01*
X950636Y56128D01*
X950721Y56171D01*
X950805Y56218D01*
X950887Y56268D01*
X950967Y56322D01*
X951044Y56378D01*
X951120Y56438D01*
X951193Y56501D01*
X951263Y56566D01*
X951331Y56635D01*
X951395Y56706D01*
X951457Y56779D01*
X951516Y56855D01*
X951572Y56933D01*
X951625Y57014D01*
X951674Y57096D01*
X951720Y57180D01*
X951763Y57267D01*
X951802Y57354D01*
X951838Y57444D01*
X951870Y57534D01*
X951898Y57626D01*
X951923Y57719D01*
X951944Y57813D01*
X951961Y57907D01*
X951975Y58002D01*
X951984Y58098D01*
X951990Y58194D01*
X951992Y58290D01*
X950369Y60562D02*
X950162Y60661D01*
X949951Y60754D01*
X949739Y60842D01*
X949525Y60925D01*
X949309Y61003D01*
X949091Y61076D01*
X948871Y61144D01*
X948650Y61206D01*
X948427Y61263D01*
X948203Y61315D01*
X947978Y61361D01*
X947752Y61402D01*
X947525Y61437D01*
X947297Y61467D01*
X947068Y61492D01*
X946839Y61511D01*
X946610Y61525D01*
X946380Y61533D01*
X946150Y61536D01*
X950369Y60562D02*
X950459Y60529D01*
X950548Y60493D01*
X950636Y60453D01*
X950721Y60409D01*
X950805Y60362D01*
X950887Y60312D01*
X950967Y60258D01*
X951044Y60202D01*
X951120Y60142D01*
X951193Y60079D01*
X951263Y60014D01*
X951331Y59945D01*
X951395Y59874D01*
X951457Y59801D01*
X951516Y59725D01*
X951572Y59647D01*
X951625Y59566D01*
X951674Y59484D01*
X951720Y59400D01*
X951763Y59313D01*
X951802Y59226D01*
X951838Y59136D01*
X951870Y59046D01*
X951898Y58954D01*
X951923Y58861D01*
X951944Y58767D01*
X951961Y58673D01*
X951975Y58578D01*
X951984Y58482D01*
X951990Y58386D01*
X951992Y58290D01*
X949396Y55693D02*
X942904Y60886D01*
X83058Y62992D02*
X83058Y51308D01*
X83058Y62992D02*
X86304Y62992D01*
X86417Y62990D01*
X86530Y62984D01*
X86643Y62974D01*
X86756Y62960D01*
X86868Y62943D01*
X86979Y62921D01*
X87089Y62896D01*
X87199Y62866D01*
X87307Y62833D01*
X87414Y62796D01*
X87520Y62756D01*
X87624Y62711D01*
X87727Y62663D01*
X87828Y62612D01*
X87927Y62557D01*
X88024Y62499D01*
X88119Y62437D01*
X88212Y62372D01*
X88302Y62304D01*
X88390Y62233D01*
X88476Y62158D01*
X88559Y62081D01*
X88639Y62001D01*
X88716Y61918D01*
X88791Y61832D01*
X88862Y61744D01*
X88930Y61654D01*
X88995Y61561D01*
X89057Y61466D01*
X89115Y61369D01*
X89170Y61270D01*
X89221Y61169D01*
X89269Y61066D01*
X89314Y60962D01*
X89354Y60856D01*
X89391Y60749D01*
X89424Y60641D01*
X89454Y60531D01*
X89479Y60421D01*
X89501Y60310D01*
X89518Y60198D01*
X89532Y60085D01*
X89542Y59972D01*
X89548Y59859D01*
X89550Y59746D01*
X89548Y59633D01*
X89542Y59520D01*
X89532Y59407D01*
X89518Y59294D01*
X89501Y59182D01*
X89479Y59071D01*
X89454Y58961D01*
X89424Y58851D01*
X89391Y58743D01*
X89354Y58636D01*
X89314Y58530D01*
X89269Y58426D01*
X89221Y58323D01*
X89170Y58222D01*
X89115Y58123D01*
X89057Y58026D01*
X88995Y57931D01*
X88930Y57838D01*
X88862Y57748D01*
X88791Y57660D01*
X88716Y57574D01*
X88639Y57491D01*
X88559Y57411D01*
X88476Y57334D01*
X88390Y57259D01*
X88302Y57188D01*
X88212Y57120D01*
X88119Y57055D01*
X88024Y56993D01*
X87927Y56935D01*
X87828Y56880D01*
X87727Y56829D01*
X87624Y56781D01*
X87520Y56736D01*
X87414Y56696D01*
X87307Y56659D01*
X87199Y56626D01*
X87089Y56596D01*
X86979Y56571D01*
X86868Y56549D01*
X86756Y56532D01*
X86643Y56518D01*
X86530Y56508D01*
X86417Y56502D01*
X86304Y56500D01*
X86304Y56501D02*
X83058Y56501D01*
X86953Y56501D02*
X89549Y51308D01*
X100905Y60071D02*
X100903Y60178D01*
X100897Y60284D01*
X100887Y60390D01*
X100874Y60496D01*
X100856Y60602D01*
X100835Y60706D01*
X100810Y60810D01*
X100781Y60913D01*
X100749Y61014D01*
X100712Y61114D01*
X100672Y61213D01*
X100629Y61311D01*
X100582Y61407D01*
X100531Y61501D01*
X100477Y61593D01*
X100420Y61683D01*
X100360Y61771D01*
X100296Y61856D01*
X100229Y61939D01*
X100159Y62020D01*
X100087Y62098D01*
X100011Y62174D01*
X99933Y62246D01*
X99852Y62316D01*
X99769Y62383D01*
X99684Y62447D01*
X99596Y62507D01*
X99506Y62564D01*
X99414Y62618D01*
X99320Y62669D01*
X99224Y62716D01*
X99126Y62759D01*
X99027Y62799D01*
X98927Y62836D01*
X98826Y62868D01*
X98723Y62897D01*
X98619Y62922D01*
X98515Y62943D01*
X98409Y62961D01*
X98303Y62974D01*
X98197Y62984D01*
X98091Y62990D01*
X97984Y62992D01*
X97863Y62990D01*
X97742Y62984D01*
X97622Y62974D01*
X97501Y62961D01*
X97382Y62943D01*
X97262Y62922D01*
X97144Y62897D01*
X97027Y62868D01*
X96910Y62835D01*
X96795Y62799D01*
X96681Y62758D01*
X96568Y62715D01*
X96456Y62667D01*
X96347Y62616D01*
X96239Y62561D01*
X96132Y62503D01*
X96028Y62442D01*
X95926Y62377D01*
X95826Y62309D01*
X95728Y62238D01*
X95632Y62164D01*
X95539Y62087D01*
X95449Y62006D01*
X95361Y61923D01*
X95276Y61837D01*
X95193Y61748D01*
X95114Y61657D01*
X95037Y61563D01*
X94964Y61467D01*
X94894Y61369D01*
X94827Y61268D01*
X94763Y61165D01*
X94703Y61060D01*
X94646Y60953D01*
X94592Y60845D01*
X94542Y60735D01*
X94496Y60623D01*
X94453Y60510D01*
X94414Y60395D01*
X99932Y57799D02*
X100011Y57876D01*
X100087Y57957D01*
X100160Y58040D01*
X100230Y58125D01*
X100297Y58213D01*
X100361Y58303D01*
X100421Y58395D01*
X100478Y58490D01*
X100532Y58586D01*
X100583Y58684D01*
X100630Y58784D01*
X100674Y58886D01*
X100714Y58989D01*
X100750Y59093D01*
X100782Y59199D01*
X100811Y59305D01*
X100836Y59413D01*
X100858Y59521D01*
X100875Y59631D01*
X100889Y59740D01*
X100898Y59850D01*
X100904Y59961D01*
X100906Y60071D01*
X99932Y57799D02*
X94414Y51308D01*
X100905Y51308D01*
X197358Y51308D02*
X197358Y62992D01*
X200604Y62992D01*
X200717Y62990D01*
X200830Y62984D01*
X200943Y62974D01*
X201056Y62960D01*
X201168Y62943D01*
X201279Y62921D01*
X201389Y62896D01*
X201499Y62866D01*
X201607Y62833D01*
X201714Y62796D01*
X201820Y62756D01*
X201924Y62711D01*
X202027Y62663D01*
X202128Y62612D01*
X202227Y62557D01*
X202324Y62499D01*
X202419Y62437D01*
X202512Y62372D01*
X202602Y62304D01*
X202690Y62233D01*
X202776Y62158D01*
X202859Y62081D01*
X202939Y62001D01*
X203016Y61918D01*
X203091Y61832D01*
X203162Y61744D01*
X203230Y61654D01*
X203295Y61561D01*
X203357Y61466D01*
X203415Y61369D01*
X203470Y61270D01*
X203521Y61169D01*
X203569Y61066D01*
X203614Y60962D01*
X203654Y60856D01*
X203691Y60749D01*
X203724Y60641D01*
X203754Y60531D01*
X203779Y60421D01*
X203801Y60310D01*
X203818Y60198D01*
X203832Y60085D01*
X203842Y59972D01*
X203848Y59859D01*
X203850Y59746D01*
X203848Y59633D01*
X203842Y59520D01*
X203832Y59407D01*
X203818Y59294D01*
X203801Y59182D01*
X203779Y59071D01*
X203754Y58961D01*
X203724Y58851D01*
X203691Y58743D01*
X203654Y58636D01*
X203614Y58530D01*
X203569Y58426D01*
X203521Y58323D01*
X203470Y58222D01*
X203415Y58123D01*
X203357Y58026D01*
X203295Y57931D01*
X203230Y57838D01*
X203162Y57748D01*
X203091Y57660D01*
X203016Y57574D01*
X202939Y57491D01*
X202859Y57411D01*
X202776Y57334D01*
X202690Y57259D01*
X202602Y57188D01*
X202512Y57120D01*
X202419Y57055D01*
X202324Y56993D01*
X202227Y56935D01*
X202128Y56880D01*
X202027Y56829D01*
X201924Y56781D01*
X201820Y56736D01*
X201714Y56696D01*
X201607Y56659D01*
X201499Y56626D01*
X201389Y56596D01*
X201279Y56571D01*
X201168Y56549D01*
X201056Y56532D01*
X200943Y56518D01*
X200830Y56508D01*
X200717Y56502D01*
X200604Y56500D01*
X200604Y56501D02*
X197358Y56501D01*
X201253Y56501D02*
X203849Y51308D01*
X208714Y51308D02*
X211960Y51308D01*
X212073Y51310D01*
X212186Y51316D01*
X212299Y51326D01*
X212412Y51340D01*
X212524Y51357D01*
X212635Y51379D01*
X212745Y51404D01*
X212855Y51434D01*
X212963Y51467D01*
X213070Y51504D01*
X213176Y51544D01*
X213280Y51589D01*
X213383Y51637D01*
X213484Y51688D01*
X213583Y51743D01*
X213680Y51801D01*
X213775Y51863D01*
X213868Y51928D01*
X213958Y51996D01*
X214046Y52067D01*
X214132Y52142D01*
X214215Y52219D01*
X214295Y52299D01*
X214372Y52382D01*
X214447Y52468D01*
X214518Y52556D01*
X214586Y52646D01*
X214651Y52739D01*
X214713Y52834D01*
X214771Y52931D01*
X214826Y53030D01*
X214877Y53131D01*
X214925Y53234D01*
X214970Y53338D01*
X215010Y53444D01*
X215047Y53551D01*
X215080Y53659D01*
X215110Y53769D01*
X215135Y53879D01*
X215157Y53990D01*
X215174Y54102D01*
X215188Y54215D01*
X215198Y54328D01*
X215204Y54441D01*
X215206Y54554D01*
X215204Y54667D01*
X215198Y54780D01*
X215188Y54893D01*
X215174Y55006D01*
X215157Y55118D01*
X215135Y55229D01*
X215110Y55339D01*
X215080Y55449D01*
X215047Y55557D01*
X215010Y55664D01*
X214970Y55770D01*
X214925Y55874D01*
X214877Y55977D01*
X214826Y56078D01*
X214771Y56177D01*
X214713Y56274D01*
X214651Y56369D01*
X214586Y56462D01*
X214518Y56552D01*
X214447Y56640D01*
X214372Y56726D01*
X214295Y56809D01*
X214215Y56889D01*
X214132Y56966D01*
X214046Y57041D01*
X213958Y57112D01*
X213868Y57180D01*
X213775Y57245D01*
X213680Y57307D01*
X213583Y57365D01*
X213484Y57420D01*
X213383Y57471D01*
X213280Y57519D01*
X213176Y57564D01*
X213070Y57604D01*
X212963Y57641D01*
X212855Y57674D01*
X212745Y57704D01*
X212635Y57729D01*
X212524Y57751D01*
X212412Y57768D01*
X212299Y57782D01*
X212186Y57792D01*
X212073Y57798D01*
X211960Y57800D01*
X212609Y62992D02*
X208714Y62992D01*
X212609Y62992D02*
X212710Y62990D01*
X212810Y62984D01*
X212910Y62974D01*
X213010Y62961D01*
X213109Y62943D01*
X213208Y62922D01*
X213305Y62897D01*
X213402Y62868D01*
X213497Y62835D01*
X213591Y62799D01*
X213683Y62759D01*
X213774Y62716D01*
X213863Y62669D01*
X213950Y62619D01*
X214036Y62565D01*
X214119Y62508D01*
X214199Y62448D01*
X214278Y62385D01*
X214354Y62318D01*
X214427Y62249D01*
X214497Y62177D01*
X214565Y62103D01*
X214630Y62026D01*
X214691Y61946D01*
X214750Y61864D01*
X214805Y61780D01*
X214857Y61694D01*
X214906Y61606D01*
X214951Y61516D01*
X214993Y61424D01*
X215031Y61331D01*
X215065Y61236D01*
X215096Y61141D01*
X215123Y61044D01*
X215146Y60946D01*
X215166Y60847D01*
X215181Y60747D01*
X215193Y60647D01*
X215201Y60547D01*
X215205Y60446D01*
X215205Y60346D01*
X215201Y60245D01*
X215193Y60145D01*
X215181Y60045D01*
X215166Y59945D01*
X215146Y59846D01*
X215123Y59748D01*
X215096Y59651D01*
X215065Y59556D01*
X215031Y59461D01*
X214993Y59368D01*
X214951Y59276D01*
X214906Y59186D01*
X214857Y59098D01*
X214805Y59012D01*
X214750Y58928D01*
X214691Y58846D01*
X214630Y58766D01*
X214565Y58689D01*
X214497Y58615D01*
X214427Y58543D01*
X214354Y58474D01*
X214278Y58407D01*
X214199Y58344D01*
X214119Y58284D01*
X214036Y58227D01*
X213950Y58173D01*
X213863Y58123D01*
X213774Y58076D01*
X213683Y58033D01*
X213591Y57993D01*
X213497Y57957D01*
X213402Y57924D01*
X213305Y57895D01*
X213208Y57870D01*
X213109Y57849D01*
X213010Y57831D01*
X212910Y57818D01*
X212810Y57808D01*
X212710Y57802D01*
X212609Y57800D01*
X212609Y57799D02*
X210013Y57799D01*
X311658Y62992D02*
X311658Y51308D01*
X311658Y62992D02*
X314904Y62992D01*
X315017Y62990D01*
X315130Y62984D01*
X315243Y62974D01*
X315356Y62960D01*
X315468Y62943D01*
X315579Y62921D01*
X315689Y62896D01*
X315799Y62866D01*
X315907Y62833D01*
X316014Y62796D01*
X316120Y62756D01*
X316224Y62711D01*
X316327Y62663D01*
X316428Y62612D01*
X316527Y62557D01*
X316624Y62499D01*
X316719Y62437D01*
X316812Y62372D01*
X316902Y62304D01*
X316990Y62233D01*
X317076Y62158D01*
X317159Y62081D01*
X317239Y62001D01*
X317316Y61918D01*
X317391Y61832D01*
X317462Y61744D01*
X317530Y61654D01*
X317595Y61561D01*
X317657Y61466D01*
X317715Y61369D01*
X317770Y61270D01*
X317821Y61169D01*
X317869Y61066D01*
X317914Y60962D01*
X317954Y60856D01*
X317991Y60749D01*
X318024Y60641D01*
X318054Y60531D01*
X318079Y60421D01*
X318101Y60310D01*
X318118Y60198D01*
X318132Y60085D01*
X318142Y59972D01*
X318148Y59859D01*
X318150Y59746D01*
X318148Y59633D01*
X318142Y59520D01*
X318132Y59407D01*
X318118Y59294D01*
X318101Y59182D01*
X318079Y59071D01*
X318054Y58961D01*
X318024Y58851D01*
X317991Y58743D01*
X317954Y58636D01*
X317914Y58530D01*
X317869Y58426D01*
X317821Y58323D01*
X317770Y58222D01*
X317715Y58123D01*
X317657Y58026D01*
X317595Y57931D01*
X317530Y57838D01*
X317462Y57748D01*
X317391Y57660D01*
X317316Y57574D01*
X317239Y57491D01*
X317159Y57411D01*
X317076Y57334D01*
X316990Y57259D01*
X316902Y57188D01*
X316812Y57120D01*
X316719Y57055D01*
X316624Y56993D01*
X316527Y56935D01*
X316428Y56880D01*
X316327Y56829D01*
X316224Y56781D01*
X316120Y56736D01*
X316014Y56696D01*
X315907Y56659D01*
X315799Y56626D01*
X315689Y56596D01*
X315579Y56571D01*
X315468Y56549D01*
X315356Y56532D01*
X315243Y56518D01*
X315130Y56508D01*
X315017Y56502D01*
X314904Y56500D01*
X314904Y56501D02*
X311658Y56501D01*
X315553Y56501D02*
X318149Y51308D01*
X323014Y53904D02*
X325611Y62992D01*
X323014Y53904D02*
X329505Y53904D01*
X327558Y56501D02*
X327558Y51308D01*
X425958Y51308D02*
X425958Y62992D01*
X429204Y62992D01*
X429317Y62990D01*
X429430Y62984D01*
X429543Y62974D01*
X429656Y62960D01*
X429768Y62943D01*
X429879Y62921D01*
X429989Y62896D01*
X430099Y62866D01*
X430207Y62833D01*
X430314Y62796D01*
X430420Y62756D01*
X430524Y62711D01*
X430627Y62663D01*
X430728Y62612D01*
X430827Y62557D01*
X430924Y62499D01*
X431019Y62437D01*
X431112Y62372D01*
X431202Y62304D01*
X431290Y62233D01*
X431376Y62158D01*
X431459Y62081D01*
X431539Y62001D01*
X431616Y61918D01*
X431691Y61832D01*
X431762Y61744D01*
X431830Y61654D01*
X431895Y61561D01*
X431957Y61466D01*
X432015Y61369D01*
X432070Y61270D01*
X432121Y61169D01*
X432169Y61066D01*
X432214Y60962D01*
X432254Y60856D01*
X432291Y60749D01*
X432324Y60641D01*
X432354Y60531D01*
X432379Y60421D01*
X432401Y60310D01*
X432418Y60198D01*
X432432Y60085D01*
X432442Y59972D01*
X432448Y59859D01*
X432450Y59746D01*
X432448Y59633D01*
X432442Y59520D01*
X432432Y59407D01*
X432418Y59294D01*
X432401Y59182D01*
X432379Y59071D01*
X432354Y58961D01*
X432324Y58851D01*
X432291Y58743D01*
X432254Y58636D01*
X432214Y58530D01*
X432169Y58426D01*
X432121Y58323D01*
X432070Y58222D01*
X432015Y58123D01*
X431957Y58026D01*
X431895Y57931D01*
X431830Y57838D01*
X431762Y57748D01*
X431691Y57660D01*
X431616Y57574D01*
X431539Y57491D01*
X431459Y57411D01*
X431376Y57334D01*
X431290Y57259D01*
X431202Y57188D01*
X431112Y57120D01*
X431019Y57055D01*
X430924Y56993D01*
X430827Y56935D01*
X430728Y56880D01*
X430627Y56829D01*
X430524Y56781D01*
X430420Y56736D01*
X430314Y56696D01*
X430207Y56659D01*
X430099Y56626D01*
X429989Y56596D01*
X429879Y56571D01*
X429768Y56549D01*
X429656Y56532D01*
X429543Y56518D01*
X429430Y56508D01*
X429317Y56502D01*
X429204Y56500D01*
X429204Y56501D02*
X425958Y56501D01*
X429853Y56501D02*
X432449Y51308D01*
X437314Y51308D02*
X441209Y51308D01*
X441308Y51310D01*
X441408Y51316D01*
X441507Y51325D01*
X441605Y51338D01*
X441703Y51355D01*
X441801Y51376D01*
X441897Y51401D01*
X441992Y51429D01*
X442086Y51461D01*
X442179Y51496D01*
X442271Y51535D01*
X442361Y51578D01*
X442449Y51623D01*
X442536Y51673D01*
X442620Y51725D01*
X442703Y51781D01*
X442783Y51839D01*
X442861Y51901D01*
X442936Y51966D01*
X443009Y52034D01*
X443079Y52104D01*
X443147Y52177D01*
X443212Y52252D01*
X443274Y52330D01*
X443332Y52410D01*
X443388Y52493D01*
X443440Y52577D01*
X443490Y52664D01*
X443535Y52752D01*
X443578Y52842D01*
X443617Y52934D01*
X443652Y53027D01*
X443684Y53121D01*
X443712Y53216D01*
X443737Y53312D01*
X443758Y53410D01*
X443775Y53508D01*
X443788Y53606D01*
X443797Y53705D01*
X443803Y53805D01*
X443805Y53904D01*
X443805Y55203D01*
X443803Y55302D01*
X443797Y55402D01*
X443788Y55501D01*
X443775Y55599D01*
X443758Y55697D01*
X443737Y55795D01*
X443712Y55891D01*
X443684Y55986D01*
X443652Y56080D01*
X443617Y56173D01*
X443578Y56265D01*
X443535Y56355D01*
X443490Y56443D01*
X443440Y56530D01*
X443388Y56614D01*
X443332Y56697D01*
X443274Y56777D01*
X443212Y56855D01*
X443147Y56930D01*
X443079Y57003D01*
X443009Y57073D01*
X442936Y57141D01*
X442861Y57206D01*
X442783Y57268D01*
X442703Y57326D01*
X442620Y57382D01*
X442536Y57434D01*
X442449Y57484D01*
X442361Y57529D01*
X442271Y57572D01*
X442179Y57611D01*
X442086Y57646D01*
X441992Y57678D01*
X441897Y57706D01*
X441801Y57731D01*
X441703Y57752D01*
X441605Y57769D01*
X441507Y57782D01*
X441408Y57791D01*
X441308Y57797D01*
X441209Y57799D01*
X437314Y57799D01*
X437314Y62992D01*
X443805Y62992D01*
X540258Y62992D02*
X540258Y51308D01*
X540258Y62992D02*
X543504Y62992D01*
X543617Y62990D01*
X543730Y62984D01*
X543843Y62974D01*
X543956Y62960D01*
X544068Y62943D01*
X544179Y62921D01*
X544289Y62896D01*
X544399Y62866D01*
X544507Y62833D01*
X544614Y62796D01*
X544720Y62756D01*
X544824Y62711D01*
X544927Y62663D01*
X545028Y62612D01*
X545127Y62557D01*
X545224Y62499D01*
X545319Y62437D01*
X545412Y62372D01*
X545502Y62304D01*
X545590Y62233D01*
X545676Y62158D01*
X545759Y62081D01*
X545839Y62001D01*
X545916Y61918D01*
X545991Y61832D01*
X546062Y61744D01*
X546130Y61654D01*
X546195Y61561D01*
X546257Y61466D01*
X546315Y61369D01*
X546370Y61270D01*
X546421Y61169D01*
X546469Y61066D01*
X546514Y60962D01*
X546554Y60856D01*
X546591Y60749D01*
X546624Y60641D01*
X546654Y60531D01*
X546679Y60421D01*
X546701Y60310D01*
X546718Y60198D01*
X546732Y60085D01*
X546742Y59972D01*
X546748Y59859D01*
X546750Y59746D01*
X546748Y59633D01*
X546742Y59520D01*
X546732Y59407D01*
X546718Y59294D01*
X546701Y59182D01*
X546679Y59071D01*
X546654Y58961D01*
X546624Y58851D01*
X546591Y58743D01*
X546554Y58636D01*
X546514Y58530D01*
X546469Y58426D01*
X546421Y58323D01*
X546370Y58222D01*
X546315Y58123D01*
X546257Y58026D01*
X546195Y57931D01*
X546130Y57838D01*
X546062Y57748D01*
X545991Y57660D01*
X545916Y57574D01*
X545839Y57491D01*
X545759Y57411D01*
X545676Y57334D01*
X545590Y57259D01*
X545502Y57188D01*
X545412Y57120D01*
X545319Y57055D01*
X545224Y56993D01*
X545127Y56935D01*
X545028Y56880D01*
X544927Y56829D01*
X544824Y56781D01*
X544720Y56736D01*
X544614Y56696D01*
X544507Y56659D01*
X544399Y56626D01*
X544289Y56596D01*
X544179Y56571D01*
X544068Y56549D01*
X543956Y56532D01*
X543843Y56518D01*
X543730Y56508D01*
X543617Y56502D01*
X543504Y56500D01*
X543504Y56501D02*
X540258Y56501D01*
X544153Y56501D02*
X546749Y51308D01*
X551614Y57799D02*
X555509Y57799D01*
X555608Y57797D01*
X555708Y57791D01*
X555807Y57782D01*
X555905Y57769D01*
X556003Y57752D01*
X556101Y57731D01*
X556197Y57706D01*
X556292Y57678D01*
X556386Y57646D01*
X556479Y57611D01*
X556571Y57572D01*
X556661Y57529D01*
X556749Y57484D01*
X556836Y57434D01*
X556920Y57382D01*
X557003Y57326D01*
X557083Y57268D01*
X557161Y57206D01*
X557236Y57141D01*
X557309Y57073D01*
X557379Y57003D01*
X557447Y56930D01*
X557512Y56855D01*
X557574Y56777D01*
X557632Y56697D01*
X557688Y56614D01*
X557740Y56530D01*
X557790Y56443D01*
X557835Y56355D01*
X557878Y56265D01*
X557917Y56173D01*
X557952Y56080D01*
X557984Y55986D01*
X558012Y55891D01*
X558037Y55795D01*
X558058Y55697D01*
X558075Y55599D01*
X558088Y55501D01*
X558097Y55402D01*
X558103Y55302D01*
X558105Y55203D01*
X558105Y54554D01*
X558106Y54554D02*
X558104Y54441D01*
X558098Y54328D01*
X558088Y54215D01*
X558074Y54102D01*
X558057Y53990D01*
X558035Y53879D01*
X558010Y53769D01*
X557980Y53659D01*
X557947Y53551D01*
X557910Y53444D01*
X557870Y53338D01*
X557825Y53234D01*
X557777Y53131D01*
X557726Y53030D01*
X557671Y52931D01*
X557613Y52834D01*
X557551Y52739D01*
X557486Y52646D01*
X557418Y52556D01*
X557347Y52468D01*
X557272Y52382D01*
X557195Y52299D01*
X557115Y52219D01*
X557032Y52142D01*
X556946Y52067D01*
X556858Y51996D01*
X556768Y51928D01*
X556675Y51863D01*
X556580Y51801D01*
X556483Y51743D01*
X556384Y51688D01*
X556283Y51637D01*
X556180Y51589D01*
X556076Y51544D01*
X555970Y51504D01*
X555863Y51467D01*
X555755Y51434D01*
X555645Y51404D01*
X555535Y51379D01*
X555424Y51357D01*
X555312Y51340D01*
X555199Y51326D01*
X555086Y51316D01*
X554973Y51310D01*
X554860Y51308D01*
X554747Y51310D01*
X554634Y51316D01*
X554521Y51326D01*
X554408Y51340D01*
X554296Y51357D01*
X554185Y51379D01*
X554075Y51404D01*
X553965Y51434D01*
X553857Y51467D01*
X553750Y51504D01*
X553644Y51544D01*
X553540Y51589D01*
X553437Y51637D01*
X553336Y51688D01*
X553237Y51743D01*
X553140Y51801D01*
X553045Y51863D01*
X552952Y51928D01*
X552862Y51996D01*
X552774Y52067D01*
X552688Y52142D01*
X552605Y52219D01*
X552525Y52299D01*
X552448Y52382D01*
X552373Y52468D01*
X552302Y52556D01*
X552234Y52646D01*
X552169Y52739D01*
X552107Y52834D01*
X552049Y52931D01*
X551994Y53030D01*
X551943Y53131D01*
X551895Y53234D01*
X551850Y53338D01*
X551810Y53444D01*
X551773Y53551D01*
X551740Y53659D01*
X551710Y53769D01*
X551685Y53879D01*
X551663Y53990D01*
X551646Y54102D01*
X551632Y54215D01*
X551622Y54328D01*
X551616Y54441D01*
X551614Y54554D01*
X551614Y57799D01*
X551616Y57942D01*
X551622Y58085D01*
X551632Y58228D01*
X551646Y58370D01*
X551663Y58512D01*
X551685Y58654D01*
X551710Y58795D01*
X551740Y58935D01*
X551773Y59074D01*
X551810Y59212D01*
X551851Y59349D01*
X551895Y59485D01*
X551944Y59620D01*
X551996Y59753D01*
X552051Y59885D01*
X552111Y60015D01*
X552174Y60144D01*
X552240Y60271D01*
X552310Y60395D01*
X552383Y60518D01*
X552460Y60639D01*
X552540Y60758D01*
X552623Y60874D01*
X552709Y60989D01*
X552798Y61100D01*
X552891Y61210D01*
X552986Y61316D01*
X553085Y61420D01*
X553186Y61521D01*
X553290Y61620D01*
X553396Y61715D01*
X553506Y61808D01*
X553617Y61897D01*
X553732Y61983D01*
X553848Y62066D01*
X553967Y62146D01*
X554088Y62223D01*
X554210Y62296D01*
X554335Y62366D01*
X554462Y62432D01*
X554591Y62495D01*
X554721Y62555D01*
X554853Y62610D01*
X554986Y62662D01*
X555121Y62711D01*
X555257Y62755D01*
X555394Y62796D01*
X555532Y62833D01*
X555671Y62866D01*
X555811Y62896D01*
X555952Y62921D01*
X556094Y62943D01*
X556236Y62960D01*
X556378Y62974D01*
X556521Y62984D01*
X556664Y62990D01*
X556807Y62992D01*
X654558Y62992D02*
X654558Y51308D01*
X654558Y62992D02*
X657804Y62992D01*
X657917Y62990D01*
X658030Y62984D01*
X658143Y62974D01*
X658256Y62960D01*
X658368Y62943D01*
X658479Y62921D01*
X658589Y62896D01*
X658699Y62866D01*
X658807Y62833D01*
X658914Y62796D01*
X659020Y62756D01*
X659124Y62711D01*
X659227Y62663D01*
X659328Y62612D01*
X659427Y62557D01*
X659524Y62499D01*
X659619Y62437D01*
X659712Y62372D01*
X659802Y62304D01*
X659890Y62233D01*
X659976Y62158D01*
X660059Y62081D01*
X660139Y62001D01*
X660216Y61918D01*
X660291Y61832D01*
X660362Y61744D01*
X660430Y61654D01*
X660495Y61561D01*
X660557Y61466D01*
X660615Y61369D01*
X660670Y61270D01*
X660721Y61169D01*
X660769Y61066D01*
X660814Y60962D01*
X660854Y60856D01*
X660891Y60749D01*
X660924Y60641D01*
X660954Y60531D01*
X660979Y60421D01*
X661001Y60310D01*
X661018Y60198D01*
X661032Y60085D01*
X661042Y59972D01*
X661048Y59859D01*
X661050Y59746D01*
X661048Y59633D01*
X661042Y59520D01*
X661032Y59407D01*
X661018Y59294D01*
X661001Y59182D01*
X660979Y59071D01*
X660954Y58961D01*
X660924Y58851D01*
X660891Y58743D01*
X660854Y58636D01*
X660814Y58530D01*
X660769Y58426D01*
X660721Y58323D01*
X660670Y58222D01*
X660615Y58123D01*
X660557Y58026D01*
X660495Y57931D01*
X660430Y57838D01*
X660362Y57748D01*
X660291Y57660D01*
X660216Y57574D01*
X660139Y57491D01*
X660059Y57411D01*
X659976Y57334D01*
X659890Y57259D01*
X659802Y57188D01*
X659712Y57120D01*
X659619Y57055D01*
X659524Y56993D01*
X659427Y56935D01*
X659328Y56880D01*
X659227Y56829D01*
X659124Y56781D01*
X659020Y56736D01*
X658914Y56696D01*
X658807Y56659D01*
X658699Y56626D01*
X658589Y56596D01*
X658479Y56571D01*
X658368Y56549D01*
X658256Y56532D01*
X658143Y56518D01*
X658030Y56508D01*
X657917Y56502D01*
X657804Y56500D01*
X657804Y56501D02*
X654558Y56501D01*
X658453Y56501D02*
X661049Y51308D01*
X665914Y61694D02*
X665914Y62992D01*
X672405Y62992D01*
X669160Y51308D01*
X768858Y51308D02*
X768858Y62992D01*
X772104Y62992D01*
X772217Y62990D01*
X772330Y62984D01*
X772443Y62974D01*
X772556Y62960D01*
X772668Y62943D01*
X772779Y62921D01*
X772889Y62896D01*
X772999Y62866D01*
X773107Y62833D01*
X773214Y62796D01*
X773320Y62756D01*
X773424Y62711D01*
X773527Y62663D01*
X773628Y62612D01*
X773727Y62557D01*
X773824Y62499D01*
X773919Y62437D01*
X774012Y62372D01*
X774102Y62304D01*
X774190Y62233D01*
X774276Y62158D01*
X774359Y62081D01*
X774439Y62001D01*
X774516Y61918D01*
X774591Y61832D01*
X774662Y61744D01*
X774730Y61654D01*
X774795Y61561D01*
X774857Y61466D01*
X774915Y61369D01*
X774970Y61270D01*
X775021Y61169D01*
X775069Y61066D01*
X775114Y60962D01*
X775154Y60856D01*
X775191Y60749D01*
X775224Y60641D01*
X775254Y60531D01*
X775279Y60421D01*
X775301Y60310D01*
X775318Y60198D01*
X775332Y60085D01*
X775342Y59972D01*
X775348Y59859D01*
X775350Y59746D01*
X775348Y59633D01*
X775342Y59520D01*
X775332Y59407D01*
X775318Y59294D01*
X775301Y59182D01*
X775279Y59071D01*
X775254Y58961D01*
X775224Y58851D01*
X775191Y58743D01*
X775154Y58636D01*
X775114Y58530D01*
X775069Y58426D01*
X775021Y58323D01*
X774970Y58222D01*
X774915Y58123D01*
X774857Y58026D01*
X774795Y57931D01*
X774730Y57838D01*
X774662Y57748D01*
X774591Y57660D01*
X774516Y57574D01*
X774439Y57491D01*
X774359Y57411D01*
X774276Y57334D01*
X774190Y57259D01*
X774102Y57188D01*
X774012Y57120D01*
X773919Y57055D01*
X773824Y56993D01*
X773727Y56935D01*
X773628Y56880D01*
X773527Y56829D01*
X773424Y56781D01*
X773320Y56736D01*
X773214Y56696D01*
X773107Y56659D01*
X772999Y56626D01*
X772889Y56596D01*
X772779Y56571D01*
X772668Y56549D01*
X772556Y56532D01*
X772443Y56518D01*
X772330Y56508D01*
X772217Y56502D01*
X772104Y56500D01*
X772104Y56501D02*
X768858Y56501D01*
X772753Y56501D02*
X775349Y51308D01*
X780214Y54554D02*
X780216Y54667D01*
X780222Y54780D01*
X780232Y54893D01*
X780246Y55006D01*
X780263Y55118D01*
X780285Y55229D01*
X780310Y55339D01*
X780340Y55449D01*
X780373Y55557D01*
X780410Y55664D01*
X780450Y55770D01*
X780495Y55874D01*
X780543Y55977D01*
X780594Y56078D01*
X780649Y56177D01*
X780707Y56274D01*
X780769Y56369D01*
X780834Y56462D01*
X780902Y56552D01*
X780973Y56640D01*
X781048Y56726D01*
X781125Y56809D01*
X781205Y56889D01*
X781288Y56966D01*
X781374Y57041D01*
X781462Y57112D01*
X781552Y57180D01*
X781645Y57245D01*
X781740Y57307D01*
X781837Y57365D01*
X781936Y57420D01*
X782037Y57471D01*
X782140Y57519D01*
X782244Y57564D01*
X782350Y57604D01*
X782457Y57641D01*
X782565Y57674D01*
X782675Y57704D01*
X782785Y57729D01*
X782896Y57751D01*
X783008Y57768D01*
X783121Y57782D01*
X783234Y57792D01*
X783347Y57798D01*
X783460Y57800D01*
X783573Y57798D01*
X783686Y57792D01*
X783799Y57782D01*
X783912Y57768D01*
X784024Y57751D01*
X784135Y57729D01*
X784245Y57704D01*
X784355Y57674D01*
X784463Y57641D01*
X784570Y57604D01*
X784676Y57564D01*
X784780Y57519D01*
X784883Y57471D01*
X784984Y57420D01*
X785083Y57365D01*
X785180Y57307D01*
X785275Y57245D01*
X785368Y57180D01*
X785458Y57112D01*
X785546Y57041D01*
X785632Y56966D01*
X785715Y56889D01*
X785795Y56809D01*
X785872Y56726D01*
X785947Y56640D01*
X786018Y56552D01*
X786086Y56462D01*
X786151Y56369D01*
X786213Y56274D01*
X786271Y56177D01*
X786326Y56078D01*
X786377Y55977D01*
X786425Y55874D01*
X786470Y55770D01*
X786510Y55664D01*
X786547Y55557D01*
X786580Y55449D01*
X786610Y55339D01*
X786635Y55229D01*
X786657Y55118D01*
X786674Y55006D01*
X786688Y54893D01*
X786698Y54780D01*
X786704Y54667D01*
X786706Y54554D01*
X786704Y54441D01*
X786698Y54328D01*
X786688Y54215D01*
X786674Y54102D01*
X786657Y53990D01*
X786635Y53879D01*
X786610Y53769D01*
X786580Y53659D01*
X786547Y53551D01*
X786510Y53444D01*
X786470Y53338D01*
X786425Y53234D01*
X786377Y53131D01*
X786326Y53030D01*
X786271Y52931D01*
X786213Y52834D01*
X786151Y52739D01*
X786086Y52646D01*
X786018Y52556D01*
X785947Y52468D01*
X785872Y52382D01*
X785795Y52299D01*
X785715Y52219D01*
X785632Y52142D01*
X785546Y52067D01*
X785458Y51996D01*
X785368Y51928D01*
X785275Y51863D01*
X785180Y51801D01*
X785083Y51743D01*
X784984Y51688D01*
X784883Y51637D01*
X784780Y51589D01*
X784676Y51544D01*
X784570Y51504D01*
X784463Y51467D01*
X784355Y51434D01*
X784245Y51404D01*
X784135Y51379D01*
X784024Y51357D01*
X783912Y51340D01*
X783799Y51326D01*
X783686Y51316D01*
X783573Y51310D01*
X783460Y51308D01*
X783347Y51310D01*
X783234Y51316D01*
X783121Y51326D01*
X783008Y51340D01*
X782896Y51357D01*
X782785Y51379D01*
X782675Y51404D01*
X782565Y51434D01*
X782457Y51467D01*
X782350Y51504D01*
X782244Y51544D01*
X782140Y51589D01*
X782037Y51637D01*
X781936Y51688D01*
X781837Y51743D01*
X781740Y51801D01*
X781645Y51863D01*
X781552Y51928D01*
X781462Y51996D01*
X781374Y52067D01*
X781288Y52142D01*
X781205Y52219D01*
X781125Y52299D01*
X781048Y52382D01*
X780973Y52468D01*
X780902Y52556D01*
X780834Y52646D01*
X780769Y52739D01*
X780707Y52834D01*
X780649Y52931D01*
X780594Y53030D01*
X780543Y53131D01*
X780495Y53234D01*
X780450Y53338D01*
X780410Y53444D01*
X780373Y53551D01*
X780340Y53659D01*
X780310Y53769D01*
X780285Y53879D01*
X780263Y53990D01*
X780246Y54102D01*
X780232Y54215D01*
X780222Y54328D01*
X780216Y54441D01*
X780214Y54554D01*
X780864Y60396D02*
X780866Y60497D01*
X780872Y60597D01*
X780882Y60697D01*
X780895Y60797D01*
X780913Y60896D01*
X780934Y60995D01*
X780959Y61092D01*
X780988Y61189D01*
X781021Y61284D01*
X781057Y61378D01*
X781097Y61470D01*
X781140Y61561D01*
X781187Y61650D01*
X781237Y61737D01*
X781291Y61823D01*
X781348Y61906D01*
X781408Y61986D01*
X781471Y62065D01*
X781538Y62141D01*
X781607Y62214D01*
X781679Y62284D01*
X781753Y62352D01*
X781830Y62417D01*
X781910Y62478D01*
X781992Y62537D01*
X782076Y62592D01*
X782162Y62644D01*
X782250Y62693D01*
X782340Y62738D01*
X782432Y62780D01*
X782525Y62818D01*
X782620Y62852D01*
X782715Y62883D01*
X782812Y62910D01*
X782910Y62933D01*
X783009Y62953D01*
X783109Y62968D01*
X783209Y62980D01*
X783309Y62988D01*
X783410Y62992D01*
X783510Y62992D01*
X783611Y62988D01*
X783711Y62980D01*
X783811Y62968D01*
X783911Y62953D01*
X784010Y62933D01*
X784108Y62910D01*
X784205Y62883D01*
X784300Y62852D01*
X784395Y62818D01*
X784488Y62780D01*
X784580Y62738D01*
X784670Y62693D01*
X784758Y62644D01*
X784844Y62592D01*
X784928Y62537D01*
X785010Y62478D01*
X785090Y62417D01*
X785167Y62352D01*
X785241Y62284D01*
X785313Y62214D01*
X785382Y62141D01*
X785449Y62065D01*
X785512Y61986D01*
X785572Y61906D01*
X785629Y61823D01*
X785683Y61737D01*
X785733Y61650D01*
X785780Y61561D01*
X785823Y61470D01*
X785863Y61378D01*
X785899Y61284D01*
X785932Y61189D01*
X785961Y61092D01*
X785986Y60995D01*
X786007Y60896D01*
X786025Y60797D01*
X786038Y60697D01*
X786048Y60597D01*
X786054Y60497D01*
X786056Y60396D01*
X786054Y60295D01*
X786048Y60195D01*
X786038Y60095D01*
X786025Y59995D01*
X786007Y59896D01*
X785986Y59797D01*
X785961Y59700D01*
X785932Y59603D01*
X785899Y59508D01*
X785863Y59414D01*
X785823Y59322D01*
X785780Y59231D01*
X785733Y59142D01*
X785683Y59055D01*
X785629Y58969D01*
X785572Y58886D01*
X785512Y58806D01*
X785449Y58727D01*
X785382Y58651D01*
X785313Y58578D01*
X785241Y58508D01*
X785167Y58440D01*
X785090Y58375D01*
X785010Y58314D01*
X784928Y58255D01*
X784844Y58200D01*
X784758Y58148D01*
X784670Y58099D01*
X784580Y58054D01*
X784488Y58012D01*
X784395Y57974D01*
X784300Y57940D01*
X784205Y57909D01*
X784108Y57882D01*
X784010Y57859D01*
X783911Y57839D01*
X783811Y57824D01*
X783711Y57812D01*
X783611Y57804D01*
X783510Y57800D01*
X783410Y57800D01*
X783309Y57804D01*
X783209Y57812D01*
X783109Y57824D01*
X783009Y57839D01*
X782910Y57859D01*
X782812Y57882D01*
X782715Y57909D01*
X782620Y57940D01*
X782525Y57974D01*
X782432Y58012D01*
X782340Y58054D01*
X782250Y58099D01*
X782162Y58148D01*
X782076Y58200D01*
X781992Y58255D01*
X781910Y58314D01*
X781830Y58375D01*
X781753Y58440D01*
X781679Y58508D01*
X781607Y58578D01*
X781538Y58651D01*
X781471Y58727D01*
X781408Y58806D01*
X781348Y58886D01*
X781291Y58969D01*
X781237Y59055D01*
X781187Y59142D01*
X781140Y59231D01*
X781097Y59322D01*
X781057Y59414D01*
X781021Y59508D01*
X780988Y59603D01*
X780959Y59700D01*
X780934Y59797D01*
X780913Y59896D01*
X780895Y59995D01*
X780882Y60095D01*
X780872Y60195D01*
X780866Y60295D01*
X780864Y60396D01*
X883158Y62992D02*
X883158Y51308D01*
X883158Y62992D02*
X886404Y62992D01*
X886517Y62990D01*
X886630Y62984D01*
X886743Y62974D01*
X886856Y62960D01*
X886968Y62943D01*
X887079Y62921D01*
X887189Y62896D01*
X887299Y62866D01*
X887407Y62833D01*
X887514Y62796D01*
X887620Y62756D01*
X887724Y62711D01*
X887827Y62663D01*
X887928Y62612D01*
X888027Y62557D01*
X888124Y62499D01*
X888219Y62437D01*
X888312Y62372D01*
X888402Y62304D01*
X888490Y62233D01*
X888576Y62158D01*
X888659Y62081D01*
X888739Y62001D01*
X888816Y61918D01*
X888891Y61832D01*
X888962Y61744D01*
X889030Y61654D01*
X889095Y61561D01*
X889157Y61466D01*
X889215Y61369D01*
X889270Y61270D01*
X889321Y61169D01*
X889369Y61066D01*
X889414Y60962D01*
X889454Y60856D01*
X889491Y60749D01*
X889524Y60641D01*
X889554Y60531D01*
X889579Y60421D01*
X889601Y60310D01*
X889618Y60198D01*
X889632Y60085D01*
X889642Y59972D01*
X889648Y59859D01*
X889650Y59746D01*
X889648Y59633D01*
X889642Y59520D01*
X889632Y59407D01*
X889618Y59294D01*
X889601Y59182D01*
X889579Y59071D01*
X889554Y58961D01*
X889524Y58851D01*
X889491Y58743D01*
X889454Y58636D01*
X889414Y58530D01*
X889369Y58426D01*
X889321Y58323D01*
X889270Y58222D01*
X889215Y58123D01*
X889157Y58026D01*
X889095Y57931D01*
X889030Y57838D01*
X888962Y57748D01*
X888891Y57660D01*
X888816Y57574D01*
X888739Y57491D01*
X888659Y57411D01*
X888576Y57334D01*
X888490Y57259D01*
X888402Y57188D01*
X888312Y57120D01*
X888219Y57055D01*
X888124Y56993D01*
X888027Y56935D01*
X887928Y56880D01*
X887827Y56829D01*
X887724Y56781D01*
X887620Y56736D01*
X887514Y56696D01*
X887407Y56659D01*
X887299Y56626D01*
X887189Y56596D01*
X887079Y56571D01*
X886968Y56549D01*
X886856Y56532D01*
X886743Y56518D01*
X886630Y56508D01*
X886517Y56502D01*
X886404Y56500D01*
X886404Y56501D02*
X883158Y56501D01*
X887053Y56501D02*
X889649Y51308D01*
X897111Y56501D02*
X901005Y56501D01*
X897111Y56501D02*
X897012Y56503D01*
X896912Y56509D01*
X896813Y56518D01*
X896715Y56531D01*
X896617Y56548D01*
X896519Y56569D01*
X896423Y56594D01*
X896328Y56622D01*
X896234Y56654D01*
X896141Y56689D01*
X896049Y56728D01*
X895959Y56771D01*
X895871Y56816D01*
X895784Y56866D01*
X895700Y56918D01*
X895617Y56974D01*
X895537Y57032D01*
X895459Y57094D01*
X895384Y57159D01*
X895311Y57227D01*
X895241Y57297D01*
X895173Y57370D01*
X895108Y57445D01*
X895046Y57523D01*
X894988Y57603D01*
X894932Y57686D01*
X894880Y57770D01*
X894830Y57857D01*
X894785Y57945D01*
X894742Y58035D01*
X894703Y58127D01*
X894668Y58220D01*
X894636Y58314D01*
X894608Y58409D01*
X894583Y58505D01*
X894562Y58603D01*
X894545Y58701D01*
X894532Y58799D01*
X894523Y58898D01*
X894517Y58998D01*
X894515Y59097D01*
X894514Y59097D02*
X894514Y59746D01*
X894516Y59859D01*
X894522Y59972D01*
X894532Y60085D01*
X894546Y60198D01*
X894563Y60310D01*
X894585Y60421D01*
X894610Y60531D01*
X894640Y60641D01*
X894673Y60749D01*
X894710Y60856D01*
X894750Y60962D01*
X894795Y61066D01*
X894843Y61169D01*
X894894Y61270D01*
X894949Y61369D01*
X895007Y61466D01*
X895069Y61561D01*
X895134Y61654D01*
X895202Y61744D01*
X895273Y61832D01*
X895348Y61918D01*
X895425Y62001D01*
X895505Y62081D01*
X895588Y62158D01*
X895674Y62233D01*
X895762Y62304D01*
X895852Y62372D01*
X895945Y62437D01*
X896040Y62499D01*
X896137Y62557D01*
X896236Y62612D01*
X896337Y62663D01*
X896440Y62711D01*
X896544Y62756D01*
X896650Y62796D01*
X896757Y62833D01*
X896865Y62866D01*
X896975Y62896D01*
X897085Y62921D01*
X897196Y62943D01*
X897308Y62960D01*
X897421Y62974D01*
X897534Y62984D01*
X897647Y62990D01*
X897760Y62992D01*
X897873Y62990D01*
X897986Y62984D01*
X898099Y62974D01*
X898212Y62960D01*
X898324Y62943D01*
X898435Y62921D01*
X898545Y62896D01*
X898655Y62866D01*
X898763Y62833D01*
X898870Y62796D01*
X898976Y62756D01*
X899080Y62711D01*
X899183Y62663D01*
X899284Y62612D01*
X899383Y62557D01*
X899480Y62499D01*
X899575Y62437D01*
X899668Y62372D01*
X899758Y62304D01*
X899846Y62233D01*
X899932Y62158D01*
X900015Y62081D01*
X900095Y62001D01*
X900172Y61918D01*
X900247Y61832D01*
X900318Y61744D01*
X900386Y61654D01*
X900451Y61561D01*
X900513Y61466D01*
X900571Y61369D01*
X900626Y61270D01*
X900677Y61169D01*
X900725Y61066D01*
X900770Y60962D01*
X900810Y60856D01*
X900847Y60749D01*
X900880Y60641D01*
X900910Y60531D01*
X900935Y60421D01*
X900957Y60310D01*
X900974Y60198D01*
X900988Y60085D01*
X900998Y59972D01*
X901004Y59859D01*
X901006Y59746D01*
X901005Y59746D02*
X901005Y56501D01*
X901006Y56501D02*
X901004Y56358D01*
X900998Y56215D01*
X900988Y56072D01*
X900974Y55930D01*
X900957Y55788D01*
X900935Y55646D01*
X900910Y55505D01*
X900880Y55365D01*
X900847Y55226D01*
X900810Y55088D01*
X900769Y54951D01*
X900725Y54815D01*
X900676Y54680D01*
X900624Y54547D01*
X900569Y54415D01*
X900509Y54285D01*
X900446Y54156D01*
X900380Y54029D01*
X900310Y53904D01*
X900237Y53782D01*
X900160Y53661D01*
X900080Y53542D01*
X899997Y53426D01*
X899911Y53311D01*
X899822Y53200D01*
X899729Y53090D01*
X899634Y52984D01*
X899535Y52880D01*
X899434Y52779D01*
X899330Y52680D01*
X899224Y52585D01*
X899114Y52492D01*
X899003Y52403D01*
X898888Y52317D01*
X898772Y52234D01*
X898653Y52154D01*
X898532Y52077D01*
X898410Y52004D01*
X898285Y51934D01*
X898158Y51868D01*
X898029Y51805D01*
X897899Y51745D01*
X897767Y51690D01*
X897634Y51638D01*
X897499Y51589D01*
X897363Y51545D01*
X897226Y51504D01*
X897088Y51467D01*
X896949Y51434D01*
X896809Y51404D01*
X896668Y51379D01*
X896526Y51357D01*
X896384Y51340D01*
X896242Y51326D01*
X896099Y51316D01*
X895956Y51310D01*
X895813Y51308D01*
D12*
X106200Y71600D02*
X46200Y71600D01*
X106200Y71600D02*
X106200Y131600D01*
X46200Y131600D01*
X46200Y71600D01*
X58700Y101600D02*
X58705Y102029D01*
X58721Y102459D01*
X58747Y102887D01*
X58784Y103315D01*
X58832Y103742D01*
X58889Y104168D01*
X58958Y104592D01*
X59036Y105014D01*
X59125Y105434D01*
X59224Y105852D01*
X59334Y106267D01*
X59454Y106680D01*
X59583Y107089D01*
X59723Y107496D01*
X59873Y107898D01*
X60032Y108297D01*
X60201Y108692D01*
X60380Y109082D01*
X60569Y109468D01*
X60766Y109849D01*
X60973Y110226D01*
X61190Y110597D01*
X61415Y110962D01*
X61649Y111322D01*
X61892Y111677D01*
X62144Y112025D01*
X62404Y112367D01*
X62672Y112702D01*
X62949Y113031D01*
X63233Y113352D01*
X63526Y113667D01*
X63826Y113974D01*
X64133Y114274D01*
X64448Y114567D01*
X64769Y114851D01*
X65098Y115128D01*
X65433Y115396D01*
X65775Y115656D01*
X66123Y115908D01*
X66478Y116151D01*
X66838Y116385D01*
X67203Y116610D01*
X67574Y116827D01*
X67951Y117034D01*
X68332Y117231D01*
X68718Y117420D01*
X69108Y117599D01*
X69503Y117768D01*
X69902Y117927D01*
X70304Y118077D01*
X70711Y118217D01*
X71120Y118346D01*
X71533Y118466D01*
X71948Y118576D01*
X72366Y118675D01*
X72786Y118764D01*
X73208Y118842D01*
X73632Y118911D01*
X74058Y118968D01*
X74485Y119016D01*
X74913Y119053D01*
X75341Y119079D01*
X75771Y119095D01*
X76200Y119100D01*
X76629Y119095D01*
X77059Y119079D01*
X77487Y119053D01*
X77915Y119016D01*
X78342Y118968D01*
X78768Y118911D01*
X79192Y118842D01*
X79614Y118764D01*
X80034Y118675D01*
X80452Y118576D01*
X80867Y118466D01*
X81280Y118346D01*
X81689Y118217D01*
X82096Y118077D01*
X82498Y117927D01*
X82897Y117768D01*
X83292Y117599D01*
X83682Y117420D01*
X84068Y117231D01*
X84449Y117034D01*
X84826Y116827D01*
X85197Y116610D01*
X85562Y116385D01*
X85922Y116151D01*
X86277Y115908D01*
X86625Y115656D01*
X86967Y115396D01*
X87302Y115128D01*
X87631Y114851D01*
X87952Y114567D01*
X88267Y114274D01*
X88574Y113974D01*
X88874Y113667D01*
X89167Y113352D01*
X89451Y113031D01*
X89728Y112702D01*
X89996Y112367D01*
X90256Y112025D01*
X90508Y111677D01*
X90751Y111322D01*
X90985Y110962D01*
X91210Y110597D01*
X91427Y110226D01*
X91634Y109849D01*
X91831Y109468D01*
X92020Y109082D01*
X92199Y108692D01*
X92368Y108297D01*
X92527Y107898D01*
X92677Y107496D01*
X92817Y107089D01*
X92946Y106680D01*
X93066Y106267D01*
X93176Y105852D01*
X93275Y105434D01*
X93364Y105014D01*
X93442Y104592D01*
X93511Y104168D01*
X93568Y103742D01*
X93616Y103315D01*
X93653Y102887D01*
X93679Y102459D01*
X93695Y102029D01*
X93700Y101600D01*
X93695Y101171D01*
X93679Y100741D01*
X93653Y100313D01*
X93616Y99885D01*
X93568Y99458D01*
X93511Y99032D01*
X93442Y98608D01*
X93364Y98186D01*
X93275Y97766D01*
X93176Y97348D01*
X93066Y96933D01*
X92946Y96520D01*
X92817Y96111D01*
X92677Y95704D01*
X92527Y95302D01*
X92368Y94903D01*
X92199Y94508D01*
X92020Y94118D01*
X91831Y93732D01*
X91634Y93351D01*
X91427Y92974D01*
X91210Y92603D01*
X90985Y92238D01*
X90751Y91878D01*
X90508Y91523D01*
X90256Y91175D01*
X89996Y90833D01*
X89728Y90498D01*
X89451Y90169D01*
X89167Y89848D01*
X88874Y89533D01*
X88574Y89226D01*
X88267Y88926D01*
X87952Y88633D01*
X87631Y88349D01*
X87302Y88072D01*
X86967Y87804D01*
X86625Y87544D01*
X86277Y87292D01*
X85922Y87049D01*
X85562Y86815D01*
X85197Y86590D01*
X84826Y86373D01*
X84449Y86166D01*
X84068Y85969D01*
X83682Y85780D01*
X83292Y85601D01*
X82897Y85432D01*
X82498Y85273D01*
X82096Y85123D01*
X81689Y84983D01*
X81280Y84854D01*
X80867Y84734D01*
X80452Y84624D01*
X80034Y84525D01*
X79614Y84436D01*
X79192Y84358D01*
X78768Y84289D01*
X78342Y84232D01*
X77915Y84184D01*
X77487Y84147D01*
X77059Y84121D01*
X76629Y84105D01*
X76200Y84100D01*
X75771Y84105D01*
X75341Y84121D01*
X74913Y84147D01*
X74485Y84184D01*
X74058Y84232D01*
X73632Y84289D01*
X73208Y84358D01*
X72786Y84436D01*
X72366Y84525D01*
X71948Y84624D01*
X71533Y84734D01*
X71120Y84854D01*
X70711Y84983D01*
X70304Y85123D01*
X69902Y85273D01*
X69503Y85432D01*
X69108Y85601D01*
X68718Y85780D01*
X68332Y85969D01*
X67951Y86166D01*
X67574Y86373D01*
X67203Y86590D01*
X66838Y86815D01*
X66478Y87049D01*
X66123Y87292D01*
X65775Y87544D01*
X65433Y87804D01*
X65098Y88072D01*
X64769Y88349D01*
X64448Y88633D01*
X64133Y88926D01*
X63826Y89226D01*
X63526Y89533D01*
X63233Y89848D01*
X62949Y90169D01*
X62672Y90498D01*
X62404Y90833D01*
X62144Y91175D01*
X61892Y91523D01*
X61649Y91878D01*
X61415Y92238D01*
X61190Y92603D01*
X60973Y92974D01*
X60766Y93351D01*
X60569Y93732D01*
X60380Y94118D01*
X60201Y94508D01*
X60032Y94903D01*
X59873Y95302D01*
X59723Y95704D01*
X59583Y96111D01*
X59454Y96520D01*
X59334Y96933D01*
X59224Y97348D01*
X59125Y97766D01*
X59036Y98186D01*
X58958Y98608D01*
X58889Y99032D01*
X58832Y99458D01*
X58784Y99885D01*
X58747Y100313D01*
X58721Y100741D01*
X58705Y101171D01*
X58700Y101600D01*
D13*
X70342Y133985D02*
X70407Y133987D01*
X70471Y133993D01*
X70535Y134003D01*
X70599Y134016D01*
X70661Y134034D01*
X70722Y134055D01*
X70782Y134079D01*
X70840Y134108D01*
X70897Y134140D01*
X70951Y134175D01*
X71003Y134213D01*
X71053Y134255D01*
X71100Y134299D01*
X71144Y134346D01*
X71186Y134396D01*
X71224Y134448D01*
X71259Y134502D01*
X71291Y134559D01*
X71320Y134617D01*
X71344Y134677D01*
X71365Y134738D01*
X71383Y134800D01*
X71396Y134864D01*
X71406Y134928D01*
X71412Y134992D01*
X71414Y135057D01*
X70342Y133985D02*
X70248Y133987D01*
X70154Y133993D01*
X70060Y134003D01*
X69967Y134016D01*
X69875Y134034D01*
X69783Y134055D01*
X69692Y134080D01*
X69602Y134109D01*
X69514Y134142D01*
X69427Y134178D01*
X69342Y134218D01*
X69258Y134261D01*
X69177Y134308D01*
X69097Y134358D01*
X69019Y134411D01*
X68944Y134468D01*
X68871Y134527D01*
X68801Y134590D01*
X68733Y134655D01*
X68867Y137739D02*
X68869Y137804D01*
X68875Y137868D01*
X68885Y137932D01*
X68898Y137996D01*
X68916Y138058D01*
X68937Y138119D01*
X68961Y138179D01*
X68990Y138237D01*
X69022Y138294D01*
X69057Y138348D01*
X69095Y138400D01*
X69137Y138450D01*
X69181Y138497D01*
X69228Y138541D01*
X69278Y138583D01*
X69330Y138621D01*
X69384Y138656D01*
X69441Y138688D01*
X69499Y138717D01*
X69559Y138741D01*
X69620Y138762D01*
X69682Y138780D01*
X69746Y138793D01*
X69810Y138803D01*
X69874Y138809D01*
X69939Y138811D01*
X70025Y138809D01*
X70111Y138804D01*
X70197Y138794D01*
X70282Y138781D01*
X70367Y138765D01*
X70451Y138745D01*
X70534Y138721D01*
X70616Y138694D01*
X70696Y138663D01*
X70776Y138629D01*
X70853Y138591D01*
X70929Y138550D01*
X71003Y138506D01*
X71075Y138459D01*
X71146Y138409D01*
X69403Y136801D02*
X69350Y136834D01*
X69299Y136871D01*
X69250Y136910D01*
X69203Y136952D01*
X69159Y136997D01*
X69118Y137044D01*
X69079Y137093D01*
X69043Y137145D01*
X69010Y137199D01*
X68981Y137254D01*
X68955Y137311D01*
X68932Y137370D01*
X68912Y137429D01*
X68896Y137490D01*
X68883Y137551D01*
X68874Y137614D01*
X68869Y137676D01*
X68867Y137739D01*
X70878Y135995D02*
X70931Y135962D01*
X70982Y135925D01*
X71031Y135886D01*
X71078Y135844D01*
X71122Y135799D01*
X71163Y135752D01*
X71202Y135703D01*
X71238Y135651D01*
X71271Y135597D01*
X71300Y135542D01*
X71326Y135485D01*
X71349Y135426D01*
X71369Y135367D01*
X71385Y135306D01*
X71398Y135245D01*
X71407Y135182D01*
X71412Y135120D01*
X71414Y135057D01*
X70878Y135996D02*
X69403Y136800D01*
X73964Y138811D02*
X75036Y133985D01*
X76109Y137202D01*
X77181Y133985D01*
X78253Y138811D01*
X80986Y137739D02*
X82326Y138811D01*
X82326Y133985D01*
X80986Y133985D02*
X83667Y133985D01*
D12*
X160500Y71600D02*
X220500Y71600D01*
X220500Y131600D01*
X160500Y131600D01*
X160500Y71600D01*
X173000Y101600D02*
X173005Y102029D01*
X173021Y102459D01*
X173047Y102887D01*
X173084Y103315D01*
X173132Y103742D01*
X173189Y104168D01*
X173258Y104592D01*
X173336Y105014D01*
X173425Y105434D01*
X173524Y105852D01*
X173634Y106267D01*
X173754Y106680D01*
X173883Y107089D01*
X174023Y107496D01*
X174173Y107898D01*
X174332Y108297D01*
X174501Y108692D01*
X174680Y109082D01*
X174869Y109468D01*
X175066Y109849D01*
X175273Y110226D01*
X175490Y110597D01*
X175715Y110962D01*
X175949Y111322D01*
X176192Y111677D01*
X176444Y112025D01*
X176704Y112367D01*
X176972Y112702D01*
X177249Y113031D01*
X177533Y113352D01*
X177826Y113667D01*
X178126Y113974D01*
X178433Y114274D01*
X178748Y114567D01*
X179069Y114851D01*
X179398Y115128D01*
X179733Y115396D01*
X180075Y115656D01*
X180423Y115908D01*
X180778Y116151D01*
X181138Y116385D01*
X181503Y116610D01*
X181874Y116827D01*
X182251Y117034D01*
X182632Y117231D01*
X183018Y117420D01*
X183408Y117599D01*
X183803Y117768D01*
X184202Y117927D01*
X184604Y118077D01*
X185011Y118217D01*
X185420Y118346D01*
X185833Y118466D01*
X186248Y118576D01*
X186666Y118675D01*
X187086Y118764D01*
X187508Y118842D01*
X187932Y118911D01*
X188358Y118968D01*
X188785Y119016D01*
X189213Y119053D01*
X189641Y119079D01*
X190071Y119095D01*
X190500Y119100D01*
X190929Y119095D01*
X191359Y119079D01*
X191787Y119053D01*
X192215Y119016D01*
X192642Y118968D01*
X193068Y118911D01*
X193492Y118842D01*
X193914Y118764D01*
X194334Y118675D01*
X194752Y118576D01*
X195167Y118466D01*
X195580Y118346D01*
X195989Y118217D01*
X196396Y118077D01*
X196798Y117927D01*
X197197Y117768D01*
X197592Y117599D01*
X197982Y117420D01*
X198368Y117231D01*
X198749Y117034D01*
X199126Y116827D01*
X199497Y116610D01*
X199862Y116385D01*
X200222Y116151D01*
X200577Y115908D01*
X200925Y115656D01*
X201267Y115396D01*
X201602Y115128D01*
X201931Y114851D01*
X202252Y114567D01*
X202567Y114274D01*
X202874Y113974D01*
X203174Y113667D01*
X203467Y113352D01*
X203751Y113031D01*
X204028Y112702D01*
X204296Y112367D01*
X204556Y112025D01*
X204808Y111677D01*
X205051Y111322D01*
X205285Y110962D01*
X205510Y110597D01*
X205727Y110226D01*
X205934Y109849D01*
X206131Y109468D01*
X206320Y109082D01*
X206499Y108692D01*
X206668Y108297D01*
X206827Y107898D01*
X206977Y107496D01*
X207117Y107089D01*
X207246Y106680D01*
X207366Y106267D01*
X207476Y105852D01*
X207575Y105434D01*
X207664Y105014D01*
X207742Y104592D01*
X207811Y104168D01*
X207868Y103742D01*
X207916Y103315D01*
X207953Y102887D01*
X207979Y102459D01*
X207995Y102029D01*
X208000Y101600D01*
X207995Y101171D01*
X207979Y100741D01*
X207953Y100313D01*
X207916Y99885D01*
X207868Y99458D01*
X207811Y99032D01*
X207742Y98608D01*
X207664Y98186D01*
X207575Y97766D01*
X207476Y97348D01*
X207366Y96933D01*
X207246Y96520D01*
X207117Y96111D01*
X206977Y95704D01*
X206827Y95302D01*
X206668Y94903D01*
X206499Y94508D01*
X206320Y94118D01*
X206131Y93732D01*
X205934Y93351D01*
X205727Y92974D01*
X205510Y92603D01*
X205285Y92238D01*
X205051Y91878D01*
X204808Y91523D01*
X204556Y91175D01*
X204296Y90833D01*
X204028Y90498D01*
X203751Y90169D01*
X203467Y89848D01*
X203174Y89533D01*
X202874Y89226D01*
X202567Y88926D01*
X202252Y88633D01*
X201931Y88349D01*
X201602Y88072D01*
X201267Y87804D01*
X200925Y87544D01*
X200577Y87292D01*
X200222Y87049D01*
X199862Y86815D01*
X199497Y86590D01*
X199126Y86373D01*
X198749Y86166D01*
X198368Y85969D01*
X197982Y85780D01*
X197592Y85601D01*
X197197Y85432D01*
X196798Y85273D01*
X196396Y85123D01*
X195989Y84983D01*
X195580Y84854D01*
X195167Y84734D01*
X194752Y84624D01*
X194334Y84525D01*
X193914Y84436D01*
X193492Y84358D01*
X193068Y84289D01*
X192642Y84232D01*
X192215Y84184D01*
X191787Y84147D01*
X191359Y84121D01*
X190929Y84105D01*
X190500Y84100D01*
X190071Y84105D01*
X189641Y84121D01*
X189213Y84147D01*
X188785Y84184D01*
X188358Y84232D01*
X187932Y84289D01*
X187508Y84358D01*
X187086Y84436D01*
X186666Y84525D01*
X186248Y84624D01*
X185833Y84734D01*
X185420Y84854D01*
X185011Y84983D01*
X184604Y85123D01*
X184202Y85273D01*
X183803Y85432D01*
X183408Y85601D01*
X183018Y85780D01*
X182632Y85969D01*
X182251Y86166D01*
X181874Y86373D01*
X181503Y86590D01*
X181138Y86815D01*
X180778Y87049D01*
X180423Y87292D01*
X180075Y87544D01*
X179733Y87804D01*
X179398Y88072D01*
X179069Y88349D01*
X178748Y88633D01*
X178433Y88926D01*
X178126Y89226D01*
X177826Y89533D01*
X177533Y89848D01*
X177249Y90169D01*
X176972Y90498D01*
X176704Y90833D01*
X176444Y91175D01*
X176192Y91523D01*
X175949Y91878D01*
X175715Y92238D01*
X175490Y92603D01*
X175273Y92974D01*
X175066Y93351D01*
X174869Y93732D01*
X174680Y94118D01*
X174501Y94508D01*
X174332Y94903D01*
X174173Y95302D01*
X174023Y95704D01*
X173883Y96111D01*
X173754Y96520D01*
X173634Y96933D01*
X173524Y97348D01*
X173425Y97766D01*
X173336Y98186D01*
X173258Y98608D01*
X173189Y99032D01*
X173132Y99458D01*
X173084Y99885D01*
X173047Y100313D01*
X173021Y100741D01*
X173005Y101171D01*
X173000Y101600D01*
D13*
X184642Y133985D02*
X184707Y133987D01*
X184771Y133993D01*
X184835Y134003D01*
X184899Y134016D01*
X184961Y134034D01*
X185022Y134055D01*
X185082Y134079D01*
X185140Y134108D01*
X185197Y134140D01*
X185251Y134175D01*
X185303Y134213D01*
X185353Y134255D01*
X185400Y134299D01*
X185444Y134346D01*
X185486Y134396D01*
X185524Y134448D01*
X185559Y134502D01*
X185591Y134559D01*
X185620Y134617D01*
X185644Y134677D01*
X185665Y134738D01*
X185683Y134800D01*
X185696Y134864D01*
X185706Y134928D01*
X185712Y134992D01*
X185714Y135057D01*
X184642Y133985D02*
X184548Y133987D01*
X184454Y133993D01*
X184360Y134003D01*
X184267Y134016D01*
X184175Y134034D01*
X184083Y134055D01*
X183992Y134080D01*
X183902Y134109D01*
X183814Y134142D01*
X183727Y134178D01*
X183642Y134218D01*
X183558Y134261D01*
X183477Y134308D01*
X183397Y134358D01*
X183319Y134411D01*
X183244Y134468D01*
X183171Y134527D01*
X183101Y134590D01*
X183033Y134655D01*
X183167Y137739D02*
X183169Y137804D01*
X183175Y137868D01*
X183185Y137932D01*
X183198Y137996D01*
X183216Y138058D01*
X183237Y138119D01*
X183261Y138179D01*
X183290Y138237D01*
X183322Y138294D01*
X183357Y138348D01*
X183395Y138400D01*
X183437Y138450D01*
X183481Y138497D01*
X183528Y138541D01*
X183578Y138583D01*
X183630Y138621D01*
X183684Y138656D01*
X183741Y138688D01*
X183799Y138717D01*
X183859Y138741D01*
X183920Y138762D01*
X183982Y138780D01*
X184046Y138793D01*
X184110Y138803D01*
X184174Y138809D01*
X184239Y138811D01*
X184325Y138809D01*
X184411Y138804D01*
X184497Y138794D01*
X184582Y138781D01*
X184667Y138765D01*
X184751Y138745D01*
X184834Y138721D01*
X184916Y138694D01*
X184996Y138663D01*
X185076Y138629D01*
X185153Y138591D01*
X185229Y138550D01*
X185303Y138506D01*
X185375Y138459D01*
X185446Y138409D01*
X183703Y136801D02*
X183650Y136834D01*
X183599Y136871D01*
X183550Y136910D01*
X183503Y136952D01*
X183459Y136997D01*
X183418Y137044D01*
X183379Y137093D01*
X183343Y137145D01*
X183310Y137199D01*
X183281Y137254D01*
X183255Y137311D01*
X183232Y137370D01*
X183212Y137429D01*
X183196Y137490D01*
X183183Y137551D01*
X183174Y137614D01*
X183169Y137676D01*
X183167Y137739D01*
X185178Y135995D02*
X185231Y135962D01*
X185282Y135925D01*
X185331Y135886D01*
X185378Y135844D01*
X185422Y135799D01*
X185463Y135752D01*
X185502Y135703D01*
X185538Y135651D01*
X185571Y135597D01*
X185600Y135542D01*
X185626Y135485D01*
X185649Y135426D01*
X185669Y135367D01*
X185685Y135306D01*
X185698Y135245D01*
X185707Y135182D01*
X185712Y135120D01*
X185714Y135057D01*
X185178Y135996D02*
X183703Y136800D01*
X188264Y138811D02*
X189336Y133985D01*
X190409Y137202D01*
X191481Y133985D01*
X192553Y138811D01*
X196761Y138811D02*
X196829Y138809D01*
X196896Y138803D01*
X196963Y138794D01*
X197030Y138781D01*
X197095Y138764D01*
X197160Y138743D01*
X197223Y138719D01*
X197285Y138691D01*
X197345Y138660D01*
X197403Y138626D01*
X197459Y138588D01*
X197514Y138548D01*
X197565Y138504D01*
X197614Y138457D01*
X197661Y138408D01*
X197705Y138357D01*
X197745Y138302D01*
X197783Y138246D01*
X197817Y138188D01*
X197848Y138128D01*
X197876Y138066D01*
X197900Y138003D01*
X197921Y137938D01*
X197938Y137873D01*
X197951Y137806D01*
X197960Y137739D01*
X197966Y137672D01*
X197968Y137604D01*
X196761Y138811D02*
X196683Y138809D01*
X196605Y138803D01*
X196528Y138793D01*
X196451Y138780D01*
X196375Y138762D01*
X196300Y138741D01*
X196226Y138716D01*
X196154Y138687D01*
X196083Y138655D01*
X196014Y138619D01*
X195946Y138580D01*
X195881Y138537D01*
X195818Y138491D01*
X195757Y138442D01*
X195699Y138390D01*
X195644Y138335D01*
X195591Y138278D01*
X195542Y138218D01*
X195495Y138155D01*
X195452Y138091D01*
X195412Y138024D01*
X195375Y137955D01*
X195342Y137884D01*
X195312Y137812D01*
X195286Y137739D01*
X197565Y136666D02*
X197614Y136715D01*
X197661Y136767D01*
X197704Y136822D01*
X197745Y136879D01*
X197783Y136938D01*
X197817Y136999D01*
X197848Y137062D01*
X197876Y137126D01*
X197900Y137192D01*
X197920Y137258D01*
X197937Y137326D01*
X197950Y137395D01*
X197959Y137464D01*
X197965Y137534D01*
X197967Y137604D01*
X197565Y136666D02*
X195286Y133985D01*
X197967Y133985D01*
D12*
X274800Y71600D02*
X334800Y71600D01*
X334800Y131600D01*
X274800Y131600D01*
X274800Y71600D01*
X287300Y101600D02*
X287305Y102029D01*
X287321Y102459D01*
X287347Y102887D01*
X287384Y103315D01*
X287432Y103742D01*
X287489Y104168D01*
X287558Y104592D01*
X287636Y105014D01*
X287725Y105434D01*
X287824Y105852D01*
X287934Y106267D01*
X288054Y106680D01*
X288183Y107089D01*
X288323Y107496D01*
X288473Y107898D01*
X288632Y108297D01*
X288801Y108692D01*
X288980Y109082D01*
X289169Y109468D01*
X289366Y109849D01*
X289573Y110226D01*
X289790Y110597D01*
X290015Y110962D01*
X290249Y111322D01*
X290492Y111677D01*
X290744Y112025D01*
X291004Y112367D01*
X291272Y112702D01*
X291549Y113031D01*
X291833Y113352D01*
X292126Y113667D01*
X292426Y113974D01*
X292733Y114274D01*
X293048Y114567D01*
X293369Y114851D01*
X293698Y115128D01*
X294033Y115396D01*
X294375Y115656D01*
X294723Y115908D01*
X295078Y116151D01*
X295438Y116385D01*
X295803Y116610D01*
X296174Y116827D01*
X296551Y117034D01*
X296932Y117231D01*
X297318Y117420D01*
X297708Y117599D01*
X298103Y117768D01*
X298502Y117927D01*
X298904Y118077D01*
X299311Y118217D01*
X299720Y118346D01*
X300133Y118466D01*
X300548Y118576D01*
X300966Y118675D01*
X301386Y118764D01*
X301808Y118842D01*
X302232Y118911D01*
X302658Y118968D01*
X303085Y119016D01*
X303513Y119053D01*
X303941Y119079D01*
X304371Y119095D01*
X304800Y119100D01*
X305229Y119095D01*
X305659Y119079D01*
X306087Y119053D01*
X306515Y119016D01*
X306942Y118968D01*
X307368Y118911D01*
X307792Y118842D01*
X308214Y118764D01*
X308634Y118675D01*
X309052Y118576D01*
X309467Y118466D01*
X309880Y118346D01*
X310289Y118217D01*
X310696Y118077D01*
X311098Y117927D01*
X311497Y117768D01*
X311892Y117599D01*
X312282Y117420D01*
X312668Y117231D01*
X313049Y117034D01*
X313426Y116827D01*
X313797Y116610D01*
X314162Y116385D01*
X314522Y116151D01*
X314877Y115908D01*
X315225Y115656D01*
X315567Y115396D01*
X315902Y115128D01*
X316231Y114851D01*
X316552Y114567D01*
X316867Y114274D01*
X317174Y113974D01*
X317474Y113667D01*
X317767Y113352D01*
X318051Y113031D01*
X318328Y112702D01*
X318596Y112367D01*
X318856Y112025D01*
X319108Y111677D01*
X319351Y111322D01*
X319585Y110962D01*
X319810Y110597D01*
X320027Y110226D01*
X320234Y109849D01*
X320431Y109468D01*
X320620Y109082D01*
X320799Y108692D01*
X320968Y108297D01*
X321127Y107898D01*
X321277Y107496D01*
X321417Y107089D01*
X321546Y106680D01*
X321666Y106267D01*
X321776Y105852D01*
X321875Y105434D01*
X321964Y105014D01*
X322042Y104592D01*
X322111Y104168D01*
X322168Y103742D01*
X322216Y103315D01*
X322253Y102887D01*
X322279Y102459D01*
X322295Y102029D01*
X322300Y101600D01*
X322295Y101171D01*
X322279Y100741D01*
X322253Y100313D01*
X322216Y99885D01*
X322168Y99458D01*
X322111Y99032D01*
X322042Y98608D01*
X321964Y98186D01*
X321875Y97766D01*
X321776Y97348D01*
X321666Y96933D01*
X321546Y96520D01*
X321417Y96111D01*
X321277Y95704D01*
X321127Y95302D01*
X320968Y94903D01*
X320799Y94508D01*
X320620Y94118D01*
X320431Y93732D01*
X320234Y93351D01*
X320027Y92974D01*
X319810Y92603D01*
X319585Y92238D01*
X319351Y91878D01*
X319108Y91523D01*
X318856Y91175D01*
X318596Y90833D01*
X318328Y90498D01*
X318051Y90169D01*
X317767Y89848D01*
X317474Y89533D01*
X317174Y89226D01*
X316867Y88926D01*
X316552Y88633D01*
X316231Y88349D01*
X315902Y88072D01*
X315567Y87804D01*
X315225Y87544D01*
X314877Y87292D01*
X314522Y87049D01*
X314162Y86815D01*
X313797Y86590D01*
X313426Y86373D01*
X313049Y86166D01*
X312668Y85969D01*
X312282Y85780D01*
X311892Y85601D01*
X311497Y85432D01*
X311098Y85273D01*
X310696Y85123D01*
X310289Y84983D01*
X309880Y84854D01*
X309467Y84734D01*
X309052Y84624D01*
X308634Y84525D01*
X308214Y84436D01*
X307792Y84358D01*
X307368Y84289D01*
X306942Y84232D01*
X306515Y84184D01*
X306087Y84147D01*
X305659Y84121D01*
X305229Y84105D01*
X304800Y84100D01*
X304371Y84105D01*
X303941Y84121D01*
X303513Y84147D01*
X303085Y84184D01*
X302658Y84232D01*
X302232Y84289D01*
X301808Y84358D01*
X301386Y84436D01*
X300966Y84525D01*
X300548Y84624D01*
X300133Y84734D01*
X299720Y84854D01*
X299311Y84983D01*
X298904Y85123D01*
X298502Y85273D01*
X298103Y85432D01*
X297708Y85601D01*
X297318Y85780D01*
X296932Y85969D01*
X296551Y86166D01*
X296174Y86373D01*
X295803Y86590D01*
X295438Y86815D01*
X295078Y87049D01*
X294723Y87292D01*
X294375Y87544D01*
X294033Y87804D01*
X293698Y88072D01*
X293369Y88349D01*
X293048Y88633D01*
X292733Y88926D01*
X292426Y89226D01*
X292126Y89533D01*
X291833Y89848D01*
X291549Y90169D01*
X291272Y90498D01*
X291004Y90833D01*
X290744Y91175D01*
X290492Y91523D01*
X290249Y91878D01*
X290015Y92238D01*
X289790Y92603D01*
X289573Y92974D01*
X289366Y93351D01*
X289169Y93732D01*
X288980Y94118D01*
X288801Y94508D01*
X288632Y94903D01*
X288473Y95302D01*
X288323Y95704D01*
X288183Y96111D01*
X288054Y96520D01*
X287934Y96933D01*
X287824Y97348D01*
X287725Y97766D01*
X287636Y98186D01*
X287558Y98608D01*
X287489Y99032D01*
X287432Y99458D01*
X287384Y99885D01*
X287347Y100313D01*
X287321Y100741D01*
X287305Y101171D01*
X287300Y101600D01*
D13*
X298942Y133985D02*
X299007Y133987D01*
X299071Y133993D01*
X299135Y134003D01*
X299199Y134016D01*
X299261Y134034D01*
X299322Y134055D01*
X299382Y134079D01*
X299440Y134108D01*
X299497Y134140D01*
X299551Y134175D01*
X299603Y134213D01*
X299653Y134255D01*
X299700Y134299D01*
X299744Y134346D01*
X299786Y134396D01*
X299824Y134448D01*
X299859Y134502D01*
X299891Y134559D01*
X299920Y134617D01*
X299944Y134677D01*
X299965Y134738D01*
X299983Y134800D01*
X299996Y134864D01*
X300006Y134928D01*
X300012Y134992D01*
X300014Y135057D01*
X298942Y133985D02*
X298848Y133987D01*
X298754Y133993D01*
X298660Y134003D01*
X298567Y134016D01*
X298475Y134034D01*
X298383Y134055D01*
X298292Y134080D01*
X298202Y134109D01*
X298114Y134142D01*
X298027Y134178D01*
X297942Y134218D01*
X297858Y134261D01*
X297777Y134308D01*
X297697Y134358D01*
X297619Y134411D01*
X297544Y134468D01*
X297471Y134527D01*
X297401Y134590D01*
X297333Y134655D01*
X297467Y137739D02*
X297469Y137804D01*
X297475Y137868D01*
X297485Y137932D01*
X297498Y137996D01*
X297516Y138058D01*
X297537Y138119D01*
X297561Y138179D01*
X297590Y138237D01*
X297622Y138294D01*
X297657Y138348D01*
X297695Y138400D01*
X297737Y138450D01*
X297781Y138497D01*
X297828Y138541D01*
X297878Y138583D01*
X297930Y138621D01*
X297984Y138656D01*
X298041Y138688D01*
X298099Y138717D01*
X298159Y138741D01*
X298220Y138762D01*
X298282Y138780D01*
X298346Y138793D01*
X298410Y138803D01*
X298474Y138809D01*
X298539Y138811D01*
X298625Y138809D01*
X298711Y138804D01*
X298797Y138794D01*
X298882Y138781D01*
X298967Y138765D01*
X299051Y138745D01*
X299134Y138721D01*
X299216Y138694D01*
X299296Y138663D01*
X299376Y138629D01*
X299453Y138591D01*
X299529Y138550D01*
X299603Y138506D01*
X299675Y138459D01*
X299746Y138409D01*
X298003Y136801D02*
X297950Y136834D01*
X297899Y136871D01*
X297850Y136910D01*
X297803Y136952D01*
X297759Y136997D01*
X297718Y137044D01*
X297679Y137093D01*
X297643Y137145D01*
X297610Y137199D01*
X297581Y137254D01*
X297555Y137311D01*
X297532Y137370D01*
X297512Y137429D01*
X297496Y137490D01*
X297483Y137551D01*
X297474Y137614D01*
X297469Y137676D01*
X297467Y137739D01*
X299478Y135995D02*
X299531Y135962D01*
X299582Y135925D01*
X299631Y135886D01*
X299678Y135844D01*
X299722Y135799D01*
X299763Y135752D01*
X299802Y135703D01*
X299838Y135651D01*
X299871Y135597D01*
X299900Y135542D01*
X299926Y135485D01*
X299949Y135426D01*
X299969Y135367D01*
X299985Y135306D01*
X299998Y135245D01*
X300007Y135182D01*
X300012Y135120D01*
X300014Y135057D01*
X299478Y135996D02*
X298003Y136800D01*
X302564Y138811D02*
X303636Y133985D01*
X304709Y137202D01*
X305781Y133985D01*
X306853Y138811D01*
X309586Y133985D02*
X310926Y133985D01*
X310997Y133987D01*
X311069Y133993D01*
X311139Y134002D01*
X311209Y134015D01*
X311279Y134032D01*
X311347Y134053D01*
X311414Y134077D01*
X311480Y134105D01*
X311544Y134136D01*
X311607Y134171D01*
X311667Y134209D01*
X311726Y134250D01*
X311782Y134294D01*
X311836Y134341D01*
X311887Y134390D01*
X311935Y134443D01*
X311981Y134498D01*
X312023Y134555D01*
X312063Y134615D01*
X312099Y134676D01*
X312132Y134740D01*
X312161Y134805D01*
X312187Y134871D01*
X312210Y134939D01*
X312229Y135008D01*
X312244Y135078D01*
X312255Y135148D01*
X312263Y135219D01*
X312267Y135290D01*
X312267Y135362D01*
X312263Y135433D01*
X312255Y135504D01*
X312244Y135574D01*
X312229Y135644D01*
X312210Y135713D01*
X312187Y135781D01*
X312161Y135847D01*
X312132Y135912D01*
X312099Y135976D01*
X312063Y136037D01*
X312023Y136097D01*
X311981Y136154D01*
X311935Y136209D01*
X311887Y136262D01*
X311836Y136311D01*
X311782Y136358D01*
X311726Y136402D01*
X311667Y136443D01*
X311607Y136481D01*
X311544Y136516D01*
X311480Y136547D01*
X311414Y136575D01*
X311347Y136599D01*
X311279Y136620D01*
X311209Y136637D01*
X311139Y136650D01*
X311069Y136659D01*
X310997Y136665D01*
X310926Y136667D01*
X311195Y138811D02*
X309586Y138811D01*
X311195Y138811D02*
X311260Y138809D01*
X311324Y138803D01*
X311388Y138793D01*
X311452Y138780D01*
X311514Y138762D01*
X311575Y138741D01*
X311635Y138717D01*
X311693Y138688D01*
X311750Y138656D01*
X311804Y138621D01*
X311856Y138583D01*
X311906Y138541D01*
X311953Y138497D01*
X311997Y138450D01*
X312039Y138400D01*
X312077Y138348D01*
X312112Y138294D01*
X312144Y138237D01*
X312173Y138179D01*
X312197Y138119D01*
X312218Y138058D01*
X312236Y137996D01*
X312249Y137932D01*
X312259Y137868D01*
X312265Y137804D01*
X312267Y137739D01*
X312265Y137674D01*
X312259Y137610D01*
X312249Y137546D01*
X312236Y137482D01*
X312218Y137420D01*
X312197Y137359D01*
X312173Y137299D01*
X312144Y137241D01*
X312112Y137184D01*
X312077Y137130D01*
X312039Y137078D01*
X311997Y137028D01*
X311953Y136981D01*
X311906Y136937D01*
X311856Y136895D01*
X311804Y136857D01*
X311750Y136822D01*
X311693Y136790D01*
X311635Y136761D01*
X311575Y136737D01*
X311514Y136716D01*
X311452Y136698D01*
X311388Y136685D01*
X311324Y136675D01*
X311260Y136669D01*
X311195Y136667D01*
X311195Y136666D02*
X310122Y136666D01*
D12*
X389100Y71600D02*
X449100Y71600D01*
X449100Y131600D01*
X389100Y131600D01*
X389100Y71600D01*
X401600Y101600D02*
X401605Y102029D01*
X401621Y102459D01*
X401647Y102887D01*
X401684Y103315D01*
X401732Y103742D01*
X401789Y104168D01*
X401858Y104592D01*
X401936Y105014D01*
X402025Y105434D01*
X402124Y105852D01*
X402234Y106267D01*
X402354Y106680D01*
X402483Y107089D01*
X402623Y107496D01*
X402773Y107898D01*
X402932Y108297D01*
X403101Y108692D01*
X403280Y109082D01*
X403469Y109468D01*
X403666Y109849D01*
X403873Y110226D01*
X404090Y110597D01*
X404315Y110962D01*
X404549Y111322D01*
X404792Y111677D01*
X405044Y112025D01*
X405304Y112367D01*
X405572Y112702D01*
X405849Y113031D01*
X406133Y113352D01*
X406426Y113667D01*
X406726Y113974D01*
X407033Y114274D01*
X407348Y114567D01*
X407669Y114851D01*
X407998Y115128D01*
X408333Y115396D01*
X408675Y115656D01*
X409023Y115908D01*
X409378Y116151D01*
X409738Y116385D01*
X410103Y116610D01*
X410474Y116827D01*
X410851Y117034D01*
X411232Y117231D01*
X411618Y117420D01*
X412008Y117599D01*
X412403Y117768D01*
X412802Y117927D01*
X413204Y118077D01*
X413611Y118217D01*
X414020Y118346D01*
X414433Y118466D01*
X414848Y118576D01*
X415266Y118675D01*
X415686Y118764D01*
X416108Y118842D01*
X416532Y118911D01*
X416958Y118968D01*
X417385Y119016D01*
X417813Y119053D01*
X418241Y119079D01*
X418671Y119095D01*
X419100Y119100D01*
X419529Y119095D01*
X419959Y119079D01*
X420387Y119053D01*
X420815Y119016D01*
X421242Y118968D01*
X421668Y118911D01*
X422092Y118842D01*
X422514Y118764D01*
X422934Y118675D01*
X423352Y118576D01*
X423767Y118466D01*
X424180Y118346D01*
X424589Y118217D01*
X424996Y118077D01*
X425398Y117927D01*
X425797Y117768D01*
X426192Y117599D01*
X426582Y117420D01*
X426968Y117231D01*
X427349Y117034D01*
X427726Y116827D01*
X428097Y116610D01*
X428462Y116385D01*
X428822Y116151D01*
X429177Y115908D01*
X429525Y115656D01*
X429867Y115396D01*
X430202Y115128D01*
X430531Y114851D01*
X430852Y114567D01*
X431167Y114274D01*
X431474Y113974D01*
X431774Y113667D01*
X432067Y113352D01*
X432351Y113031D01*
X432628Y112702D01*
X432896Y112367D01*
X433156Y112025D01*
X433408Y111677D01*
X433651Y111322D01*
X433885Y110962D01*
X434110Y110597D01*
X434327Y110226D01*
X434534Y109849D01*
X434731Y109468D01*
X434920Y109082D01*
X435099Y108692D01*
X435268Y108297D01*
X435427Y107898D01*
X435577Y107496D01*
X435717Y107089D01*
X435846Y106680D01*
X435966Y106267D01*
X436076Y105852D01*
X436175Y105434D01*
X436264Y105014D01*
X436342Y104592D01*
X436411Y104168D01*
X436468Y103742D01*
X436516Y103315D01*
X436553Y102887D01*
X436579Y102459D01*
X436595Y102029D01*
X436600Y101600D01*
X436595Y101171D01*
X436579Y100741D01*
X436553Y100313D01*
X436516Y99885D01*
X436468Y99458D01*
X436411Y99032D01*
X436342Y98608D01*
X436264Y98186D01*
X436175Y97766D01*
X436076Y97348D01*
X435966Y96933D01*
X435846Y96520D01*
X435717Y96111D01*
X435577Y95704D01*
X435427Y95302D01*
X435268Y94903D01*
X435099Y94508D01*
X434920Y94118D01*
X434731Y93732D01*
X434534Y93351D01*
X434327Y92974D01*
X434110Y92603D01*
X433885Y92238D01*
X433651Y91878D01*
X433408Y91523D01*
X433156Y91175D01*
X432896Y90833D01*
X432628Y90498D01*
X432351Y90169D01*
X432067Y89848D01*
X431774Y89533D01*
X431474Y89226D01*
X431167Y88926D01*
X430852Y88633D01*
X430531Y88349D01*
X430202Y88072D01*
X429867Y87804D01*
X429525Y87544D01*
X429177Y87292D01*
X428822Y87049D01*
X428462Y86815D01*
X428097Y86590D01*
X427726Y86373D01*
X427349Y86166D01*
X426968Y85969D01*
X426582Y85780D01*
X426192Y85601D01*
X425797Y85432D01*
X425398Y85273D01*
X424996Y85123D01*
X424589Y84983D01*
X424180Y84854D01*
X423767Y84734D01*
X423352Y84624D01*
X422934Y84525D01*
X422514Y84436D01*
X422092Y84358D01*
X421668Y84289D01*
X421242Y84232D01*
X420815Y84184D01*
X420387Y84147D01*
X419959Y84121D01*
X419529Y84105D01*
X419100Y84100D01*
X418671Y84105D01*
X418241Y84121D01*
X417813Y84147D01*
X417385Y84184D01*
X416958Y84232D01*
X416532Y84289D01*
X416108Y84358D01*
X415686Y84436D01*
X415266Y84525D01*
X414848Y84624D01*
X414433Y84734D01*
X414020Y84854D01*
X413611Y84983D01*
X413204Y85123D01*
X412802Y85273D01*
X412403Y85432D01*
X412008Y85601D01*
X411618Y85780D01*
X411232Y85969D01*
X410851Y86166D01*
X410474Y86373D01*
X410103Y86590D01*
X409738Y86815D01*
X409378Y87049D01*
X409023Y87292D01*
X408675Y87544D01*
X408333Y87804D01*
X407998Y88072D01*
X407669Y88349D01*
X407348Y88633D01*
X407033Y88926D01*
X406726Y89226D01*
X406426Y89533D01*
X406133Y89848D01*
X405849Y90169D01*
X405572Y90498D01*
X405304Y90833D01*
X405044Y91175D01*
X404792Y91523D01*
X404549Y91878D01*
X404315Y92238D01*
X404090Y92603D01*
X403873Y92974D01*
X403666Y93351D01*
X403469Y93732D01*
X403280Y94118D01*
X403101Y94508D01*
X402932Y94903D01*
X402773Y95302D01*
X402623Y95704D01*
X402483Y96111D01*
X402354Y96520D01*
X402234Y96933D01*
X402124Y97348D01*
X402025Y97766D01*
X401936Y98186D01*
X401858Y98608D01*
X401789Y99032D01*
X401732Y99458D01*
X401684Y99885D01*
X401647Y100313D01*
X401621Y100741D01*
X401605Y101171D01*
X401600Y101600D01*
D13*
X413242Y133985D02*
X413307Y133987D01*
X413371Y133993D01*
X413435Y134003D01*
X413499Y134016D01*
X413561Y134034D01*
X413622Y134055D01*
X413682Y134079D01*
X413740Y134108D01*
X413797Y134140D01*
X413851Y134175D01*
X413903Y134213D01*
X413953Y134255D01*
X414000Y134299D01*
X414044Y134346D01*
X414086Y134396D01*
X414124Y134448D01*
X414159Y134502D01*
X414191Y134559D01*
X414220Y134617D01*
X414244Y134677D01*
X414265Y134738D01*
X414283Y134800D01*
X414296Y134864D01*
X414306Y134928D01*
X414312Y134992D01*
X414314Y135057D01*
X413242Y133985D02*
X413148Y133987D01*
X413054Y133993D01*
X412960Y134003D01*
X412867Y134016D01*
X412775Y134034D01*
X412683Y134055D01*
X412592Y134080D01*
X412502Y134109D01*
X412414Y134142D01*
X412327Y134178D01*
X412242Y134218D01*
X412158Y134261D01*
X412077Y134308D01*
X411997Y134358D01*
X411919Y134411D01*
X411844Y134468D01*
X411771Y134527D01*
X411701Y134590D01*
X411633Y134655D01*
X411767Y137739D02*
X411769Y137804D01*
X411775Y137868D01*
X411785Y137932D01*
X411798Y137996D01*
X411816Y138058D01*
X411837Y138119D01*
X411861Y138179D01*
X411890Y138237D01*
X411922Y138294D01*
X411957Y138348D01*
X411995Y138400D01*
X412037Y138450D01*
X412081Y138497D01*
X412128Y138541D01*
X412178Y138583D01*
X412230Y138621D01*
X412284Y138656D01*
X412341Y138688D01*
X412399Y138717D01*
X412459Y138741D01*
X412520Y138762D01*
X412582Y138780D01*
X412646Y138793D01*
X412710Y138803D01*
X412774Y138809D01*
X412839Y138811D01*
X412925Y138809D01*
X413011Y138804D01*
X413097Y138794D01*
X413182Y138781D01*
X413267Y138765D01*
X413351Y138745D01*
X413434Y138721D01*
X413516Y138694D01*
X413596Y138663D01*
X413676Y138629D01*
X413753Y138591D01*
X413829Y138550D01*
X413903Y138506D01*
X413975Y138459D01*
X414046Y138409D01*
X412303Y136801D02*
X412250Y136834D01*
X412199Y136871D01*
X412150Y136910D01*
X412103Y136952D01*
X412059Y136997D01*
X412018Y137044D01*
X411979Y137093D01*
X411943Y137145D01*
X411910Y137199D01*
X411881Y137254D01*
X411855Y137311D01*
X411832Y137370D01*
X411812Y137429D01*
X411796Y137490D01*
X411783Y137551D01*
X411774Y137614D01*
X411769Y137676D01*
X411767Y137739D01*
X413778Y135995D02*
X413831Y135962D01*
X413882Y135925D01*
X413931Y135886D01*
X413978Y135844D01*
X414022Y135799D01*
X414063Y135752D01*
X414102Y135703D01*
X414138Y135651D01*
X414171Y135597D01*
X414200Y135542D01*
X414226Y135485D01*
X414249Y135426D01*
X414269Y135367D01*
X414285Y135306D01*
X414298Y135245D01*
X414307Y135182D01*
X414312Y135120D01*
X414314Y135057D01*
X413778Y135996D02*
X412303Y136800D01*
X416864Y138811D02*
X417936Y133985D01*
X419009Y137202D01*
X420081Y133985D01*
X421153Y138811D01*
X424958Y138811D02*
X423886Y135057D01*
X426567Y135057D01*
X425763Y136130D02*
X425763Y133985D01*
D12*
X503400Y71600D02*
X563400Y71600D01*
X563400Y131600D01*
X503400Y131600D01*
X503400Y71600D01*
X515900Y101600D02*
X515905Y102029D01*
X515921Y102459D01*
X515947Y102887D01*
X515984Y103315D01*
X516032Y103742D01*
X516089Y104168D01*
X516158Y104592D01*
X516236Y105014D01*
X516325Y105434D01*
X516424Y105852D01*
X516534Y106267D01*
X516654Y106680D01*
X516783Y107089D01*
X516923Y107496D01*
X517073Y107898D01*
X517232Y108297D01*
X517401Y108692D01*
X517580Y109082D01*
X517769Y109468D01*
X517966Y109849D01*
X518173Y110226D01*
X518390Y110597D01*
X518615Y110962D01*
X518849Y111322D01*
X519092Y111677D01*
X519344Y112025D01*
X519604Y112367D01*
X519872Y112702D01*
X520149Y113031D01*
X520433Y113352D01*
X520726Y113667D01*
X521026Y113974D01*
X521333Y114274D01*
X521648Y114567D01*
X521969Y114851D01*
X522298Y115128D01*
X522633Y115396D01*
X522975Y115656D01*
X523323Y115908D01*
X523678Y116151D01*
X524038Y116385D01*
X524403Y116610D01*
X524774Y116827D01*
X525151Y117034D01*
X525532Y117231D01*
X525918Y117420D01*
X526308Y117599D01*
X526703Y117768D01*
X527102Y117927D01*
X527504Y118077D01*
X527911Y118217D01*
X528320Y118346D01*
X528733Y118466D01*
X529148Y118576D01*
X529566Y118675D01*
X529986Y118764D01*
X530408Y118842D01*
X530832Y118911D01*
X531258Y118968D01*
X531685Y119016D01*
X532113Y119053D01*
X532541Y119079D01*
X532971Y119095D01*
X533400Y119100D01*
X533829Y119095D01*
X534259Y119079D01*
X534687Y119053D01*
X535115Y119016D01*
X535542Y118968D01*
X535968Y118911D01*
X536392Y118842D01*
X536814Y118764D01*
X537234Y118675D01*
X537652Y118576D01*
X538067Y118466D01*
X538480Y118346D01*
X538889Y118217D01*
X539296Y118077D01*
X539698Y117927D01*
X540097Y117768D01*
X540492Y117599D01*
X540882Y117420D01*
X541268Y117231D01*
X541649Y117034D01*
X542026Y116827D01*
X542397Y116610D01*
X542762Y116385D01*
X543122Y116151D01*
X543477Y115908D01*
X543825Y115656D01*
X544167Y115396D01*
X544502Y115128D01*
X544831Y114851D01*
X545152Y114567D01*
X545467Y114274D01*
X545774Y113974D01*
X546074Y113667D01*
X546367Y113352D01*
X546651Y113031D01*
X546928Y112702D01*
X547196Y112367D01*
X547456Y112025D01*
X547708Y111677D01*
X547951Y111322D01*
X548185Y110962D01*
X548410Y110597D01*
X548627Y110226D01*
X548834Y109849D01*
X549031Y109468D01*
X549220Y109082D01*
X549399Y108692D01*
X549568Y108297D01*
X549727Y107898D01*
X549877Y107496D01*
X550017Y107089D01*
X550146Y106680D01*
X550266Y106267D01*
X550376Y105852D01*
X550475Y105434D01*
X550564Y105014D01*
X550642Y104592D01*
X550711Y104168D01*
X550768Y103742D01*
X550816Y103315D01*
X550853Y102887D01*
X550879Y102459D01*
X550895Y102029D01*
X550900Y101600D01*
X550895Y101171D01*
X550879Y100741D01*
X550853Y100313D01*
X550816Y99885D01*
X550768Y99458D01*
X550711Y99032D01*
X550642Y98608D01*
X550564Y98186D01*
X550475Y97766D01*
X550376Y97348D01*
X550266Y96933D01*
X550146Y96520D01*
X550017Y96111D01*
X549877Y95704D01*
X549727Y95302D01*
X549568Y94903D01*
X549399Y94508D01*
X549220Y94118D01*
X549031Y93732D01*
X548834Y93351D01*
X548627Y92974D01*
X548410Y92603D01*
X548185Y92238D01*
X547951Y91878D01*
X547708Y91523D01*
X547456Y91175D01*
X547196Y90833D01*
X546928Y90498D01*
X546651Y90169D01*
X546367Y89848D01*
X546074Y89533D01*
X545774Y89226D01*
X545467Y88926D01*
X545152Y88633D01*
X544831Y88349D01*
X544502Y88072D01*
X544167Y87804D01*
X543825Y87544D01*
X543477Y87292D01*
X543122Y87049D01*
X542762Y86815D01*
X542397Y86590D01*
X542026Y86373D01*
X541649Y86166D01*
X541268Y85969D01*
X540882Y85780D01*
X540492Y85601D01*
X540097Y85432D01*
X539698Y85273D01*
X539296Y85123D01*
X538889Y84983D01*
X538480Y84854D01*
X538067Y84734D01*
X537652Y84624D01*
X537234Y84525D01*
X536814Y84436D01*
X536392Y84358D01*
X535968Y84289D01*
X535542Y84232D01*
X535115Y84184D01*
X534687Y84147D01*
X534259Y84121D01*
X533829Y84105D01*
X533400Y84100D01*
X532971Y84105D01*
X532541Y84121D01*
X532113Y84147D01*
X531685Y84184D01*
X531258Y84232D01*
X530832Y84289D01*
X530408Y84358D01*
X529986Y84436D01*
X529566Y84525D01*
X529148Y84624D01*
X528733Y84734D01*
X528320Y84854D01*
X527911Y84983D01*
X527504Y85123D01*
X527102Y85273D01*
X526703Y85432D01*
X526308Y85601D01*
X525918Y85780D01*
X525532Y85969D01*
X525151Y86166D01*
X524774Y86373D01*
X524403Y86590D01*
X524038Y86815D01*
X523678Y87049D01*
X523323Y87292D01*
X522975Y87544D01*
X522633Y87804D01*
X522298Y88072D01*
X521969Y88349D01*
X521648Y88633D01*
X521333Y88926D01*
X521026Y89226D01*
X520726Y89533D01*
X520433Y89848D01*
X520149Y90169D01*
X519872Y90498D01*
X519604Y90833D01*
X519344Y91175D01*
X519092Y91523D01*
X518849Y91878D01*
X518615Y92238D01*
X518390Y92603D01*
X518173Y92974D01*
X517966Y93351D01*
X517769Y93732D01*
X517580Y94118D01*
X517401Y94508D01*
X517232Y94903D01*
X517073Y95302D01*
X516923Y95704D01*
X516783Y96111D01*
X516654Y96520D01*
X516534Y96933D01*
X516424Y97348D01*
X516325Y97766D01*
X516236Y98186D01*
X516158Y98608D01*
X516089Y99032D01*
X516032Y99458D01*
X515984Y99885D01*
X515947Y100313D01*
X515921Y100741D01*
X515905Y101171D01*
X515900Y101600D01*
D13*
X527542Y133985D02*
X527607Y133987D01*
X527671Y133993D01*
X527735Y134003D01*
X527799Y134016D01*
X527861Y134034D01*
X527922Y134055D01*
X527982Y134079D01*
X528040Y134108D01*
X528097Y134140D01*
X528151Y134175D01*
X528203Y134213D01*
X528253Y134255D01*
X528300Y134299D01*
X528344Y134346D01*
X528386Y134396D01*
X528424Y134448D01*
X528459Y134502D01*
X528491Y134559D01*
X528520Y134617D01*
X528544Y134677D01*
X528565Y134738D01*
X528583Y134800D01*
X528596Y134864D01*
X528606Y134928D01*
X528612Y134992D01*
X528614Y135057D01*
X527542Y133985D02*
X527448Y133987D01*
X527354Y133993D01*
X527260Y134003D01*
X527167Y134016D01*
X527075Y134034D01*
X526983Y134055D01*
X526892Y134080D01*
X526802Y134109D01*
X526714Y134142D01*
X526627Y134178D01*
X526542Y134218D01*
X526458Y134261D01*
X526377Y134308D01*
X526297Y134358D01*
X526219Y134411D01*
X526144Y134468D01*
X526071Y134527D01*
X526001Y134590D01*
X525933Y134655D01*
X526067Y137739D02*
X526069Y137804D01*
X526075Y137868D01*
X526085Y137932D01*
X526098Y137996D01*
X526116Y138058D01*
X526137Y138119D01*
X526161Y138179D01*
X526190Y138237D01*
X526222Y138294D01*
X526257Y138348D01*
X526295Y138400D01*
X526337Y138450D01*
X526381Y138497D01*
X526428Y138541D01*
X526478Y138583D01*
X526530Y138621D01*
X526584Y138656D01*
X526641Y138688D01*
X526699Y138717D01*
X526759Y138741D01*
X526820Y138762D01*
X526882Y138780D01*
X526946Y138793D01*
X527010Y138803D01*
X527074Y138809D01*
X527139Y138811D01*
X527225Y138809D01*
X527311Y138804D01*
X527397Y138794D01*
X527482Y138781D01*
X527567Y138765D01*
X527651Y138745D01*
X527734Y138721D01*
X527816Y138694D01*
X527896Y138663D01*
X527976Y138629D01*
X528053Y138591D01*
X528129Y138550D01*
X528203Y138506D01*
X528275Y138459D01*
X528346Y138409D01*
X526603Y136801D02*
X526550Y136834D01*
X526499Y136871D01*
X526450Y136910D01*
X526403Y136952D01*
X526359Y136997D01*
X526318Y137044D01*
X526279Y137093D01*
X526243Y137145D01*
X526210Y137199D01*
X526181Y137254D01*
X526155Y137311D01*
X526132Y137370D01*
X526112Y137429D01*
X526096Y137490D01*
X526083Y137551D01*
X526074Y137614D01*
X526069Y137676D01*
X526067Y137739D01*
X528078Y135995D02*
X528131Y135962D01*
X528182Y135925D01*
X528231Y135886D01*
X528278Y135844D01*
X528322Y135799D01*
X528363Y135752D01*
X528402Y135703D01*
X528438Y135651D01*
X528471Y135597D01*
X528500Y135542D01*
X528526Y135485D01*
X528549Y135426D01*
X528569Y135367D01*
X528585Y135306D01*
X528598Y135245D01*
X528607Y135182D01*
X528612Y135120D01*
X528614Y135057D01*
X528078Y135996D02*
X526603Y136800D01*
X531164Y138811D02*
X532236Y133985D01*
X533309Y137202D01*
X534381Y133985D01*
X535453Y138811D01*
X538186Y133985D02*
X539795Y133985D01*
X539860Y133987D01*
X539924Y133993D01*
X539988Y134003D01*
X540052Y134016D01*
X540114Y134034D01*
X540175Y134055D01*
X540235Y134079D01*
X540293Y134108D01*
X540350Y134140D01*
X540404Y134175D01*
X540456Y134213D01*
X540506Y134255D01*
X540553Y134299D01*
X540597Y134346D01*
X540639Y134396D01*
X540677Y134448D01*
X540712Y134502D01*
X540744Y134559D01*
X540773Y134617D01*
X540797Y134677D01*
X540818Y134738D01*
X540836Y134800D01*
X540849Y134864D01*
X540859Y134928D01*
X540865Y134992D01*
X540867Y135057D01*
X540867Y135594D01*
X540865Y135659D01*
X540859Y135723D01*
X540849Y135787D01*
X540836Y135851D01*
X540818Y135913D01*
X540797Y135974D01*
X540773Y136034D01*
X540744Y136092D01*
X540712Y136149D01*
X540677Y136203D01*
X540639Y136255D01*
X540597Y136305D01*
X540553Y136352D01*
X540506Y136396D01*
X540456Y136438D01*
X540404Y136476D01*
X540350Y136511D01*
X540293Y136543D01*
X540235Y136572D01*
X540175Y136596D01*
X540114Y136617D01*
X540052Y136635D01*
X539988Y136648D01*
X539924Y136658D01*
X539860Y136664D01*
X539795Y136666D01*
X538186Y136666D01*
X538186Y138811D01*
X540867Y138811D01*
D12*
X617700Y71600D02*
X677700Y71600D01*
X677700Y131600D01*
X617700Y131600D01*
X617700Y71600D01*
X630200Y101600D02*
X630205Y102029D01*
X630221Y102459D01*
X630247Y102887D01*
X630284Y103315D01*
X630332Y103742D01*
X630389Y104168D01*
X630458Y104592D01*
X630536Y105014D01*
X630625Y105434D01*
X630724Y105852D01*
X630834Y106267D01*
X630954Y106680D01*
X631083Y107089D01*
X631223Y107496D01*
X631373Y107898D01*
X631532Y108297D01*
X631701Y108692D01*
X631880Y109082D01*
X632069Y109468D01*
X632266Y109849D01*
X632473Y110226D01*
X632690Y110597D01*
X632915Y110962D01*
X633149Y111322D01*
X633392Y111677D01*
X633644Y112025D01*
X633904Y112367D01*
X634172Y112702D01*
X634449Y113031D01*
X634733Y113352D01*
X635026Y113667D01*
X635326Y113974D01*
X635633Y114274D01*
X635948Y114567D01*
X636269Y114851D01*
X636598Y115128D01*
X636933Y115396D01*
X637275Y115656D01*
X637623Y115908D01*
X637978Y116151D01*
X638338Y116385D01*
X638703Y116610D01*
X639074Y116827D01*
X639451Y117034D01*
X639832Y117231D01*
X640218Y117420D01*
X640608Y117599D01*
X641003Y117768D01*
X641402Y117927D01*
X641804Y118077D01*
X642211Y118217D01*
X642620Y118346D01*
X643033Y118466D01*
X643448Y118576D01*
X643866Y118675D01*
X644286Y118764D01*
X644708Y118842D01*
X645132Y118911D01*
X645558Y118968D01*
X645985Y119016D01*
X646413Y119053D01*
X646841Y119079D01*
X647271Y119095D01*
X647700Y119100D01*
X648129Y119095D01*
X648559Y119079D01*
X648987Y119053D01*
X649415Y119016D01*
X649842Y118968D01*
X650268Y118911D01*
X650692Y118842D01*
X651114Y118764D01*
X651534Y118675D01*
X651952Y118576D01*
X652367Y118466D01*
X652780Y118346D01*
X653189Y118217D01*
X653596Y118077D01*
X653998Y117927D01*
X654397Y117768D01*
X654792Y117599D01*
X655182Y117420D01*
X655568Y117231D01*
X655949Y117034D01*
X656326Y116827D01*
X656697Y116610D01*
X657062Y116385D01*
X657422Y116151D01*
X657777Y115908D01*
X658125Y115656D01*
X658467Y115396D01*
X658802Y115128D01*
X659131Y114851D01*
X659452Y114567D01*
X659767Y114274D01*
X660074Y113974D01*
X660374Y113667D01*
X660667Y113352D01*
X660951Y113031D01*
X661228Y112702D01*
X661496Y112367D01*
X661756Y112025D01*
X662008Y111677D01*
X662251Y111322D01*
X662485Y110962D01*
X662710Y110597D01*
X662927Y110226D01*
X663134Y109849D01*
X663331Y109468D01*
X663520Y109082D01*
X663699Y108692D01*
X663868Y108297D01*
X664027Y107898D01*
X664177Y107496D01*
X664317Y107089D01*
X664446Y106680D01*
X664566Y106267D01*
X664676Y105852D01*
X664775Y105434D01*
X664864Y105014D01*
X664942Y104592D01*
X665011Y104168D01*
X665068Y103742D01*
X665116Y103315D01*
X665153Y102887D01*
X665179Y102459D01*
X665195Y102029D01*
X665200Y101600D01*
X665195Y101171D01*
X665179Y100741D01*
X665153Y100313D01*
X665116Y99885D01*
X665068Y99458D01*
X665011Y99032D01*
X664942Y98608D01*
X664864Y98186D01*
X664775Y97766D01*
X664676Y97348D01*
X664566Y96933D01*
X664446Y96520D01*
X664317Y96111D01*
X664177Y95704D01*
X664027Y95302D01*
X663868Y94903D01*
X663699Y94508D01*
X663520Y94118D01*
X663331Y93732D01*
X663134Y93351D01*
X662927Y92974D01*
X662710Y92603D01*
X662485Y92238D01*
X662251Y91878D01*
X662008Y91523D01*
X661756Y91175D01*
X661496Y90833D01*
X661228Y90498D01*
X660951Y90169D01*
X660667Y89848D01*
X660374Y89533D01*
X660074Y89226D01*
X659767Y88926D01*
X659452Y88633D01*
X659131Y88349D01*
X658802Y88072D01*
X658467Y87804D01*
X658125Y87544D01*
X657777Y87292D01*
X657422Y87049D01*
X657062Y86815D01*
X656697Y86590D01*
X656326Y86373D01*
X655949Y86166D01*
X655568Y85969D01*
X655182Y85780D01*
X654792Y85601D01*
X654397Y85432D01*
X653998Y85273D01*
X653596Y85123D01*
X653189Y84983D01*
X652780Y84854D01*
X652367Y84734D01*
X651952Y84624D01*
X651534Y84525D01*
X651114Y84436D01*
X650692Y84358D01*
X650268Y84289D01*
X649842Y84232D01*
X649415Y84184D01*
X648987Y84147D01*
X648559Y84121D01*
X648129Y84105D01*
X647700Y84100D01*
X647271Y84105D01*
X646841Y84121D01*
X646413Y84147D01*
X645985Y84184D01*
X645558Y84232D01*
X645132Y84289D01*
X644708Y84358D01*
X644286Y84436D01*
X643866Y84525D01*
X643448Y84624D01*
X643033Y84734D01*
X642620Y84854D01*
X642211Y84983D01*
X641804Y85123D01*
X641402Y85273D01*
X641003Y85432D01*
X640608Y85601D01*
X640218Y85780D01*
X639832Y85969D01*
X639451Y86166D01*
X639074Y86373D01*
X638703Y86590D01*
X638338Y86815D01*
X637978Y87049D01*
X637623Y87292D01*
X637275Y87544D01*
X636933Y87804D01*
X636598Y88072D01*
X636269Y88349D01*
X635948Y88633D01*
X635633Y88926D01*
X635326Y89226D01*
X635026Y89533D01*
X634733Y89848D01*
X634449Y90169D01*
X634172Y90498D01*
X633904Y90833D01*
X633644Y91175D01*
X633392Y91523D01*
X633149Y91878D01*
X632915Y92238D01*
X632690Y92603D01*
X632473Y92974D01*
X632266Y93351D01*
X632069Y93732D01*
X631880Y94118D01*
X631701Y94508D01*
X631532Y94903D01*
X631373Y95302D01*
X631223Y95704D01*
X631083Y96111D01*
X630954Y96520D01*
X630834Y96933D01*
X630724Y97348D01*
X630625Y97766D01*
X630536Y98186D01*
X630458Y98608D01*
X630389Y99032D01*
X630332Y99458D01*
X630284Y99885D01*
X630247Y100313D01*
X630221Y100741D01*
X630205Y101171D01*
X630200Y101600D01*
D13*
X641842Y133985D02*
X641907Y133987D01*
X641971Y133993D01*
X642035Y134003D01*
X642099Y134016D01*
X642161Y134034D01*
X642222Y134055D01*
X642282Y134079D01*
X642340Y134108D01*
X642397Y134140D01*
X642451Y134175D01*
X642503Y134213D01*
X642553Y134255D01*
X642600Y134299D01*
X642644Y134346D01*
X642686Y134396D01*
X642724Y134448D01*
X642759Y134502D01*
X642791Y134559D01*
X642820Y134617D01*
X642844Y134677D01*
X642865Y134738D01*
X642883Y134800D01*
X642896Y134864D01*
X642906Y134928D01*
X642912Y134992D01*
X642914Y135057D01*
X641842Y133985D02*
X641748Y133987D01*
X641654Y133993D01*
X641560Y134003D01*
X641467Y134016D01*
X641375Y134034D01*
X641283Y134055D01*
X641192Y134080D01*
X641102Y134109D01*
X641014Y134142D01*
X640927Y134178D01*
X640842Y134218D01*
X640758Y134261D01*
X640677Y134308D01*
X640597Y134358D01*
X640519Y134411D01*
X640444Y134468D01*
X640371Y134527D01*
X640301Y134590D01*
X640233Y134655D01*
X640367Y137739D02*
X640369Y137804D01*
X640375Y137868D01*
X640385Y137932D01*
X640398Y137996D01*
X640416Y138058D01*
X640437Y138119D01*
X640461Y138179D01*
X640490Y138237D01*
X640522Y138294D01*
X640557Y138348D01*
X640595Y138400D01*
X640637Y138450D01*
X640681Y138497D01*
X640728Y138541D01*
X640778Y138583D01*
X640830Y138621D01*
X640884Y138656D01*
X640941Y138688D01*
X640999Y138717D01*
X641059Y138741D01*
X641120Y138762D01*
X641182Y138780D01*
X641246Y138793D01*
X641310Y138803D01*
X641374Y138809D01*
X641439Y138811D01*
X641525Y138809D01*
X641611Y138804D01*
X641697Y138794D01*
X641782Y138781D01*
X641867Y138765D01*
X641951Y138745D01*
X642034Y138721D01*
X642116Y138694D01*
X642196Y138663D01*
X642276Y138629D01*
X642353Y138591D01*
X642429Y138550D01*
X642503Y138506D01*
X642575Y138459D01*
X642646Y138409D01*
X640903Y136801D02*
X640850Y136834D01*
X640799Y136871D01*
X640750Y136910D01*
X640703Y136952D01*
X640659Y136997D01*
X640618Y137044D01*
X640579Y137093D01*
X640543Y137145D01*
X640510Y137199D01*
X640481Y137254D01*
X640455Y137311D01*
X640432Y137370D01*
X640412Y137429D01*
X640396Y137490D01*
X640383Y137551D01*
X640374Y137614D01*
X640369Y137676D01*
X640367Y137739D01*
X642378Y135995D02*
X642431Y135962D01*
X642482Y135925D01*
X642531Y135886D01*
X642578Y135844D01*
X642622Y135799D01*
X642663Y135752D01*
X642702Y135703D01*
X642738Y135651D01*
X642771Y135597D01*
X642800Y135542D01*
X642826Y135485D01*
X642849Y135426D01*
X642869Y135367D01*
X642885Y135306D01*
X642898Y135245D01*
X642907Y135182D01*
X642912Y135120D01*
X642914Y135057D01*
X642378Y135996D02*
X640903Y136800D01*
X645464Y138811D02*
X646536Y133985D01*
X647609Y137202D01*
X648681Y133985D01*
X649753Y138811D01*
X652486Y136666D02*
X654095Y136666D01*
X654160Y136664D01*
X654224Y136658D01*
X654288Y136648D01*
X654352Y136635D01*
X654414Y136617D01*
X654475Y136596D01*
X654535Y136572D01*
X654593Y136543D01*
X654650Y136511D01*
X654704Y136476D01*
X654756Y136438D01*
X654806Y136396D01*
X654853Y136352D01*
X654897Y136305D01*
X654939Y136255D01*
X654977Y136203D01*
X655012Y136149D01*
X655044Y136092D01*
X655073Y136034D01*
X655097Y135974D01*
X655118Y135913D01*
X655136Y135851D01*
X655149Y135787D01*
X655159Y135723D01*
X655165Y135659D01*
X655167Y135594D01*
X655167Y135326D01*
X655165Y135255D01*
X655159Y135183D01*
X655150Y135113D01*
X655137Y135043D01*
X655120Y134973D01*
X655099Y134905D01*
X655075Y134838D01*
X655047Y134772D01*
X655016Y134708D01*
X654981Y134645D01*
X654943Y134585D01*
X654902Y134526D01*
X654858Y134470D01*
X654811Y134416D01*
X654762Y134365D01*
X654709Y134317D01*
X654654Y134271D01*
X654597Y134229D01*
X654537Y134189D01*
X654476Y134153D01*
X654412Y134120D01*
X654347Y134091D01*
X654281Y134065D01*
X654213Y134042D01*
X654144Y134023D01*
X654074Y134008D01*
X654004Y133997D01*
X653933Y133989D01*
X653862Y133985D01*
X653790Y133985D01*
X653719Y133989D01*
X653648Y133997D01*
X653578Y134008D01*
X653508Y134023D01*
X653439Y134042D01*
X653371Y134065D01*
X653305Y134091D01*
X653240Y134120D01*
X653176Y134153D01*
X653115Y134189D01*
X653055Y134229D01*
X652998Y134271D01*
X652943Y134317D01*
X652890Y134365D01*
X652841Y134416D01*
X652794Y134470D01*
X652750Y134526D01*
X652709Y134585D01*
X652671Y134645D01*
X652636Y134708D01*
X652605Y134772D01*
X652577Y134838D01*
X652553Y134905D01*
X652532Y134973D01*
X652515Y135043D01*
X652502Y135113D01*
X652493Y135183D01*
X652487Y135255D01*
X652485Y135326D01*
X652486Y135326D02*
X652486Y136666D01*
X652488Y136757D01*
X652494Y136848D01*
X652503Y136938D01*
X652517Y137029D01*
X652534Y137118D01*
X652555Y137206D01*
X652580Y137294D01*
X652609Y137381D01*
X652641Y137466D01*
X652676Y137550D01*
X652716Y137632D01*
X652758Y137712D01*
X652804Y137791D01*
X652854Y137867D01*
X652906Y137941D01*
X652962Y138014D01*
X653021Y138083D01*
X653082Y138150D01*
X653147Y138215D01*
X653214Y138276D01*
X653283Y138335D01*
X653355Y138391D01*
X653430Y138443D01*
X653506Y138493D01*
X653585Y138539D01*
X653665Y138581D01*
X653747Y138621D01*
X653831Y138656D01*
X653916Y138688D01*
X654003Y138717D01*
X654090Y138742D01*
X654179Y138763D01*
X654268Y138780D01*
X654359Y138794D01*
X654449Y138803D01*
X654540Y138809D01*
X654631Y138811D01*
D12*
X732000Y71600D02*
X792000Y71600D01*
X792000Y131600D01*
X732000Y131600D01*
X732000Y71600D01*
X744500Y101600D02*
X744505Y102029D01*
X744521Y102459D01*
X744547Y102887D01*
X744584Y103315D01*
X744632Y103742D01*
X744689Y104168D01*
X744758Y104592D01*
X744836Y105014D01*
X744925Y105434D01*
X745024Y105852D01*
X745134Y106267D01*
X745254Y106680D01*
X745383Y107089D01*
X745523Y107496D01*
X745673Y107898D01*
X745832Y108297D01*
X746001Y108692D01*
X746180Y109082D01*
X746369Y109468D01*
X746566Y109849D01*
X746773Y110226D01*
X746990Y110597D01*
X747215Y110962D01*
X747449Y111322D01*
X747692Y111677D01*
X747944Y112025D01*
X748204Y112367D01*
X748472Y112702D01*
X748749Y113031D01*
X749033Y113352D01*
X749326Y113667D01*
X749626Y113974D01*
X749933Y114274D01*
X750248Y114567D01*
X750569Y114851D01*
X750898Y115128D01*
X751233Y115396D01*
X751575Y115656D01*
X751923Y115908D01*
X752278Y116151D01*
X752638Y116385D01*
X753003Y116610D01*
X753374Y116827D01*
X753751Y117034D01*
X754132Y117231D01*
X754518Y117420D01*
X754908Y117599D01*
X755303Y117768D01*
X755702Y117927D01*
X756104Y118077D01*
X756511Y118217D01*
X756920Y118346D01*
X757333Y118466D01*
X757748Y118576D01*
X758166Y118675D01*
X758586Y118764D01*
X759008Y118842D01*
X759432Y118911D01*
X759858Y118968D01*
X760285Y119016D01*
X760713Y119053D01*
X761141Y119079D01*
X761571Y119095D01*
X762000Y119100D01*
X762429Y119095D01*
X762859Y119079D01*
X763287Y119053D01*
X763715Y119016D01*
X764142Y118968D01*
X764568Y118911D01*
X764992Y118842D01*
X765414Y118764D01*
X765834Y118675D01*
X766252Y118576D01*
X766667Y118466D01*
X767080Y118346D01*
X767489Y118217D01*
X767896Y118077D01*
X768298Y117927D01*
X768697Y117768D01*
X769092Y117599D01*
X769482Y117420D01*
X769868Y117231D01*
X770249Y117034D01*
X770626Y116827D01*
X770997Y116610D01*
X771362Y116385D01*
X771722Y116151D01*
X772077Y115908D01*
X772425Y115656D01*
X772767Y115396D01*
X773102Y115128D01*
X773431Y114851D01*
X773752Y114567D01*
X774067Y114274D01*
X774374Y113974D01*
X774674Y113667D01*
X774967Y113352D01*
X775251Y113031D01*
X775528Y112702D01*
X775796Y112367D01*
X776056Y112025D01*
X776308Y111677D01*
X776551Y111322D01*
X776785Y110962D01*
X777010Y110597D01*
X777227Y110226D01*
X777434Y109849D01*
X777631Y109468D01*
X777820Y109082D01*
X777999Y108692D01*
X778168Y108297D01*
X778327Y107898D01*
X778477Y107496D01*
X778617Y107089D01*
X778746Y106680D01*
X778866Y106267D01*
X778976Y105852D01*
X779075Y105434D01*
X779164Y105014D01*
X779242Y104592D01*
X779311Y104168D01*
X779368Y103742D01*
X779416Y103315D01*
X779453Y102887D01*
X779479Y102459D01*
X779495Y102029D01*
X779500Y101600D01*
X779495Y101171D01*
X779479Y100741D01*
X779453Y100313D01*
X779416Y99885D01*
X779368Y99458D01*
X779311Y99032D01*
X779242Y98608D01*
X779164Y98186D01*
X779075Y97766D01*
X778976Y97348D01*
X778866Y96933D01*
X778746Y96520D01*
X778617Y96111D01*
X778477Y95704D01*
X778327Y95302D01*
X778168Y94903D01*
X777999Y94508D01*
X777820Y94118D01*
X777631Y93732D01*
X777434Y93351D01*
X777227Y92974D01*
X777010Y92603D01*
X776785Y92238D01*
X776551Y91878D01*
X776308Y91523D01*
X776056Y91175D01*
X775796Y90833D01*
X775528Y90498D01*
X775251Y90169D01*
X774967Y89848D01*
X774674Y89533D01*
X774374Y89226D01*
X774067Y88926D01*
X773752Y88633D01*
X773431Y88349D01*
X773102Y88072D01*
X772767Y87804D01*
X772425Y87544D01*
X772077Y87292D01*
X771722Y87049D01*
X771362Y86815D01*
X770997Y86590D01*
X770626Y86373D01*
X770249Y86166D01*
X769868Y85969D01*
X769482Y85780D01*
X769092Y85601D01*
X768697Y85432D01*
X768298Y85273D01*
X767896Y85123D01*
X767489Y84983D01*
X767080Y84854D01*
X766667Y84734D01*
X766252Y84624D01*
X765834Y84525D01*
X765414Y84436D01*
X764992Y84358D01*
X764568Y84289D01*
X764142Y84232D01*
X763715Y84184D01*
X763287Y84147D01*
X762859Y84121D01*
X762429Y84105D01*
X762000Y84100D01*
X761571Y84105D01*
X761141Y84121D01*
X760713Y84147D01*
X760285Y84184D01*
X759858Y84232D01*
X759432Y84289D01*
X759008Y84358D01*
X758586Y84436D01*
X758166Y84525D01*
X757748Y84624D01*
X757333Y84734D01*
X756920Y84854D01*
X756511Y84983D01*
X756104Y85123D01*
X755702Y85273D01*
X755303Y85432D01*
X754908Y85601D01*
X754518Y85780D01*
X754132Y85969D01*
X753751Y86166D01*
X753374Y86373D01*
X753003Y86590D01*
X752638Y86815D01*
X752278Y87049D01*
X751923Y87292D01*
X751575Y87544D01*
X751233Y87804D01*
X750898Y88072D01*
X750569Y88349D01*
X750248Y88633D01*
X749933Y88926D01*
X749626Y89226D01*
X749326Y89533D01*
X749033Y89848D01*
X748749Y90169D01*
X748472Y90498D01*
X748204Y90833D01*
X747944Y91175D01*
X747692Y91523D01*
X747449Y91878D01*
X747215Y92238D01*
X746990Y92603D01*
X746773Y92974D01*
X746566Y93351D01*
X746369Y93732D01*
X746180Y94118D01*
X746001Y94508D01*
X745832Y94903D01*
X745673Y95302D01*
X745523Y95704D01*
X745383Y96111D01*
X745254Y96520D01*
X745134Y96933D01*
X745024Y97348D01*
X744925Y97766D01*
X744836Y98186D01*
X744758Y98608D01*
X744689Y99032D01*
X744632Y99458D01*
X744584Y99885D01*
X744547Y100313D01*
X744521Y100741D01*
X744505Y101171D01*
X744500Y101600D01*
D13*
X756142Y133985D02*
X756207Y133987D01*
X756271Y133993D01*
X756335Y134003D01*
X756399Y134016D01*
X756461Y134034D01*
X756522Y134055D01*
X756582Y134079D01*
X756640Y134108D01*
X756697Y134140D01*
X756751Y134175D01*
X756803Y134213D01*
X756853Y134255D01*
X756900Y134299D01*
X756944Y134346D01*
X756986Y134396D01*
X757024Y134448D01*
X757059Y134502D01*
X757091Y134559D01*
X757120Y134617D01*
X757144Y134677D01*
X757165Y134738D01*
X757183Y134800D01*
X757196Y134864D01*
X757206Y134928D01*
X757212Y134992D01*
X757214Y135057D01*
X756142Y133985D02*
X756048Y133987D01*
X755954Y133993D01*
X755860Y134003D01*
X755767Y134016D01*
X755675Y134034D01*
X755583Y134055D01*
X755492Y134080D01*
X755402Y134109D01*
X755314Y134142D01*
X755227Y134178D01*
X755142Y134218D01*
X755058Y134261D01*
X754977Y134308D01*
X754897Y134358D01*
X754819Y134411D01*
X754744Y134468D01*
X754671Y134527D01*
X754601Y134590D01*
X754533Y134655D01*
X754667Y137739D02*
X754669Y137804D01*
X754675Y137868D01*
X754685Y137932D01*
X754698Y137996D01*
X754716Y138058D01*
X754737Y138119D01*
X754761Y138179D01*
X754790Y138237D01*
X754822Y138294D01*
X754857Y138348D01*
X754895Y138400D01*
X754937Y138450D01*
X754981Y138497D01*
X755028Y138541D01*
X755078Y138583D01*
X755130Y138621D01*
X755184Y138656D01*
X755241Y138688D01*
X755299Y138717D01*
X755359Y138741D01*
X755420Y138762D01*
X755482Y138780D01*
X755546Y138793D01*
X755610Y138803D01*
X755674Y138809D01*
X755739Y138811D01*
X755825Y138809D01*
X755911Y138804D01*
X755997Y138794D01*
X756082Y138781D01*
X756167Y138765D01*
X756251Y138745D01*
X756334Y138721D01*
X756416Y138694D01*
X756496Y138663D01*
X756576Y138629D01*
X756653Y138591D01*
X756729Y138550D01*
X756803Y138506D01*
X756875Y138459D01*
X756946Y138409D01*
X755203Y136801D02*
X755150Y136834D01*
X755099Y136871D01*
X755050Y136910D01*
X755003Y136952D01*
X754959Y136997D01*
X754918Y137044D01*
X754879Y137093D01*
X754843Y137145D01*
X754810Y137199D01*
X754781Y137254D01*
X754755Y137311D01*
X754732Y137370D01*
X754712Y137429D01*
X754696Y137490D01*
X754683Y137551D01*
X754674Y137614D01*
X754669Y137676D01*
X754667Y137739D01*
X756678Y135995D02*
X756731Y135962D01*
X756782Y135925D01*
X756831Y135886D01*
X756878Y135844D01*
X756922Y135799D01*
X756963Y135752D01*
X757002Y135703D01*
X757038Y135651D01*
X757071Y135597D01*
X757100Y135542D01*
X757126Y135485D01*
X757149Y135426D01*
X757169Y135367D01*
X757185Y135306D01*
X757198Y135245D01*
X757207Y135182D01*
X757212Y135120D01*
X757214Y135057D01*
X756678Y135996D02*
X755203Y136800D01*
X759764Y138811D02*
X760836Y133985D01*
X761909Y137202D01*
X762981Y133985D01*
X764053Y138811D01*
X766786Y138811D02*
X766786Y138275D01*
X766786Y138811D02*
X769467Y138811D01*
X768126Y133985D01*
D12*
X846300Y71600D02*
X906300Y71600D01*
X906300Y131600D01*
X846300Y131600D01*
X846300Y71600D01*
X858800Y101600D02*
X858805Y102029D01*
X858821Y102459D01*
X858847Y102887D01*
X858884Y103315D01*
X858932Y103742D01*
X858989Y104168D01*
X859058Y104592D01*
X859136Y105014D01*
X859225Y105434D01*
X859324Y105852D01*
X859434Y106267D01*
X859554Y106680D01*
X859683Y107089D01*
X859823Y107496D01*
X859973Y107898D01*
X860132Y108297D01*
X860301Y108692D01*
X860480Y109082D01*
X860669Y109468D01*
X860866Y109849D01*
X861073Y110226D01*
X861290Y110597D01*
X861515Y110962D01*
X861749Y111322D01*
X861992Y111677D01*
X862244Y112025D01*
X862504Y112367D01*
X862772Y112702D01*
X863049Y113031D01*
X863333Y113352D01*
X863626Y113667D01*
X863926Y113974D01*
X864233Y114274D01*
X864548Y114567D01*
X864869Y114851D01*
X865198Y115128D01*
X865533Y115396D01*
X865875Y115656D01*
X866223Y115908D01*
X866578Y116151D01*
X866938Y116385D01*
X867303Y116610D01*
X867674Y116827D01*
X868051Y117034D01*
X868432Y117231D01*
X868818Y117420D01*
X869208Y117599D01*
X869603Y117768D01*
X870002Y117927D01*
X870404Y118077D01*
X870811Y118217D01*
X871220Y118346D01*
X871633Y118466D01*
X872048Y118576D01*
X872466Y118675D01*
X872886Y118764D01*
X873308Y118842D01*
X873732Y118911D01*
X874158Y118968D01*
X874585Y119016D01*
X875013Y119053D01*
X875441Y119079D01*
X875871Y119095D01*
X876300Y119100D01*
X876729Y119095D01*
X877159Y119079D01*
X877587Y119053D01*
X878015Y119016D01*
X878442Y118968D01*
X878868Y118911D01*
X879292Y118842D01*
X879714Y118764D01*
X880134Y118675D01*
X880552Y118576D01*
X880967Y118466D01*
X881380Y118346D01*
X881789Y118217D01*
X882196Y118077D01*
X882598Y117927D01*
X882997Y117768D01*
X883392Y117599D01*
X883782Y117420D01*
X884168Y117231D01*
X884549Y117034D01*
X884926Y116827D01*
X885297Y116610D01*
X885662Y116385D01*
X886022Y116151D01*
X886377Y115908D01*
X886725Y115656D01*
X887067Y115396D01*
X887402Y115128D01*
X887731Y114851D01*
X888052Y114567D01*
X888367Y114274D01*
X888674Y113974D01*
X888974Y113667D01*
X889267Y113352D01*
X889551Y113031D01*
X889828Y112702D01*
X890096Y112367D01*
X890356Y112025D01*
X890608Y111677D01*
X890851Y111322D01*
X891085Y110962D01*
X891310Y110597D01*
X891527Y110226D01*
X891734Y109849D01*
X891931Y109468D01*
X892120Y109082D01*
X892299Y108692D01*
X892468Y108297D01*
X892627Y107898D01*
X892777Y107496D01*
X892917Y107089D01*
X893046Y106680D01*
X893166Y106267D01*
X893276Y105852D01*
X893375Y105434D01*
X893464Y105014D01*
X893542Y104592D01*
X893611Y104168D01*
X893668Y103742D01*
X893716Y103315D01*
X893753Y102887D01*
X893779Y102459D01*
X893795Y102029D01*
X893800Y101600D01*
X893795Y101171D01*
X893779Y100741D01*
X893753Y100313D01*
X893716Y99885D01*
X893668Y99458D01*
X893611Y99032D01*
X893542Y98608D01*
X893464Y98186D01*
X893375Y97766D01*
X893276Y97348D01*
X893166Y96933D01*
X893046Y96520D01*
X892917Y96111D01*
X892777Y95704D01*
X892627Y95302D01*
X892468Y94903D01*
X892299Y94508D01*
X892120Y94118D01*
X891931Y93732D01*
X891734Y93351D01*
X891527Y92974D01*
X891310Y92603D01*
X891085Y92238D01*
X890851Y91878D01*
X890608Y91523D01*
X890356Y91175D01*
X890096Y90833D01*
X889828Y90498D01*
X889551Y90169D01*
X889267Y89848D01*
X888974Y89533D01*
X888674Y89226D01*
X888367Y88926D01*
X888052Y88633D01*
X887731Y88349D01*
X887402Y88072D01*
X887067Y87804D01*
X886725Y87544D01*
X886377Y87292D01*
X886022Y87049D01*
X885662Y86815D01*
X885297Y86590D01*
X884926Y86373D01*
X884549Y86166D01*
X884168Y85969D01*
X883782Y85780D01*
X883392Y85601D01*
X882997Y85432D01*
X882598Y85273D01*
X882196Y85123D01*
X881789Y84983D01*
X881380Y84854D01*
X880967Y84734D01*
X880552Y84624D01*
X880134Y84525D01*
X879714Y84436D01*
X879292Y84358D01*
X878868Y84289D01*
X878442Y84232D01*
X878015Y84184D01*
X877587Y84147D01*
X877159Y84121D01*
X876729Y84105D01*
X876300Y84100D01*
X875871Y84105D01*
X875441Y84121D01*
X875013Y84147D01*
X874585Y84184D01*
X874158Y84232D01*
X873732Y84289D01*
X873308Y84358D01*
X872886Y84436D01*
X872466Y84525D01*
X872048Y84624D01*
X871633Y84734D01*
X871220Y84854D01*
X870811Y84983D01*
X870404Y85123D01*
X870002Y85273D01*
X869603Y85432D01*
X869208Y85601D01*
X868818Y85780D01*
X868432Y85969D01*
X868051Y86166D01*
X867674Y86373D01*
X867303Y86590D01*
X866938Y86815D01*
X866578Y87049D01*
X866223Y87292D01*
X865875Y87544D01*
X865533Y87804D01*
X865198Y88072D01*
X864869Y88349D01*
X864548Y88633D01*
X864233Y88926D01*
X863926Y89226D01*
X863626Y89533D01*
X863333Y89848D01*
X863049Y90169D01*
X862772Y90498D01*
X862504Y90833D01*
X862244Y91175D01*
X861992Y91523D01*
X861749Y91878D01*
X861515Y92238D01*
X861290Y92603D01*
X861073Y92974D01*
X860866Y93351D01*
X860669Y93732D01*
X860480Y94118D01*
X860301Y94508D01*
X860132Y94903D01*
X859973Y95302D01*
X859823Y95704D01*
X859683Y96111D01*
X859554Y96520D01*
X859434Y96933D01*
X859324Y97348D01*
X859225Y97766D01*
X859136Y98186D01*
X859058Y98608D01*
X858989Y99032D01*
X858932Y99458D01*
X858884Y99885D01*
X858847Y100313D01*
X858821Y100741D01*
X858805Y101171D01*
X858800Y101600D01*
D13*
X870442Y133985D02*
X870507Y133987D01*
X870571Y133993D01*
X870635Y134003D01*
X870699Y134016D01*
X870761Y134034D01*
X870822Y134055D01*
X870882Y134079D01*
X870940Y134108D01*
X870997Y134140D01*
X871051Y134175D01*
X871103Y134213D01*
X871153Y134255D01*
X871200Y134299D01*
X871244Y134346D01*
X871286Y134396D01*
X871324Y134448D01*
X871359Y134502D01*
X871391Y134559D01*
X871420Y134617D01*
X871444Y134677D01*
X871465Y134738D01*
X871483Y134800D01*
X871496Y134864D01*
X871506Y134928D01*
X871512Y134992D01*
X871514Y135057D01*
X870442Y133985D02*
X870348Y133987D01*
X870254Y133993D01*
X870160Y134003D01*
X870067Y134016D01*
X869975Y134034D01*
X869883Y134055D01*
X869792Y134080D01*
X869702Y134109D01*
X869614Y134142D01*
X869527Y134178D01*
X869442Y134218D01*
X869358Y134261D01*
X869277Y134308D01*
X869197Y134358D01*
X869119Y134411D01*
X869044Y134468D01*
X868971Y134527D01*
X868901Y134590D01*
X868833Y134655D01*
X868967Y137739D02*
X868969Y137804D01*
X868975Y137868D01*
X868985Y137932D01*
X868998Y137996D01*
X869016Y138058D01*
X869037Y138119D01*
X869061Y138179D01*
X869090Y138237D01*
X869122Y138294D01*
X869157Y138348D01*
X869195Y138400D01*
X869237Y138450D01*
X869281Y138497D01*
X869328Y138541D01*
X869378Y138583D01*
X869430Y138621D01*
X869484Y138656D01*
X869541Y138688D01*
X869599Y138717D01*
X869659Y138741D01*
X869720Y138762D01*
X869782Y138780D01*
X869846Y138793D01*
X869910Y138803D01*
X869974Y138809D01*
X870039Y138811D01*
X870125Y138809D01*
X870211Y138804D01*
X870297Y138794D01*
X870382Y138781D01*
X870467Y138765D01*
X870551Y138745D01*
X870634Y138721D01*
X870716Y138694D01*
X870796Y138663D01*
X870876Y138629D01*
X870953Y138591D01*
X871029Y138550D01*
X871103Y138506D01*
X871175Y138459D01*
X871246Y138409D01*
X869503Y136801D02*
X869450Y136834D01*
X869399Y136871D01*
X869350Y136910D01*
X869303Y136952D01*
X869259Y136997D01*
X869218Y137044D01*
X869179Y137093D01*
X869143Y137145D01*
X869110Y137199D01*
X869081Y137254D01*
X869055Y137311D01*
X869032Y137370D01*
X869012Y137429D01*
X868996Y137490D01*
X868983Y137551D01*
X868974Y137614D01*
X868969Y137676D01*
X868967Y137739D01*
X870978Y135995D02*
X871031Y135962D01*
X871082Y135925D01*
X871131Y135886D01*
X871178Y135844D01*
X871222Y135799D01*
X871263Y135752D01*
X871302Y135703D01*
X871338Y135651D01*
X871371Y135597D01*
X871400Y135542D01*
X871426Y135485D01*
X871449Y135426D01*
X871469Y135367D01*
X871485Y135306D01*
X871498Y135245D01*
X871507Y135182D01*
X871512Y135120D01*
X871514Y135057D01*
X870978Y135996D02*
X869503Y136800D01*
X874064Y138811D02*
X875136Y133985D01*
X876209Y137202D01*
X877281Y133985D01*
X878353Y138811D01*
X881085Y135326D02*
X881087Y135397D01*
X881093Y135469D01*
X881102Y135539D01*
X881115Y135609D01*
X881132Y135679D01*
X881153Y135747D01*
X881177Y135814D01*
X881205Y135880D01*
X881236Y135944D01*
X881271Y136007D01*
X881309Y136067D01*
X881350Y136126D01*
X881394Y136182D01*
X881441Y136236D01*
X881490Y136287D01*
X881543Y136335D01*
X881598Y136381D01*
X881655Y136423D01*
X881715Y136463D01*
X881776Y136499D01*
X881840Y136532D01*
X881905Y136561D01*
X881971Y136587D01*
X882039Y136610D01*
X882108Y136629D01*
X882178Y136644D01*
X882248Y136655D01*
X882319Y136663D01*
X882390Y136667D01*
X882462Y136667D01*
X882533Y136663D01*
X882604Y136655D01*
X882674Y136644D01*
X882744Y136629D01*
X882813Y136610D01*
X882881Y136587D01*
X882947Y136561D01*
X883012Y136532D01*
X883076Y136499D01*
X883137Y136463D01*
X883197Y136423D01*
X883254Y136381D01*
X883309Y136335D01*
X883362Y136287D01*
X883411Y136236D01*
X883458Y136182D01*
X883502Y136126D01*
X883543Y136067D01*
X883581Y136007D01*
X883616Y135944D01*
X883647Y135880D01*
X883675Y135814D01*
X883699Y135747D01*
X883720Y135679D01*
X883737Y135609D01*
X883750Y135539D01*
X883759Y135469D01*
X883765Y135397D01*
X883767Y135326D01*
X883765Y135255D01*
X883759Y135183D01*
X883750Y135113D01*
X883737Y135043D01*
X883720Y134973D01*
X883699Y134905D01*
X883675Y134838D01*
X883647Y134772D01*
X883616Y134708D01*
X883581Y134645D01*
X883543Y134585D01*
X883502Y134526D01*
X883458Y134470D01*
X883411Y134416D01*
X883362Y134365D01*
X883309Y134317D01*
X883254Y134271D01*
X883197Y134229D01*
X883137Y134189D01*
X883076Y134153D01*
X883012Y134120D01*
X882947Y134091D01*
X882881Y134065D01*
X882813Y134042D01*
X882744Y134023D01*
X882674Y134008D01*
X882604Y133997D01*
X882533Y133989D01*
X882462Y133985D01*
X882390Y133985D01*
X882319Y133989D01*
X882248Y133997D01*
X882178Y134008D01*
X882108Y134023D01*
X882039Y134042D01*
X881971Y134065D01*
X881905Y134091D01*
X881840Y134120D01*
X881776Y134153D01*
X881715Y134189D01*
X881655Y134229D01*
X881598Y134271D01*
X881543Y134317D01*
X881490Y134365D01*
X881441Y134416D01*
X881394Y134470D01*
X881350Y134526D01*
X881309Y134585D01*
X881271Y134645D01*
X881236Y134708D01*
X881205Y134772D01*
X881177Y134838D01*
X881153Y134905D01*
X881132Y134973D01*
X881115Y135043D01*
X881102Y135113D01*
X881093Y135183D01*
X881087Y135255D01*
X881085Y135326D01*
X881354Y137739D02*
X881356Y137804D01*
X881362Y137868D01*
X881372Y137932D01*
X881385Y137996D01*
X881403Y138058D01*
X881424Y138119D01*
X881448Y138179D01*
X881477Y138237D01*
X881509Y138294D01*
X881544Y138348D01*
X881582Y138400D01*
X881624Y138450D01*
X881668Y138497D01*
X881715Y138541D01*
X881765Y138583D01*
X881817Y138621D01*
X881871Y138656D01*
X881928Y138688D01*
X881986Y138717D01*
X882046Y138741D01*
X882107Y138762D01*
X882169Y138780D01*
X882233Y138793D01*
X882297Y138803D01*
X882361Y138809D01*
X882426Y138811D01*
X882491Y138809D01*
X882555Y138803D01*
X882619Y138793D01*
X882683Y138780D01*
X882745Y138762D01*
X882806Y138741D01*
X882866Y138717D01*
X882924Y138688D01*
X882981Y138656D01*
X883035Y138621D01*
X883087Y138583D01*
X883137Y138541D01*
X883184Y138497D01*
X883228Y138450D01*
X883270Y138400D01*
X883308Y138348D01*
X883343Y138294D01*
X883375Y138237D01*
X883404Y138179D01*
X883428Y138119D01*
X883449Y138058D01*
X883467Y137996D01*
X883480Y137932D01*
X883490Y137868D01*
X883496Y137804D01*
X883498Y137739D01*
X883496Y137674D01*
X883490Y137610D01*
X883480Y137546D01*
X883467Y137482D01*
X883449Y137420D01*
X883428Y137359D01*
X883404Y137299D01*
X883375Y137241D01*
X883343Y137184D01*
X883308Y137130D01*
X883270Y137078D01*
X883228Y137028D01*
X883184Y136981D01*
X883137Y136937D01*
X883087Y136895D01*
X883035Y136857D01*
X882981Y136822D01*
X882924Y136790D01*
X882866Y136761D01*
X882806Y136737D01*
X882745Y136716D01*
X882683Y136698D01*
X882619Y136685D01*
X882555Y136675D01*
X882491Y136669D01*
X882426Y136667D01*
X882361Y136669D01*
X882297Y136675D01*
X882233Y136685D01*
X882169Y136698D01*
X882107Y136716D01*
X882046Y136737D01*
X881986Y136761D01*
X881928Y136790D01*
X881871Y136822D01*
X881817Y136857D01*
X881765Y136895D01*
X881715Y136937D01*
X881668Y136981D01*
X881624Y137028D01*
X881582Y137078D01*
X881544Y137130D01*
X881509Y137184D01*
X881477Y137241D01*
X881448Y137299D01*
X881424Y137359D01*
X881403Y137420D01*
X881385Y137482D01*
X881372Y137546D01*
X881362Y137610D01*
X881356Y137674D01*
X881354Y137739D01*
D14*
X692658Y297124D02*
X692658Y305562D01*
X692658Y297124D02*
X692660Y297011D01*
X692666Y296898D01*
X692676Y296785D01*
X692690Y296672D01*
X692707Y296560D01*
X692729Y296449D01*
X692754Y296339D01*
X692784Y296229D01*
X692817Y296121D01*
X692854Y296014D01*
X692894Y295908D01*
X692939Y295804D01*
X692987Y295701D01*
X693038Y295600D01*
X693093Y295501D01*
X693151Y295404D01*
X693213Y295309D01*
X693278Y295216D01*
X693346Y295126D01*
X693417Y295038D01*
X693492Y294952D01*
X693569Y294869D01*
X693649Y294789D01*
X693732Y294712D01*
X693818Y294637D01*
X693906Y294566D01*
X693996Y294498D01*
X694089Y294433D01*
X694184Y294371D01*
X694281Y294313D01*
X694380Y294258D01*
X694481Y294207D01*
X694584Y294159D01*
X694688Y294114D01*
X694794Y294074D01*
X694901Y294037D01*
X695009Y294004D01*
X695119Y293974D01*
X695229Y293949D01*
X695340Y293927D01*
X695452Y293910D01*
X695565Y293896D01*
X695678Y293886D01*
X695791Y293880D01*
X695904Y293878D01*
X696017Y293880D01*
X696130Y293886D01*
X696243Y293896D01*
X696356Y293910D01*
X696468Y293927D01*
X696579Y293949D01*
X696689Y293974D01*
X696799Y294004D01*
X696907Y294037D01*
X697014Y294074D01*
X697120Y294114D01*
X697224Y294159D01*
X697327Y294207D01*
X697428Y294258D01*
X697527Y294313D01*
X697624Y294371D01*
X697719Y294433D01*
X697812Y294498D01*
X697902Y294566D01*
X697990Y294637D01*
X698076Y294712D01*
X698159Y294789D01*
X698239Y294869D01*
X698316Y294952D01*
X698391Y295038D01*
X698462Y295126D01*
X698530Y295216D01*
X698595Y295309D01*
X698657Y295404D01*
X698715Y295501D01*
X698770Y295600D01*
X698821Y295701D01*
X698869Y295804D01*
X698914Y295908D01*
X698954Y296014D01*
X698991Y296121D01*
X699024Y296229D01*
X699054Y296339D01*
X699079Y296449D01*
X699101Y296560D01*
X699118Y296672D01*
X699132Y296785D01*
X699142Y296898D01*
X699148Y297011D01*
X699150Y297124D01*
X699149Y297124D02*
X699149Y305562D01*
X704469Y302966D02*
X707715Y305562D01*
X707715Y293878D01*
X710960Y293878D02*
X704469Y293878D01*
M02*
